SplineFontDB: 1.0
FontName: DejaVuSans-ExtraLight
FullName: DejaVu Sans ExtraLight
FamilyName: DejaVu Sans Light
Weight: ExtraLight
Copyright: Copyright (c) 2003 by Bitstream, Inc. All Rights Reserved.\nDejaVu changes are in public domain\n
Version: 2.13
ItalicAngle: 0
UnderlinePosition: -85
UnderlineWidth: 90
Ascent: 1556
Descent: 492
Order2: 1
NeedsXUIDChange: 1
FSType: 0
OS2Version: 0
OS2_WeightWidthSlopeOnly: 0
OS2_UseTypoMetrics: 0
PfmFamily: 17
TTFWeight: 200
TTFWidth: 5
LineGap: 0
VLineGap: 0
Panose: 2 11 2 3 3 8 4 2 2 4
OS2TypoAscent: 1556
OS2TypoAOffset: 0
OS2TypoDescent: -492
OS2TypoDOffset: 0
OS2TypoLinegap: 0
OS2WinAscent: 1901
OS2WinAOffset: 0
OS2WinDescent: 483
OS2WinDOffset: 0
HheadAscent: 1901
HheadAOffset: 0
HheadDescent: -483
HheadDOffset: 0
OS2SubXSize: -15064
OS2SubYSize: 9680
OS2SubXOff: 9672
OS2SubYOff: 295
OS2SupXSize: 79
OS2SupYSize: 40
OS2SupXOff: 9768
OS2SupYOff: 16363
OS2StrikeYSize: 11512
OS2StrikeYPos: 9600
OS2Vendor: 'PfEd'
ScriptLang: 5
 3 cyrl 1 dflt grek 1 dflt latn 1 dflt 
 1 DFLT 1 dflt 
 1 latn 1 dflt 
 1 armn 1 dflt 
 1 arab 1 dflt 
KernClass: 47 57 2 0
 236 A Agrave Aacute Acircumflex Atilde Adieresis Aring Amacron Abreve Aogonek uni01CD uni01DE uni01E0 Aringacute uni0200 uni0202 uni0226 uni1E00 uni1EA0 uni1EA2 uni1EA4 uni1EA6 uni1EA8 uni1EAA uni1EAC uni1EAE uni1EB0 uni1EB2 uni1EB4 uni1EB6
 19 AE uni01E2 AEacute 
 33 B uni0181 uni1E02 uni1E04 uni1E06
 63 C Ccedilla Cacute Ccircumflex Cdotaccent Ccaron uni023B uni1E08
 75 D Eth Dcaron Dcroat uni0189 uni018A uni1E0A uni1E0C uni1E0E uni1E10 uni1E12
 18 F uni0191 uni1E1E 
 67 G Gcircumflex Gbreve Gdotaccent Gcommaaccent uni01E4 Gcaron uni1E20
 66 H Hcircumflex Hbar uni021E uni1E22 uni1E24 uni1E26 uni1E28 uni1E2A
 14 J Jcircumflex 
 38 K Kcommaaccent uni1E30 uni1E32 uni1E34
 45 L Lacute Lcommaaccent uni1E36 uni1E3A uni1E3C

StartChar: .notdef
Encoding: 0 -1 0
AltUni: 0
Width: 1229
Flags: W
Fore
102 -362 m 1,0,-1
 102 1444 l 1,1,-1
 1126 1444 l 1,2,-1
 1126 -362 l 1,3,-1
 102 -362 l 1,0,-1
197 -287 m 1,4,-1
 1032 -287 l 1,5,-1
 1032 1368 l 1,6,-1
 197 1368 l 1,7,-1
 197 -287 l 1,4,-1
EndSplineSet
EndChar
StartChar: exclam
Encoding: 33 33 33
Width: 821
Flags: W
Fore
362 128 m 1,0,-1
 459 128 l 1,1,-1
 459 0 l 1,2,-1
 362 0 l 1,3,-1
 362 128 l 1,0,-1
362 1493 m 1,4,-1
 459 1493 l 1,5,-1
 459 838 l 1,6,-1
 439 481 l 1,7,-1
 383 481 l 1,8,-1
 362 838 l 1,9,-1
 362 1493 l 1,4,-1
EndSplineSet
EndChar
StartChar: quotedbl
Encoding: 34 34 34
Width: 942
Flags: W
Fore
328 1493 m 1,0,-1
 328 938 l 1,1,-1
 232 938 l 1,2,-1
 232 1493 l 1,3,-1
 328 1493 l 1,0,-1
706 1493 m 1,4,-1
 706 938 l 1,5,-1
 610 938 l 1,6,-1
 610 1493 l 1,7,-1
 706 1493 l 1,4,-1
EndSplineSet
EndChar
StartChar: numbersign
Encoding: 35 35 35
Width: 1716
Flags: W
Fore
1087 939 m 1,0,-1
 735 939 l 1,1,-1
 631 529 l 1,2,-1
 985 529 l 1,3,-1
 1087 939 l 1,0,-1
866 1470 m 1,4,-1
 752 1017 l 1,5,-1
 1106 1017 l 1,6,-1
 1220 1470 l 1,7,-1
 1321 1470 l 1,8,-1
 1206 1017 l 1,9,-1
 1559 1017 l 1,10,-1
 1559 939 l 1,11,-1
 1187 939 l 1,12,-1
 1085 529 l 1,13,-1
 1444 529 l 1,14,-1
 1444 452 l 1,15,-1
 1066 452 l 1,16,-1
 954 0 l 1,17,-1
 853 0 l 1,18,-1
 966 452 l 1,19,-1
 612 452 l 1,20,-1
 499 0 l 1,21,-1
 400 0 l 1,22,-1
 512 452 l 1,23,-1
 158 452 l 1,24,-1
 158 529 l 1,25,-1
 532 529 l 1,26,-1
 634 939 l 1,27,-1
 272 939 l 1,28,-1
 272 1017 l 1,29,-1
 654 1017 l 1,30,-1
 766 1470 l 1,31,-1
 866 1470 l 1,4,-1
EndSplineSet
EndChar
StartChar: dollar
Encoding: 36 36 36
Width: 1303
Flags: W
Fore
683 -301 m 1,0,-1
 591 -301 l 1,1,-1
 591 0 l 1,2,3
 521 0 521 0 394 44 c 0,4,5
 268 87 268 87 170 129 c 1,6,-1
 170 216 l 1,7,8
 275 171 275 171 394 130 c 0,9,10
 531 82 531 82 592 83 c 1,11,-1
 592 652 l 1,12,13
 383 686 383 686 287 765 c 0,14,15
 192 845 192 845 192 983 c 0,16,17
 192 1134 192 1134 295 1221 c 0,18,19
 399 1308 399 1308 592 1321 c 1,20,-1
 592 1556 l 1,21,-1
 683 1556 l 1,22,-1
 683 1324 l 1,23,24
 760 1324 760 1324 880 1300 c 0,25,26
 964 1285 964 1285 1042 1259 c 1,27,-1
 1042 1174 l 1,28,29
 956 1205 956 1205 874 1222 c 0,30,31
 775 1243 775 1243 683 1243 c 1,32,-1
 683 711 l 1,33,34
 924 678 924 678 1031 593 c 0,35,36
 1139 508 1139 508 1139 360 c 0,37,38
 1139 201 1139 201 1024 108 c 0,39,40
 910 16 910 16 683 0 c 1,41,-1
 683 -301 l 1,0,-1
592 733 m 1,42,-1
 592 1239 l 1,43,44
 442 1223 442 1223 364 1158 c 0,45,46
 285 1092 285 1092 285 984 c 0,47,48
 285 878 285 878 358 818 c 0,49,50
 431 759 431 759 592 733 c 1,42,-1
683 633 m 1,51,-1
 683 83 l 1,52,53
 868 105 868 105 957 175 c 0,54,55
 1045 245 1045 245 1045 359 c 0,56,57
 1045 468 1045 468 961 537 c 0,58,59
 880 603 880 603 683 633 c 1,51,-1
EndSplineSet
EndChar
StartChar: percent
Encoding: 37 37 37
Width: 1946
Flags: W
Fore
1490 705 m 0,0,1
 1391 705 1391 705 1335 618 c 0,2,3
 1279 532 1279 532 1279 377 c 0,4,5
 1279 225 1279 225 1335 138 c 128,-1,6
 1391 51 1391 51 1490 51 c 0,7,8
 1587 51 1587 51 1643 138 c 128,-1,9
 1699 225 1699 225 1699 377 c 0,10,11
 1699 530 1699 530 1643 618 c 0,12,13
 1587 705 1587 705 1490 705 c 0,0,1
1488 784 m 0,14,15
 1628 784 1628 784 1710 674 c 0,16,17
 1793 564 1793 564 1793 377 c 128,-1,18
 1793 190 1793 190 1710 80 c 0,19,20
 1627 -29 1627 -29 1488 -29 c 0,21,22
 1346 -29 1346 -29 1264 80 c 0,23,24
 1182 190 1182 190 1182 377 c 0,25,26
 1182 565 1182 565 1265 674 c 0,27,28
 1347 784 1347 784 1488 784 c 0,14,15
459 1441 m 0,29,30
 360 1441 360 1441 304 1354 c 0,31,32
 248 1268 248 1268 248 1113 c 0,33,34
 248 961 248 961 304 874 c 128,-1,35
 360 787 360 787 459 787 c 0,36,37
 555 787 555 787 612 874 c 0,38,39
 668 961 668 961 668 1113 c 0,40,41
 668 1266 668 1266 612 1354 c 0,42,43
 555 1441 555 1441 459 1441 c 0,29,30
1385 1520 m 1,44,-1
 1489 1520 l 1,45,-1
 557 -29 l 1,46,-1
 453 -29 l 1,47,-1
 1385 1520 l 1,44,-1
457 1520 m 0,48,49
 597 1520 597 1520 679 1410 c 128,-1,50
 761 1300 761 1300 761 1113 c 128,-1,51
 761 926 761 926 679 816 c 0,52,53
 596 707 596 707 457 707 c 0,54,55
 315 707 315 707 233 816 c 0,56,57
 151 926 151 926 151 1113 c 0,58,59
 151 1301 151 1301 234 1410 c 0,60,61
 316 1520 316 1520 457 1520 c 0,48,49
EndSplineSet
EndChar
StartChar: ampersand
Encoding: 38 38 38
Width: 1597
Flags: W
Fore
517 856 m 1,0,1
 409 763 409 763 334 636 c 0,2,3
 278 542 278 542 278 414 c 0,4,5
 278 238 278 238 374 148 c 0,6,7
 481 48 481 48 684 53 c 0,8,9
 797 53 797 53 878 105 c 0,10,11
 1017 188 1017 188 1080 275 c 1,12,-1
 517 856 l 1,0,1
588 912 m 2,13,-1
 1139 348 l 1,14,15
 1174 390 1174 390 1258 534 c 0,16,17
 1318 637 1318 637 1323 801 c 1,18,-1
 1424 801 l 1,19,20
 1408 649 1408 649 1374 556 c 0,21,22
 1326 420 1326 420 1207 280 c 1,23,-1
 1470 0 l 1,24,-1
 1343 0 l 1,25,-1
 1145 208 l 1,26,27
 1030 85 1030 85 932 36 c 0,28,29
 802 -29 802 -29 676 -29 c 0,30,31
 408 -29 408 -29 291 111 c 0,32,33
 176 248 176 248 176 407 c 0,34,35
 176 564 176 564 252 692 c 0,36,37
 305 781 305 781 452 923 c 1,38,39
 415 964 415 964 377 1032 c 0,40,41
 341 1095 341 1095 341 1161 c 0,42,43
 341 1340 341 1340 433 1428 c 0,44,45
 529 1519 529 1519 705 1520 c 0,46,47
 787 1520 787 1520 866 1488 c 0,48,49
 1016 1426 1016 1426 1039 1408 c 1,50,-1
 1039 1309 l 1,51,52
 944 1367 944 1367 862 1402 c 0,53,54
 777 1438 777 1438 714 1438 c 0,55,56
 613 1438 613 1438 542 1397 c 0,57,58
 443 1342 443 1342 443 1163 c 0,59,60
 443 1112 443 1112 472 1060 c 0,61,62
 515 986 515 986 588 912 c 2,13,-1
EndSplineSet
EndChar
StartChar: quotesingle
Encoding: 39 39 39
Width: 563
Flags: W
Fore
327 1493 m 1,0,-1
 327 938 l 1,1,-1
 231 938 l 1,2,-1
 231 1493 l 1,3,-1
 327 1493 l 1,0,-1
EndSplineSet
EndChar
StartChar: parenleft
Encoding: 40 40 40
Width: 799
Flags: W
Fore
588 1556 m 1,0,1
 454 1326 454 1326 389 1099 c 0,2,3
 324 874 324 874 324 643 c 128,-1,4
 324 412 324 412 390 186 c 0,5,6
 455 -41 455 -41 588 -270 c 1,7,-1
 499 -270 l 1,8,9
 361 -35 361 -35 293 192 c 0,10,11
 224 419 224 419 224 643 c 0,12,13
 224 866 224 866 292 1092 c 128,-1,14
 360 1318 360 1318 499 1556 c 1,15,-1
 588 1556 l 1,0,1
EndSplineSet
EndChar
StartChar: parenright
Encoding: 41 41 41
Width: 799
Flags: W
Fore
224 1556 m 1,0,-1
 313 1556 l 1,1,2
 452 1320 452 1320 520 1092 c 0,3,4
 588 866 588 866 588 643 c 0,5,6
 588 419 588 419 519 192 c 0,7,8
 451 -35 451 -35 313 -270 c 1,9,-1
 224 -270 l 1,10,11
 357 -41 357 -41 423 186 c 0,12,13
 488 412 488 412 488 643 c 128,-1,14
 488 874 488 874 423 1099 c 0,15,16
 358 1326 358 1326 224 1556 c 1,0,-1
EndSplineSet
EndChar
StartChar: asterisk
Encoding: 42 42 42
Width: 1024
Flags: W
Fore
942 1278 m 1,0,-1
 556 1056 l 1,1,-1
 944 833 l 1,2,-1
 921 791 l 1,3,-1
 533 1016 l 1,4,-1
 533 586 l 1,5,-1
 485 586 l 1,6,-1
 485 1014 l 1,7,-1
 99 793 l 1,8,-1
 75 832 l 1,9,-1
 464 1056 l 1,10,-1
 77 1278 l 1,11,-1
 101 1318 l 1,12,-1
 485 1096 l 1,13,-1
 485 1520 l 1,14,-1
 533 1520 l 1,15,-1
 533 1096 l 1,16,-1
 919 1318 l 1,17,-1
 942 1278 l 1,0,-1
EndSplineSet
EndChar
StartChar: plus
Encoding: 43 43 43
Width: 1716
Flags: W
Fore
908 1284 m 1,0,-1
 908 683.5 l 1,1,-1
 1499 683.5 l 1,2,-1
 1499 601.5 l 1,3,-1
 908 601.5 l 1,4,-1
 908 0 l 1,5,-1
 807 0 l 1,6,-1
 807 601.5 l 1,7,-1
 217 601.5 l 1,8,-1
 217 683.5 l 1,9,-1
 807 683.5 l 1,10,-1
 807 1284 l 1,11,-1
 908 1284 l 1,0,-1
EndSplineSet
EndChar
StartChar: comma
Encoding: 44 44 44
Width: 651
Flags: W
Fore
274 126 m 1,0,-1
 375 126 l 1,1,-1
 375 82 l 1,2,-1
 296 -238 l 1,3,-1
 234 -238 l 1,4,-1
 274 82 l 1,5,-1
 274 126 l 1,0,-1
EndSplineSet
EndChar
StartChar: hyphen
Encoding: 45 45 45
Width: 739
Flags: W
Fore
100 602 m 1,0,-1
 639 602 l 1,1,-1
 639 520 l 1,2,-1
 100 520 l 1,3,-1
 100 602 l 1,0,-1
EndSplineSet
EndChar
StartChar: period
Encoding: 46 46 46
Width: 651
Flags: W
Fore
274 126 m 1,0,-1
 376 126 l 1,1,-1
 376 0 l 1,2,-1
 274 0 l 1,3,-1
 274 126 l 1,0,-1
EndSplineSet
EndChar
StartChar: slash
Encoding: 47 47 47
Width: 690
Flags: W
Fore
552 1493 m 1,0,-1
 658 1493 l 1,1,-1
 138 -190 l 1,2,-1
 32 -190 l 1,3,-1
 552 1493 l 1,0,-1
EndSplineSet
EndChar
StartChar: zero
Encoding: 48 48 48
Width: 1303
Flags: W
AnchorPoint: "below" 651 0 basechar 0
AnchorPoint: "above" 651 1520 basechar 0
Fore
645 1438 m 24,0,1
 462 1438 462 1438 373 1260 c 0,2,3
 284 1081 284 1081 284 745 c 152,-1,4
 284 409 284 409 373 230 c 0,5,6
 462 52 462 52 645 52 c 24,7,8
 834 52 834 52 923 230 c 0,9,10
 1012 409 1012 409 1012 745 c 152,-1,11
 1012 1081 1012 1081 923 1260 c 0,12,13
 834 1438 834 1438 645 1438 c 24,0,1
645 1520 m 24,14,15
 861 1520 861 1520 987 1344 c 0,16,17
 1113 1167 1113 1167 1113 745 c 152,-1,18
 1113 323 1113 323 987 146 c 0,19,20
 861 -30 861 -30 645 -30 c 24,21,22
 435 -30 435 -30 309 146 c 0,23,24
 183 323 183 323 183 745 c 152,-1,25
 183 1167 183 1167 309 1344 c 0,26,27
 435 1520 435 1520 645 1520 c 24,14,15
EndSplineSet
EndChar
StartChar: one
Encoding: 49 49 49
Width: 1303
Flags: W
AnchorPoint: "below" 651 0 basechar 0
AnchorPoint: "above" 651 1520 basechar 0
Fore
304 82 m 1,0,-1
 634 82 l 1,1,-1
 634 1400.67 l 1,3,-1
 225 1236.67 l 1,4,-1
 225 1329 l 1,5,-1
 632 1493 l 1,6,-1
 734 1493 l 1,7,-1
 734 82 l 1,8,-1
 1064 82 l 1,9,-1
 1064 0 l 1,10,-1
 304 0 l 1,11,-1
 304 82 l 1,0,-1
EndSplineSet
EndChar
StartChar: two
Encoding: 50 50 50
Width: 1303
Flags: W
AnchorPoint: "below" 651 0 basechar 0
AnchorPoint: "above" 651 1520 basechar 0
Fore
246 81 m 1,0,-1
 1098 81 l 1,1,-1
 1098 0 l 1,2,-1
 142 0 l 1,3,-1
 142 105 l 1,4,-1
 514 492 l 0,5,6
 652 632 652 632 764 751 c 0,7,8
 868 862 868 862 903 923 c 128,-1,9
 938 984 938 984 938 1084 c 0,10,11
 938 1257 938 1257 832 1362 c 0,12,13
 755 1438 755 1438 584 1438 c 0,14,15
 484 1438 484 1438 354 1380 c 0,16,17
 297 1354 297 1354 160 1265 c 1,18,-1
 160 1371 l 1,19,20
 218 1412 218 1412 330 1462 c 0,21,22
 457 1519 457 1519 582 1520 c 0,23,24
 775 1520 775 1520 905 1421 c 0,25,26
 1032 1322 1032 1322 1032 1094 c 0,27,28
 1032 1002 1032 1002 998 920 c 0,29,30
 958 824 958 824 872 725 c 0,31,32
 847 696 847 696 713 558 c 0,33,-1
 246 81 l 1,0,-1
EndSplineSet
EndChar
StartChar: three
Encoding: 51 51 51
Width: 1303
Flags: W
AnchorPoint: "below" 651 0 basechar 0
AnchorPoint: "above" 651 1520 basechar 0
Fore
831 805 m 1,0,1
 951 776 951 776 1020 676 c 0,2,3
 1088 578 1088 578 1088 434 c 0,4,5
 1088 213 1088 213 961 92 c 128,-1,6
 834 -29 834 -29 555 -29 c 0,7,8
 461 -29 461 -29 362 0 c 0,9,10
 262 30 262 30 156 92 c 1,11,-1
 156 201 l 1,12,13
 240 128 240 128 340 90 c 0,14,15
 440 53 440 53 544 53 c 0,16,17
 760 53 760 53 874 151 c 0,18,19
 987 248 987 248 987 434 c 0,20,21
 987 586 987 586 882 671 c 0,22,23
 776 757 776 757 588 757 c 2,24,-1
 414 757 l 1,25,-1
 414 841 l 1,26,-1
 596 841 l 2,27,28
 769 841 769 841 860 910 c 0,29,30
 952 980 952 980 952 1112 c 0,31,32
 952 1268 952 1268 858 1352 c 0,33,34
 763 1436 763 1436 587 1436 c 0,35,36
 505 1436 505 1436 410 1407 c 128,-1,37
 315 1378 315 1378 201 1317 c 1,38,-1
 201 1421 l 1,39,40
 316 1470 316 1470 416 1493 c 0,41,42
 517 1518 517 1518 606 1520 c 0,43,44
 835 1520 835 1520 944 1416 c 0,45,46
 1054 1311 1054 1311 1054 1133 c 0,47,48
 1054 1014 1054 1014 996 924 c 0,49,50
 940 837 940 837 831 805 c 1,0,1
EndSplineSet
EndChar
StartChar: four
Encoding: 52 52 52
Width: 1303
Flags: W
AnchorPoint: "below" 651 0 basechar 0
AnchorPoint: "above" 651 1520 basechar 0
Fore
824 1438 m 1,0,-1
 204 476 l 1,1,-1
 824 476 l 1,2,-1
 824 1438 l 1,0,-1
746 1493 m 1,3,-1
 926 1493 l 1,4,-1
 926 476 l 1,5,-1
 1139 476 l 1,6,-1
 1139 396 l 1,7,-1
 926 396 l 1,8,-1
 926 0 l 1,9,-1
 824 0 l 1,10,-1
 824 396 l 1,11,-1
 100 396 l 1,12,-1
 100 500 l 1,13,-1
 746 1493 l 1,3,-1
EndSplineSet
EndChar
StartChar: five
Encoding: 53 53 53
Width: 1303
Flags: W
AnchorPoint: "below" 651 0 basechar 0
AnchorPoint: "above" 651 1520 basechar 0
Fore
261 1493 m 1,0,-1
 970 1493 l 1,1,-1
 970 1412 l 1,2,-1
 362 1412 l 1,3,-1
 362 911 l 1,4,5
 406 927 406 927 450 936 c 0,6,7
 494 944 494 944 579 944 c 0,8,9
 808 944 808 944 942 818 c 0,10,11
 1075 693 1075 693 1075 479 c 0,12,13
 1075 238 1075 238 938 104 c 0,14,15
 801 -29 801 -29 551 -29 c 0,16,17
 468 -29 468 -29 381 -15 c 0,18,19
 295 -1 295 -1 202 27 c 1,20,-1
 202 129 l 1,21,22
 280 92 280 92 364 73 c 0,23,24
 447 55 447 55 540 55 c 0,25,26
 740 55 740 55 858 169 c 128,-1,27
 976 283 976 283 976 479 c 0,28,29
 976 656 976 656 861 759 c 0,30,31
 745 863 745 863 547 863 c 0,32,33
 506 863 506 863 426 841 c 0,34,35
 345 820 345 820 261 775 c 1,36,-1
 261 1493 l 1,0,-1
EndSplineSet
EndChar
StartChar: six
Encoding: 54 54 54
Width: 1303
Flags: W
AnchorPoint: "below" 651 0 basechar 0
AnchorPoint: "above" 651 1520 basechar 0
Fore
676 866 m 128,-1,1
 517 866 517 866 424 757 c 128,-1,2
 331 648 331 648 331 459 c 128,-1,3
 331 270 331 270 424 161 c 128,-1,4
 517 52 517 52 676 52 c 128,-1,5
 835 52 835 52 928 161 c 128,-1,6
 1021 270 1021 270 1021 459 c 128,-1,7
 1021 648 1021 648 928 757 c 128,-1,0
 835 866 835 866 676 866 c 128,-1,1
1049 1460 m 1,8,-1
 1049 1354 l 1,9,10
 979 1396 979 1396 909 1418 c 0,11,12
 838 1440 838 1440 769 1440 c 0,13,14
 471 1440 471 1440 352 1147 c 0,15,16
 298 1014 298 1014 302 696 c 1,17,18
 353 806 353 806 431 868 c 0,19,20
 532 949 532 949 688 949 c 0,21,22
 876 949 876 949 1001 816 c 0,23,24
 1125 684 1125 684 1125 479 c 0,25,26
 1125 249 1125 249 1003 110 c 128,-1,27
 881 -29 881 -29 685 -29 c 0,28,29
 448 -29 448 -29 323 170 c 0,30,31
 199 368 199 368 199 745 c 0,32,33
 199 1147 199 1147 352 1334 c 0,34,35
 504 1520 504 1520 762 1520 c 0,36,37
 831 1520 831 1520 902 1505 c 0,38,39
 972 1490 972 1490 1049 1460 c 1,8,-1
EndSplineSet
EndChar
StartChar: seven
Encoding: 55 55 55
Width: 1303
Flags: W
AnchorPoint: "below" 651 0 basechar 0
AnchorPoint: "above" 651 1520 basechar 0
Fore
168 1493 m 1,0,-1
 1076 1493 l 1,1,-1
 1076 1407 l 1,2,-1
 534 0 l 1,3,-1
 428 0 l 1,4,-1
 971 1411 l 1,5,-1
 168 1411 l 1,6,-1
 168 1493 l 1,0,-1
EndSplineSet
EndChar
StartChar: eight
Encoding: 56 56 56
Width: 1303
Flags: W
AnchorPoint: "below" 651 0 basechar 0
AnchorPoint: "above" 651 1520 basechar 0
Fore
651 744 m 0,0,1
 484 744 484 744 388 652 c 0,2,3
 293 559 293 559 293 397 c 128,-1,4
 293 235 293 235 388 143 c 0,5,6
 484 50 484 50 651 50 c 128,-1,7
 818 50 818 50 914 143 c 0,8,9
 1011 236 1011 236 1011 397 c 0,10,11
 1011 559 1011 559 915 652 c 0,12,13
 819 744 819 744 651 744 c 0,0,1
449 795 m 1,14,15
 352 831 352 831 290 916 c 0,16,17
 225 1005 225 1005 225 1133 c 0,18,19
 225 1312 225 1312 339 1416 c 128,-1,20
 453 1520 453 1520 651 1520 c 0,21,22
 850 1520 850 1520 963 1416 c 0,23,24
 1077 1312 1077 1312 1077 1133 c 0,25,26
 1077 1000 1077 1000 1012 916 c 0,27,28
 945 829 945 829 854 795 c 1,29,30
 966 758 966 758 1036 662 c 0,31,32
 1109 563 1109 563 1109 420 c 0,33,34
 1109 203 1109 203 991 87 c 0,35,36
 872 -29 872 -29 651 -29 c 128,-1,37
 430 -29 430 -29 311 87 c 0,38,39
 193 203 193 203 193 420 c 0,40,41
 193 563 193 563 266 662 c 0,42,43
 347 761 347 761 449 795 c 1,14,15
327 1131 m 128,-1,45
 327 986 327 986 412 905 c 128,-1,46
 497 824 497 824 651 824 c 0,47,48
 803 824 803 824 890 905 c 0,49,50
 976 986 976 986 976 1131 c 128,-1,51
 976 1276 976 1276 890 1357 c 0,52,53
 803 1438 803 1438 651 1438 c 0,54,55
 497 1438 497 1438 412 1357 c 128,-1,44
 327 1276 327 1276 327 1131 c 128,-1,45
EndSplineSet
EndChar
StartChar: nine
Encoding: 57 57 57
Width: 1303
Flags: W
AnchorPoint: "below" 651 0 basechar 0
AnchorPoint: "above" 651 1520 basechar 0
Fore
275 31 m 1,0,-1
 275 137 l 1,1,2
 345 95 345 95 415 73 c 0,3,4
 486 51 486 51 555 51 c 0,5,6
 853 51 853 51 972 344 c 0,7,8
 1026 477 1026 477 1022 795 c 1,9,10
 971 685 971 685 893 623 c 0,11,12
 792 542 792 542 636 542 c 0,13,14
 448 542 448 542 323 675 c 0,15,16
 199 807 199 807 199 1012 c 0,17,18
 199 1242 199 1242 321 1381 c 0,19,20
 444 1520 444 1520 639 1520 c 0,21,22
 876 1520 876 1520 1001 1322 c 0,23,24
 1125 1123 1125 1123 1125 746 c 0,25,26
 1125 344 1125 344 973 158 c 0,27,28
 820 -29 820 -29 562 -29 c 0,29,30
 493 -29 493 -29 422 -14 c 0,31,32
 352 1 352 1 275 31 c 1,0,-1
648 625 m 0,33,34
 807 625 807 625 900 734 c 128,-1,35
 993 843 993 843 993 1032 c 0,36,37
 993 1221 993 1221 900 1330 c 128,-1,38
 807 1439 807 1439 648 1439 c 0,39,40
 489 1439 489 1439 396 1330 c 128,-1,41
 303 1221 303 1221 303 1032 c 0,42,43
 303 843 303 843 396 734 c 128,-1,44
 489 625 489 625 648 625 c 0,33,34
EndSplineSet
EndChar
StartChar: colon
Encoding: 58 58 58
Width: 690
Flags: W
Fore
294 128 m 1,0,-1
 396 128 l 1,1,-1
 396 0 l 1,2,-1
 294 0 l 1,3,-1
 294 128 l 1,0,-1
294 984 m 1,4,-1
 396 984 l 1,5,-1
 396 857 l 1,6,-1
 294 857 l 1,7,-1
 294 984 l 1,4,-1
EndSplineSet
EndChar
StartChar: semicolon
Encoding: 59 59 59
Width: 690
Flags: W
Fore
295 984 m 1,0,-1
 396 984 l 1,1,-1
 396 857 l 1,2,-1
 295 857 l 1,3,-1
 295 984 l 1,0,-1
294 129 m 1,4,-1
 395 129 l 1,5,-1
 395 82 l 1,6,-1
 317 -238 l 1,7,-1
 255 -238 l 1,8,-1
 294 82 l 1,9,-1
 294 129 l 1,4,-1
EndSplineSet
EndChar
StartChar: less
Encoding: 60 60 60
Width: 1716
Flags: W
Fore
1499 1052 m 1,0,-1
 345 640 l 1,1,-1
 1499 233 l 1,2,-1
 1499 132 l 1,3,-1
 217 597 l 1,4,-1
 217 681 l 1,5,-1
 1499 1146 l 1,6,-1
 1499 1052 l 1,0,-1
EndSplineSet
EndChar
StartChar: equal
Encoding: 61 61 61
Width: 1716
Flags: W
Fore
217 844 m 1,0,-1
 1499 844 l 1,1,-1
 1499 762 l 1,2,-1
 217 762 l 1,3,-1
 217 844 l 1,0,-1
217 522 m 1,4,-1
 1499 522 l 1,5,-1
 1499 440 l 1,6,-1
 217 440 l 1,7,-1
 217 522 l 1,4,-1
EndSplineSet
EndChar
StartChar: greater
Encoding: 62 62 62
Width: 1716
Flags: W
Fore
217 1052 m 1,0,-1
 217 1146 l 1,1,-1
 1499 681 l 1,2,-1
 1499 597 l 1,3,-1
 217 132 l 1,4,-1
 217 233 l 1,5,-1
 1371 640 l 1,6,-1
 217 1052 l 1,0,-1
EndSplineSet
EndChar
StartChar: question
Encoding: 63 63 63
Width: 1087
Flags: W
Fore
441 126 m 1,0,-1
 543 126 l 1,1,-1
 543 0 l 1,2,-1
 441 0 l 1,3,-1
 441 126 l 1,0,-1
543 401 m 1,4,-1
 442 401 l 1,5,-1
 442 555 l 2,6,7
 442 643 442 643 476 721 c 0,8,9
 501 781 501 781 594 872 c 2,10,-1
 684 961 l 2,11,12
 744 1021 744 1021 766 1061 c 0,13,14
 792 1108 792 1108 792 1157 c 0,15,16
 792 1283 792 1283 726 1361 c 128,-1,17
 660 1439 660 1439 547 1439 c 0,18,19
 422 1439 422 1439 357 1410 c 0,20,21
 252 1364 252 1364 176 1277 c 1,22,-1
 155 1386 l 1,23,24
 255 1470 255 1470 333 1493 c 0,25,26
 423 1520 423 1520 537 1520 c 0,27,28
 676 1520 676 1520 788 1423 c 0,29,30
 899 1326 899 1326 899 1167 c 0,31,32
 899 1091 899 1091 863 1022 c 0,33,34
 829 958 829 958 737 868 c 2,35,-1
 649 782 l 2,36,37
 605 739 605 739 582 708 c 0,38,39
 563 682 563 682 555 657 c 0,40,41
 549 636 549 636 546 606 c 0,42,43
 546 576 546 576 543 524 c 2,44,-1
 543 401 l 1,4,-1
EndSplineSet
EndChar
StartChar: at
Encoding: 64 64 64
Width: 2048
Flags: W
Fore
772 537 m 0,0,1
 772 363 772 363 847 264 c 128,-1,2
 922 165 922 165 1053 165 c 0,3,4
 1182 165 1182 165 1257 265 c 0,5,6
 1331 364 1331 364 1331 537 c 0,7,8
 1331 707 1331 707 1255 807 c 0,9,10
 1179 908 1179 908 1051 908 c 128,-1,11
 923 908 923 908 847 808 c 0,12,13
 772 708 772 708 772 537 c 0,0,1
1332 238 m 1,14,15
 1277 161 1277 161 1205 124 c 0,16,17
 1134 88 1134 88 1039 88 c 0,18,19
 880 88 880 88 781 212 c 0,20,21
 681 337 681 337 681 537 c 128,-1,22
 681 737 681 737 781 862 c 128,-1,23
 881 987 881 987 1039 987 c 0,24,25
 1134 987 1134 987 1206 950 c 0,26,27
 1278 912 1278 912 1332 836 c 1,28,-1
 1332 967 l 1,29,-1
 1424 967 l 1,30,-1
 1424 191 l 1,31,32
 1613 215 1613 215 1696 330 c 0,33,34
 1782 448 1782 448 1782 653 c 0,35,36
 1782 772 1782 772 1745 877 c 0,37,38
 1712 973 1712 973 1636 1071 c 0,39,40
 1486 1260 1486 1260 1329 1316 c 128,-1,41
 1172 1372 1172 1372 1055 1372 c 0,42,43
 942 1372 942 1372 838 1336 c 0,44,45
 739 1301 739 1301 647 1228 c 0,46,47
 503 1115 503 1115 421 930 c 0,48,49
 340 746 340 746 340 530 c 0,50,51
 340 371 340 371 393 219 c 0,52,53
 445 71 445 71 546 -48 c 0,54,55
 642 -162 642 -162 769 -221 c 0,56,57
 895 -280 895 -280 1039 -280 c 0,58,59
 1167 -280 1167 -280 1292 -233 c 0,60,61
 1416 -186 1416 -186 1520 -97 c 1,62,-1
 1557 -177 l 1,63,64
 1444 -276 1444 -276 1310 -328 c 0,65,66
 1177 -380 1177 -380 1039 -380 c 0,67,68
 872 -380 872 -380 724 -314 c 0,69,70
 575 -247 575 -247 459 -121 c 0,71,72
 343 6 343 6 283 173 c 0,73,74
 222 339 222 339 222 531 c 0,75,76
 222 715 222 715 284 883 c 0,77,78
 352 1068 352 1068 459 1176 c 0,79,80
 611 1329 611 1329 729 1381 c 0,81,82
 882 1449 882 1449 1053 1449 c 0,83,84
 1245 1449 1245 1449 1402 1387 c 0,85,86
 1556 1325 1556 1325 1725 1115 c 0,87,88
 1799 1023 1799 1023 1840 906 c 0,89,90
 1879 793 1879 793 1879 673 c 0,91,92
 1879 391 1879 391 1738 246 c 0,93,94
 1595 99 1595 99 1332 111 c 1,95,-1
 1332 238 l 1,14,15
EndSplineSet
EndChar
StartChar: A
Encoding: 65 65 65
Width: 1401
Flags: W
AnchorPoint: "above" 700 1520 basechar 0
AnchorPoint: "below" 700 0 basechar 0
Fore
695 1392 m 1,0,-1
 375 552 l 1,1,-1
 1010 552 l 1,2,-1
 695 1392 l 1,0,-1
631 1493 m 1,3,-1
 762 1493 l 1,4,-1
 1333 0 l 1,5,-1
 1219 0 l 1,6,-1
 1041 469 l 1,7,-1
 344 469 l 1,8,-1
 167 0 l 1,9,-1
 61 0 l 1,10,-1
 631 1493 l 1,3,-1
EndSplineSet
EndChar
StartChar: B
Encoding: 66 66 66
Width: 1341
Flags: W
AnchorPoint: "above" 700 1520 basechar 0
AnchorPoint: "below" 700 0 basechar 0
Fore
352 744 m 1,0,-1
 352 81 l 1,1,-1
 727 81 l 2,2,3
 917 81 917 81 1009 163 c 0,4,5
 1101 244 1101 244 1101 413 c 0,6,7
 1101 583 1101 583 1009 663 c 0,8,9
 917 744 917 744 727 744 c 2,10,-1
 352 744 l 1,0,-1
352 1411 m 1,11,-1
 352 826 l 1,12,-1
 702 826 l 2,13,14
 874 826 874 826 958 898 c 128,-1,15
 1042 970 1042 970 1042 1120 c 0,16,17
 1042 1267 1042 1267 958 1338 c 0,18,19
 874 1411 874 1411 702 1411 c 2,20,-1
 352 1411 l 1,11,-1
252 1493 m 1,21,-1
 717 1493 l 2,22,23
 922 1493 922 1493 1033 1397 c 128,-1,24
 1144 1301 1144 1301 1144 1124 c 0,25,26
 1144 978 1144 978 1087 906 c 0,27,28
 1024 826 1024 826 935 797 c 1,29,30
 1064 763 1064 763 1129 672 c 0,31,32
 1202 570 1202 570 1202 418 c 0,33,34
 1202 218 1202 218 1081 109 c 128,-1,35
 960 0 960 0 737 0 c 2,36,-1
 252 0 l 1,37,-1
 252 1493 l 1,21,-1
EndSplineSet
EndChar
StartChar: C
Encoding: 67 67 67
Width: 1430
Flags: W
AnchorPoint: "above" 844 1520 basechar 0
AnchorPoint: "below" 844 0 basechar 0
Fore
1319 1369 m 1,0,-1
 1319 1254 l 1,1,2
 1217 1347 1217 1347 1102 1392 c 0,3,4
 986 1438 986 1438 856 1438 c 0,5,6
 574 1438 574 1438 425 1260 c 0,7,8
 275 1082 275 1082 275 745 c 128,-1,9
 275 408 275 408 425 229 c 0,10,11
 574 50 574 50 856 50 c 0,12,13
 986 50 986 50 1102 96 c 0,14,15
 1217 143 1217 143 1319 236 c 1,16,-1
 1319 115 l 1,17,18
 1213 43 1213 43 1094 7 c 0,19,20
 976 -29 976 -29 844 -29 c 0,21,22
 530 -29 530 -29 350 178 c 0,23,24
 170 386 170 386 170 745 c 0,25,26
 170 1105 170 1105 350 1312 c 0,27,28
 530 1520 530 1520 844 1520 c 0,29,30
 978 1520 978 1520 1096 1482 c 0,31,32
 1215 1445 1215 1445 1319 1369 c 1,0,-1
EndSplineSet
EndChar
StartChar: D
Encoding: 68 68 68
Width: 1577
Flags: W
AnchorPoint: "above" 748 1540 basechar 0
AnchorPoint: "below" 748 0 basechar 0
Fore
351 1408 m 1,0,-1
 351 81 l 1,1,-1
 647 81 l 2,2,3
 985 81 985 81 1142 241 c 0,4,5
 1300 401 1300 401 1300 746 c 0,6,7
 1300 1089 1300 1089 1142 1249 c 0,8,9
 985 1408 985 1408 647 1408 c 2,10,-1
 351 1408 l 1,0,-1
249 1493 m 1,11,-1
 616 1493 l 2,12,13
 1024 1493 1024 1493 1215 1312 c 0,14,15
 1406 1132 1406 1132 1406 748 c 0,16,17
 1406 362 1406 362 1214 181 c 128,-1,18
 1022 0 1022 0 616 0 c 2,19,-1
 249 0 l 1,20,-1
 249 1493 l 1,11,-1
EndSplineSet
EndChar
StartChar: E
Encoding: 69 69 69
Width: 1294
Flags: W
AnchorPoint: "above" 670 1520 basechar 0
AnchorPoint: "below" 670 0 basechar 0
Fore
249 1493 m 1,0,-1
 1093 1493 l 1,1,-1
 1093 1410 l 1,2,-1
 351 1410 l 1,3,-1
 351 837 l 1,4,-1
 1062 837 l 1,5,-1
 1062 756 l 1,6,-1
 351 756 l 1,7,-1
 351 81 l 1,8,-1
 1111 81 l 1,9,-1
 1111 0 l 1,10,-1
 249 0 l 1,11,-1
 249 1493 l 1,0,-1
EndSplineSet
EndChar
StartChar: F
Encoding: 70 70 70
Width: 1178
Flags: W
AnchorPoint: "above" 670 1520 basechar 0
AnchorPoint: "below" 670 0 basechar 0
Fore
250 1493 m 1,0,-1
 1007 1493 l 1,1,-1
 1007 1410 l 1,2,-1
 351 1410 l 1,3,-1
 351 837 l 1,4,-1
 943 837 l 1,5,-1
 943 756 l 1,6,-1
 351 756 l 1,7,-1
 351 0 l 1,8,-1
 250 0 l 1,9,-1
 250 1493 l 1,0,-1
EndSplineSet
EndChar
StartChar: G
Encoding: 71 71 71
Width: 1587
Flags: W
AnchorPoint: "above" 860 1520 basechar 0
AnchorPoint: "below" 860 0 basechar 0
Fore
1270 127 m 1,0,-1
 1270 650 l 1,1,-1
 889 650 l 1,2,-1
 889 732 l 1,3,-1
 1369 732 l 1,4,-1
 1369 79 l 1,5,6
 1262 26 1262 26 1134 0 c 0,7,8
 1006 -27 1006 -27 860 -29 c 0,9,10
 536 -29 536 -29 354 176 c 0,11,12
 171 380 171 380 171 745 c 0,13,14
 171 1111 171 1111 354 1316 c 0,15,16
 536 1520 536 1520 860 1520 c 0,17,18
 994 1520 994 1520 1113 1493 c 0,19,20
 1233 1464 1233 1464 1333 1408 c 1,21,-1
 1333 1311 l 1,22,23
 1232 1367 1232 1367 1117 1396 c 0,24,25
 1003 1424 1003 1424 877 1424 c 0,26,27
 576 1424 576 1424 425 1253 c 0,28,29
 274 1083 274 1083 274 745 c 0,30,31
 274 402 274 402 425 229 c 0,32,33
 576 55 576 55 877 55 c 0,34,35
 1000 55 1000 55 1097 72 c 0,36,37
 1193 90 1193 90 1270 127 c 1,0,-1
EndSplineSet
EndChar
StartChar: H
Encoding: 72 72 72
Width: 1540
Flags: W
AnchorPoint: "above" 770 1520 basechar 0
AnchorPoint: "below" 770 0 basechar 0
Fore
249 1493 m 1,0,-1
 350 1493 l 1,1,-1
 350 837 l 1,2,-1
 1185 837 l 1,3,-1
 1185 1493 l 1,4,-1
 1286 1493 l 1,5,-1
 1286 0 l 1,6,-1
 1185 0 l 1,7,-1
 1185 756 l 1,8,-1
 350 756 l 1,9,-1
 350 0 l 1,10,-1
 249 0 l 1,11,-1
 249 1493 l 1,0,-1
EndSplineSet
EndChar
StartChar: I
Encoding: 73 73 73
Width: 604
Flags: W
AnchorPoint: "above" 303 1520 basechar 0
AnchorPoint: "below" 303 0 basechar 0
Fore
248 1493 m 1,0,-1
 352 1493 l 1,1,-1
 352 0 l 1,2,-1
 248 0 l 1,3,-1
 248 1493 l 1,0,-1
EndSplineSet
EndChar
StartChar: J
Encoding: 74 74 74
Width: 604
Flags: W
AnchorPoint: "above" 351 1520 basechar 0
AnchorPoint: "below" 351 -430 basechar 0
Fore
250 1493 m 1,0,-1
 350 1493 l 1,1,-1
 350 104 l 2,2,3
 350 -142 350 -142 284 -253 c 128,-1,4
 218 -364 218 -364 72 -364 c 2,5,-1
 11 -364 l 1,6,-1
 11 -281 l 1,7,-1
 60 -281 l 2,8,9
 164 -281 164 -281 207 -197 c 128,-1,10
 250 -113 250 -113 250 104 c 2,11,-1
 250 1493 l 1,0,-1
EndSplineSet
EndChar
StartChar: K
Encoding: 75 75 75
Width: 1343
Flags: W
AnchorPoint: "above" 670 1520 basechar 0
AnchorPoint: "below" 670 0 basechar 0
Fore
354 1493 m 1,0,-1
 453 1493 l 1,1,-1
 453 850 l 1,2,-1
 1137 1493 l 1,3,-1
 1270 1493 l 1,4,-1
 528 794 l 1,5,-1
 1319 0 l 1,6,-1
 1188 0 l 1,7,-1
 453 737 l 1,8,-1
 453 0 l 1,9,-1
 354 0 l 1,10,-1
 354 1493 l 1,0,-1
EndSplineSet
EndChar
StartChar: L
Encoding: 76 76 76
Width: 1141
Flags: W
AnchorPoint: "above" 298 1520 basechar 0
AnchorPoint: "below" 665 0 basechar 0
Fore
250 1493 m 1,0,-1
 350 1493 l 1,1,-1
 350 82 l 1,2,-1
 1077 82 l 1,3,-1
 1077 0 l 1,4,-1
 250 0 l 1,5,-1
 250 1493 l 1,0,-1
EndSplineSet
EndChar
StartChar: M
Encoding: 77 77 77
Width: 1767
Flags: W
AnchorPoint: "above" 883 1520 basechar 0
AnchorPoint: "below" 883 0 basechar 0
Fore
329 1493 m 1,0,-1
 468 1493 l 1,1,-1
 883 386 l 1,2,-1
 1300 1493 l 1,3,-1
 1438 1493 l 1,4,-1
 1438 0 l 1,5,-1
 1336 0 l 1,6,-1
 1336 1311 l 1,7,-1
 952 287 l 1,8,-1
 814 287 l 1,9,-1
 431 1311 l 1,10,-1
 431 0 l 1,11,-1
 329 0 l 1,12,-1
 329 1493 l 1,0,-1
EndSplineSet
EndChar
StartChar: N
Encoding: 78 78 78
Width: 1532
Flags: W
AnchorPoint: "above" 757 1506 basechar 0
AnchorPoint: "below" 757 0 basechar 0
Fore
248 1493 m 1,0,-1
 396 1493 l 1,1,-1
 1120 128 l 1,2,-1
 1120 1493 l 1,3,-1
 1220 1493 l 1,4,-1
 1220 0 l 1,5,-1
 1078 0 l 1,6,-1
 350 1374 l 1,7,-1
 350 0 l 1,8,-1
 248 0 l 1,9,-1
 248 1493 l 1,0,-1
EndSplineSet
EndChar
StartChar: O
Encoding: 79 79 79
Width: 1612
Flags: W
AnchorPoint: "above" 807 1520 basechar 0
AnchorPoint: "below" 807 0 basechar 0
Fore
807 1442 m 128,-1,1
 562 1442 562 1442 417 1255 c 0,2,3
 273 1068 273 1068 273 745 c 0,4,5
 273 424 273 424 417 237 c 0,6,7
 562 50 562 50 807 50 c 128,-1,8
 1052 50 1052 50 1196 237 c 0,9,10
 1339 424 1339 424 1339 745 c 0,11,12
 1339 1068 1339 1068 1196 1255 c 0,13,0
 1052 1442 1052 1442 807 1442 c 128,-1,1
807 1520 m 0,14,15
 1097 1520 1097 1520 1271 1310 c 0,16,17
 1445 1099 1445 1099 1445 745 c 0,18,19
 1445 392 1445 392 1271 182 c 0,20,21
 1097 -29 1097 -29 807 -29 c 0,22,23
 516 -29 516 -29 341 181 c 0,24,25
 167 391 167 391 167 745 c 128,-1,26
 167 1099 167 1099 341 1310 c 0,27,28
 516 1520 516 1520 807 1520 c 0,14,15
EndSplineSet
EndChar
StartChar: P
Encoding: 80 80 80
Width: 1235
Flags: W
AnchorPoint: "above" 670 1520 basechar 0
AnchorPoint: "below" 670 0 basechar 0
Fore
350 1410 m 1,0,-1
 350 724 l 1,1,-1
 657 724 l 2,2,3
 824 724 824 724 915 813 c 0,4,5
 1007 902 1007 902 1007 1068 c 0,6,7
 1007 1231 1007 1231 915 1321 c 0,8,9
 824 1410 824 1410 657 1410 c 2,10,-1
 350 1410 l 1,0,-1
250 1493 m 1,11,-1
 657 1493 l 2,12,13
 880 1493 880 1493 995 1385 c 0,14,15
 1109 1277 1109 1277 1109 1068 c 0,16,17
 1109 858 1109 858 995 750 c 0,18,19
 880 642 880 642 657 642 c 2,20,-1
 350 642 l 1,21,-1
 350 0 l 1,22,-1
 250 0 l 1,23,-1
 250 1493 l 1,11,-1
EndSplineSet
EndChar
StartChar: Q
Encoding: 81 81 81
Width: 1612
Flags: W
AnchorPoint: "above" 807 1520 basechar 0
AnchorPoint: "below" 807 0 basechar 0
Fore
807 1439 m 128,-1,1
 562 1439 562 1439 417 1252 c 0,2,3
 273 1066 273 1066 273 744 c 0,4,5
 273 423 273 423 417 237 c 0,6,7
 562 50 562 50 807 50 c 128,-1,8
 1052 50 1052 50 1196 237 c 0,9,10
 1339 423 1339 423 1339 744 c 0,11,12
 1339 1066 1339 1066 1196 1252 c 0,13,0
 1052 1439 1052 1439 807 1439 c 128,-1,1
1043 11 m 1,14,-1
 1297 -264 l 1,15,-1
 1171 -264 l 1,16,-1
 944 -18 l 1,17,18
 902 -26 902 -26 875 -28 c 0,19,20
 841 -28 841 -28 807 -29 c 0,21,22
 516 -29 516 -29 341 182 c 0,23,24
 167 392 167 392 167 745 c 0,25,26
 167 1099 167 1099 341 1310 c 0,27,28
 516 1520 516 1520 807 1520 c 0,29,30
 1097 1520 1097 1520 1271 1310 c 0,31,32
 1445 1099 1445 1099 1445 745 c 0,33,34
 1445 491 1445 491 1349 300 c 0,35,36
 1244 92 1244 92 1043 11 c 1,14,-1
EndSplineSet
EndChar
StartChar: R
Encoding: 82 82 82
Width: 1423
Flags: W
AnchorPoint: "above" 637 1506 basechar 0
AnchorPoint: "below" 637 0 basechar 0
Fore
867 700 m 1,0,1
 929 678 929 678 987 606 c 0,2,3
 1028 554 1028 554 1104 408 c 2,4,-1
 1313 0 l 1,5,-1
 1206 0 l 1,6,-1
 993 410 l 2,7,8
 910 571 910 571 834 623 c 0,9,10
 756 675 756 675 623 675 c 2,11,-1
 352 675 l 1,12,-1
 352 0 l 1,13,-1
 252 0 l 1,14,-1
 252 1493 l 1,15,-1
 657 1493 l 2,16,17
 886 1493 886 1493 999 1386 c 128,-1,18
 1112 1279 1112 1279 1112 1063 c 0,19,20
 1112 924 1112 924 1053 829 c 0,21,22
 997 736 997 736 867 700 c 1,0,1
352 1411 m 1,23,-1
 352 758 l 1,24,-1
 682 758 l 2,25,26
 842 758 842 758 924 841 c 128,-1,27
 1006 924 1006 924 1006 1086 c 0,28,29
 1006 1247 1006 1247 924 1329 c 128,-1,30
 842 1411 842 1411 682 1411 c 2,31,-1
 352 1411 l 1,23,-1
EndSplineSet
EndChar
StartChar: S
Encoding: 83 83 83
Width: 1300
Flags: W
AnchorPoint: "above" 659 1520 basechar 0
AnchorPoint: "below" 659 0 basechar 0
Fore
1084 1418 m 1,0,-1
 1084 1324 l 1,1,2
 986 1373 986 1373 867 1411 c 0,3,4
 789.482 1435.66 789.482 1435.66 670 1438 c 0,5,6
 494.422 1441.43 494.422 1441.43 384 1360 c 0,7,8
 284 1286.25 284 1286.25 284 1106 c 0,9,10
 284 995 284 995 360 930 c 0,11,12
 441.385 861.362 441.385 861.362 604 819 c 2,13,-1
 723 788 l 2,14,15
 882.998 746.32 882.998 746.32 970 688 c 0,16,17
 1133 577 1133 577 1133 409 c 0,18,19
 1133 166 1133 166 990 72 c 0,20,21
 834 -29 834 -29 670 -29 c 0,22,23
 499.479 -29 499.479 -29 364 17.502 c 0,24,25
 279.234 51.9736 279.234 51.9736 186 112 c 1,26,-1
 186 210 l 1,27,28
 325.785 126.673 325.785 126.673 382 103.851 c 0,29,30
 507.251 53 507.251 53 614 53 c 0,31,32
 797 53 797 53 918 134 c 0,33,34
 1032 210 1032 210 1032 401 c 0,35,36
 1032 513 1032 513 962 577 c 0,37,38
 860.747 670.153 860.747 670.153 700 709 c 2,39,-1
 580 738 l 2,40,41
 435.863 772.833 435.863 772.833 335 836 c 0,42,43
 182 932 182 932 182 1098 c 0,44,45
 182 1305 182 1305 307 1416 c 0,46,47
 423 1519 423 1519 659 1520 c 0,48,49
 798.452 1520 798.452 1520 872 1496 c 0,50,51
 1062 1434 1062 1434 1084 1418 c 1,0,-1
EndSplineSet
EndChar
StartChar: T
Encoding: 84 84 84
Width: 1251
Flags: W
AnchorPoint: "above" 627 1506 basechar 0
AnchorPoint: "below" 627 0 basechar 0
Fore
45 1493 m 1,0,-1
 1206 1493 l 1,1,-1
 1206 1411 l 1,2,-1
 676 1411 l 1,3,-1
 676 0 l 1,4,-1
 575 0 l 1,5,-1
 575 1411 l 1,6,-1
 45 1411 l 1,7,-1
 45 1493 l 1,0,-1
EndSplineSet
EndChar
StartChar: U
Encoding: 85 85 85
Width: 1499
Flags: W
AnchorPoint: "above" 750 1520 basechar 0
AnchorPoint: "below" 750 0 basechar 0
Fore
229 1493 m 1,0,-1
 329 1493 l 1,1,-1
 329 586 l 2,2,3
 329 302 329 302 429 177 c 0,4,5
 528 53 528 53 750 53 c 0,6,7
 971 53 971 53 1070 177 c 0,8,9
 1170 302 1170 302 1170 586 c 2,10,-1
 1170 1493 l 1,11,-1
 1270 1493 l 1,12,-1
 1270 561 l 2,13,14
 1270 269 1270 269 1138 120 c 0,15,16
 1007 -29 1007 -29 750 -29 c 0,17,18
 492 -29 492 -29 361 120 c 0,19,20
 229 269 229 269 229 561 c 2,21,-1
 229 1493 l 1,0,-1
EndSplineSet
EndChar
StartChar: V
Encoding: 86 86 86
Width: 1401
Flags: W
AnchorPoint: "above" 700 1520 basechar 0
AnchorPoint: "below" 700 0 basechar 0
Fore
632 0 m 1,0,-1
 62 1493 l 1,1,-1
 176 1493 l 1,2,-1
 700 100 l 1,3,-1
 1228 1493 l 1,4,-1
 1333 1493 l 1,5,-1
 764 0 l 1,6,-1
 632 0 l 1,0,-1
EndSplineSet
EndChar
StartChar: W
Encoding: 87 87 87
Width: 2025
Flags: W
AnchorPoint: "above" 1013 1527 basechar 0
AnchorPoint: "below" 1013 0 basechar 0
Fore
142 1493 m 1,0,-1
 245 1493 l 1,1,-1
 586 118 l 1,2,-1
 926 1493 l 1,3,-1
 1052 1493 l 1,4,-1
 1390 126 l 1,5,-1
 1730 1493 l 1,6,-1
 1833 1493 l 1,7,-1
 1462 0 l 1,8,-1
 1319 0 l 1,9,-1
 989 1330 l 1,10,-1
 660 0 l 1,11,-1
 512 0 l 1,12,-1
 142 1493 l 1,0,-1
EndSplineSet
EndChar
StartChar: X
Encoding: 88 88 88
Width: 1403
Flags: W
AnchorPoint: "above" 717 1520 basechar 0
AnchorPoint: "below" 717 0 basechar 0
Fore
180 1493 m 1,0,-1
 294 1493 l 1,1,-1
 712 866 l 1,2,-1
 1132 1493 l 1,3,-1
 1248 1493 l 1,4,-1
 769 781 l 1,5,-1
 1288 0 l 1,6,-1
 1173 0 l 1,7,-1
 705 702 l 1,8,-1
 235 0 l 1,9,-1
 120 0 l 1,10,-1
 648 789 l 1,11,-1
 180 1493 l 1,0,-1
EndSplineSet
EndChar
StartChar: Y
Encoding: 89 89 89
Width: 1251
Flags: W
AnchorPoint: "above" 626 1527 basechar 0
AnchorPoint: "below" 626 0 basechar 0
Fore
46 1493 m 1,0,-1
 162 1493 l 1,1,-1
 627 805 l 1,2,-1
 1089 1493 l 1,3,-1
 1203 1493 l 1,4,-1
 675 711 l 1,5,-1
 675 0 l 1,6,-1
 574 0 l 1,7,-1
 574 711 l 1,8,-1
 46 1493 l 1,0,-1
EndSplineSet
EndChar
StartChar: Z
Encoding: 90 90 90
Width: 1403
Flags: W
AnchorPoint: "above" 702 1520 basechar 0
AnchorPoint: "below" 702 0 basechar 0
Fore
115 1493 m 1,0,-1
 1288 1493 l 1,1,-1
 1288 1412 l 1,2,-1
 212 82 l 1,3,-1
 1311 82 l 1,4,-1
 1311 0 l 1,5,-1
 92 0 l 1,6,-1
 92 81 l 1,7,-1
 1166 1410 l 1,8,-1
 115 1410 l 1,9,-1
 115 1493 l 1,0,-1
EndSplineSet
EndChar
StartChar: bracketleft
Encoding: 91 91 91
Width: 799
Flags: W
Fore
232 1556 m 1,0,-1
 573 1556 l 1,1,-1
 573 1452 l 1,2,-1
 332 1452 l 1,3,-1
 332 -186 l 1,4,-1
 573 -186 l 1,5,-1
 573 -270 l 1,6,-1
 232 -270 l 1,7,-1
 232 1556 l 1,0,-1
EndSplineSet
EndChar
StartChar: backslash
Encoding: 92 92 92
Width: 690
Flags: W
Fore
138 1493 m 1,0,-1
 658 -190 l 1,1,-1
 552 -190 l 1,2,-1
 32 1493 l 1,3,-1
 138 1493 l 1,0,-1
EndSplineSet
EndChar
StartChar: bracketright
Encoding: 93 93 93
Width: 799
Flags: W
Fore
573 1556 m 1,0,-1
 573 -270 l 1,1,-1
 232 -270 l 1,2,-1
 232 -186 l 1,3,-1
 473 -186 l 1,4,-1
 473 1452 l 1,5,-1
 232 1452 l 1,6,-1
 232 1556 l 1,7,-1
 573 1556 l 1,0,-1
EndSplineSet
EndChar
StartChar: asciicircum
Encoding: 94 94 94
Width: 1716
Flags: W
Fore
917 1493 m 1,0,-1
 1460 936 l 1,1,-1
 1327 936 l 1,2,-1
 858 1367 l 1,3,-1
 391 936 l 1,4,-1
 257 936 l 1,5,-1
 800 1493 l 1,6,-1
 917 1493 l 1,0,-1
EndSplineSet
EndChar
StartChar: underscore
Encoding: 95 95 95
Width: 1024
Flags: W
Fore
1044 -405 m 1,0,-1
 1044 -483 l 1,1,-1
 -20 -483 l 1,2,-1
 -20 -405 l 1,3,-1
 1044 -405 l 1,0,-1
EndSplineSet
EndChar
StartChar: grave
Encoding: 96 96 96
Width: 1024
Flags: W
Fore
330 1638 m 1,0,-1
 612 1264 l 1,1,-1
 530 1264 l 1,2,-1
 204 1638 l 1,3,-1
 330 1638 l 1,0,-1
EndSplineSet
EndChar
StartChar: a
Encoding: 97 97 97
Width: 1255
Flags: W
AnchorPoint: "above" 596 1147 basechar 0
AnchorPoint: "below" 596 0 basechar 0
Fore
680 632 m 2,0,1
 458 632 458 632 360 553 c 128,-1,2
 262 474 262 474 262 322 c 0,3,4
 262 174 262 174 343 112 c 128,-1,5
 424 50 424 50 535 50 c 0,6,7
 745 50 745 50 837 228 c 0,8,9
 930 406 930 406 930 563 c 2,10,-1
 930 632 l 1,11,-1
 680 632 l 2,0,1
1023 639 m 2,12,-1
 1023 0 l 1,13,-1
 932 0 l 1,14,-1
 932 304 l 1,15,16
 855 81 855 81 728 20 c 0,17,18
 627 -29 627 -29 527 -29 c 0,19,20
 360 -29 360 -29 264 60 c 0,21,22
 168 150 168 150 168 324 c 128,-1,23
 168 498 168 498 293 602 c 0,24,25
 418 707 418 707 702 707 c 2,26,-1
 930 707 l 1,27,-1
 930 725 l 2,28,29
 930 874 930 874 845 970 c 0,30,31
 761 1066 761 1066 567 1066 c 0,32,33
 471 1066 471 1066 371 1030 c 0,34,35
 307 1007 307 1007 205 937 c 1,36,-1
 205 1036 l 1,37,38
 294 1091 294 1091 371 1114 c 0,39,40
 483 1147 483 1147 586 1147 c 0,41,42
 784 1147 784 1147 912 1027 c 0,43,44
 1023 924 1023 924 1023 639 c 2,12,-1
EndSplineSet
EndChar
StartChar: b
Encoding: 98 98 98
Width: 1300
Flags: W
AnchorPoint: "above" 278 1520 basechar 0
AnchorPoint: "below" 695 0 basechar 0
Fore
1040 559 m 24,0,1
 1040 832 1040 832 924 949 c 0,2,3
 809 1066 809 1066 681 1066 c 24,4,5
 556 1066 556 1066 440 949 c 0,6,7
 325 832 325 832 325 559 c 24,8,9
 325 286 325 286 440 169 c 0,10,11
 556 52 556 52 681 52 c 24,12,13
 809 52 809 52 924 169 c 0,14,15
 1040 286 1040 286 1040 559 c 24,0,1
324 864 m 1,16,17
 387 1010 387 1010 461 1064 c 0,18,19
 574 1147 574 1147 674 1147 c 0,20,21
 873 1147 873 1147 1005 985 c 128,-1,22
 1137 823 1137 823 1137 559 c 152,-1,23
 1137 295 1137 295 1005 133 c 128,-1,24
 873 -29 873 -29 674 -29 c 0,25,26
 574 -29 574 -29 461 54 c 0,27,28
 387 108 387 108 324 254 c 1,29,-1
 324 0 l 1,30,-1
 234 0 l 1,31,-1
 234 1556 l 1,32,-1
 324 1556 l 1,33,-1
 324 864 l 1,16,17
EndSplineSet
EndChar
StartChar: c
Encoding: 99 99 99
Width: 1126
Flags: W
AnchorPoint: "above" 678 1147 basechar 0
AnchorPoint: "below" 678 0 basechar 0
Fore
999 1066 m 1,0,-1
 999 968 l 1,1,2
 916 1019 916 1019 862 1037 c 0,3,4
 769 1066 769 1066 684 1066 c 0,5,6
 442 1066 442 1066 337 942 c 128,-1,7
 232 818 232 818 232 559 c 24,8,9
 232 298 232 298 337 174 c 128,-1,10
 442 50 442 50 684 50 c 24,11,12
 764 50 764 50 842 72 c 0,13,14
 921 93 921 93 999 136 c 1,15,-1
 999 43 l 1,16,17
 922 7 922 7 840 -11 c 0,18,19
 757 -29 757 -29 676 -29 c 24,20,21
 430 -29 430 -29 285 104 c 0,22,23
 140 238 140 238 140 559 c 24,24,25
 140 880 140 880 285 1014 c 0,26,27
 430 1147 430 1147 676 1147 c 0,28,29
 756 1147 756 1147 846 1124 c 0,30,31
 936 1102 936 1102 999 1066 c 1,0,-1
EndSplineSet
EndChar
StartChar: d
Encoding: 100 100 100
Width: 1300
Flags: W
AnchorPoint: "above" 1093 1520 basechar 0
AnchorPoint: "below" 676 0 basechar 0
Fore
1047 864 m 1,0,-1
 1047 1556 l 1,1,-1
 1137 1556 l 1,2,-1
 1137 0 l 1,3,-1
 1047 0 l 1,4,-1
 1047 254 l 1,5,6
 984 108 984 108 910 54 c 0,7,8
 797 -29 797 -29 697 -29 c 0,9,10
 498 -29 498 -29 366 133 c 128,-1,11
 234 295 234 295 234 559 c 24,12,13
 234 823 234 823 366 985 c 128,-1,14
 498 1147 498 1147 697 1147 c 0,15,16
 797 1147 797 1147 910 1064 c 0,17,18
 984 1010 984 1010 1047 864 c 1,0,-1
331 559 m 24,19,20
 331 286 331 286 447 169 c 0,21,22
 562 52 562 52 690 52 c 24,23,24
 815 52 815 52 931 169 c 0,25,26
 1046 286 1046 286 1046 559 c 24,27,28
 1046 832 1046 832 931 949 c 0,29,30
 815 1066 815 1066 690 1066 c 24,31,32
 562 1066 562 1066 447 949 c 0,33,34
 331 832 331 832 331 559 c 24,19,20
EndSplineSet
EndChar
StartChar: e
Encoding: 101 101 101
Width: 1260
Flags: W
AnchorPoint: "above" 653 1147 basechar 0
AnchorPoint: "below" 660 0 basechar 0
Fore
1105 606 m 1,0,-1
 1105 548 l 1,1,-1
 255 548 l 1,2,3
 255 278 255 278 360 170 c 0,4,5
 476 50 476 50 705 50 c 0,6,7
 765 50 765 50 864 76 c 0,8,9
 964 102 964 102 1062 154 c 1,10,-1
 1062 57 l 1,11,12
 963 15 963 15 859 -7 c 128,-1,13
 755 -29 755 -29 694 -29 c 0,14,15
 435 -29 435 -29 304 111 c 0,16,17
 162 260 162 260 162 548 c 0,18,19
 162 847 162 847 292 994 c 0,20,21
 425 1147 425 1147 662 1147 c 0,22,23
 882 1147 882 1147 994 1002 c 0,24,25
 1105 850 1105 850 1105 606 c 1,0,-1
1012 626 m 1,26,27
 1012 862 1012 862 906 970 c 0,28,29
 817 1066 817 1066 664 1066 c 0,30,31
 497 1066 497 1066 384 966 c 0,32,33
 280 873 280 873 259 626 c 1,34,-1
 1012 626 l 1,26,27
EndSplineSet
EndChar
StartChar: f
Encoding: 102 102 102
Width: 721
Flags: W
AnchorPoint: "above" 315 1520 basechar 0
AnchorPoint: "below" 315 0 basechar 0
Fore
714 1556 m 1,0,-1
 714 1478 l 1,1,-1
 584 1478 l 2,2,3
 482 1478 482 1478 428 1425 c 0,4,5
 362 1360 362 1360 362 1219 c 2,6,-1
 362 1120 l 1,7,-1
 664 1120 l 1,8,-1
 664 1042 l 1,9,-1
 362 1042 l 1,10,-1
 362 0 l 1,11,-1
 269 0 l 1,12,-1
 269 1042 l 1,13,-1
 93 1042 l 1,14,-1
 93 1120 l 1,15,-1
 269 1120 l 1,16,-1
 269 1198 l 2,17,18
 269 1385 269 1385 354 1470 c 0,19,20
 438 1556 438 1556 586 1556 c 2,21,-1
 714 1556 l 1,0,-1
EndSplineSet
EndChar
StartChar: g
Encoding: 103 103 103
Width: 1229
Flags: W
AnchorPoint: "above" 618 1147 basechar 0
AnchorPoint: "below" 678 -430 basechar 0
Fore
975.5 573 m 0,0,1
 975.5 806.5 975.5 806.5 881.141 934.925 c 128,-1,2
 786.781 1063.35 786.781 1063.35 616.362 1063.35 c 0,3,4
 447.088 1063.35 447.088 1063.35 352.729 934.925 c 128,-1,5
 258.369 806.5 258.369 806.5 258.369 573 c 0,6,7
 258.369 340.668 258.369 340.668 352.729 212.242 c 128,-1,8
 447.088 83.8174 447.088 83.8174 616.362 83.8174 c 0,9,10
 786.781 83.8174 786.781 83.8174 881.141 212.242 c 128,-1,11
 975.5 340.668 975.5 340.668 975.5 573 c 0,0,1
1068 139 m 2,12,13
 1068 -210 1068 -210 935 -318 c 128,-1,14
 802 -426 802 -426 598 -426 c 0,15,16
 501 -426 501 -426 415 -412 c 0,17,18
 329 -397 329 -397 248 -367 c 1,19,-1
 248 -262 l 1,20,21
 329 -306 329 -306 408 -327 c 128,-1,22
 487 -348 487 -348 569 -348 c 0,23,24
 736 -348 736 -348 856 -277 c 128,-1,25
 976 -206 976 -206 976 106 c 2,26,-1
 976 281 l 1,27,28
 935 166 935 166 863 100 c 0,29,30
 753.428 -1.01524 753.428 -1.01524 616 0 c 24,31,32
 402.714 0 402.714 0 283.821 150.578 c 128,-1,33
 165 301.157 165 301.157 165 574 c 0,34,35
 165 845.844 165 845.844 283.821 996.422 c 128,-1,36
 402.714 1147 402.714 1147 616 1147 c 24,37,38
 752.448 1147 752.448 1147 850 1061 c 0,39,40
 926 994 926 994 976 882 c 1,41,-1
 976 1120 l 1,42,-1
 1068 1120 l 1,43,-1
 1068 139 l 2,12,13
EndSplineSet
EndChar
StartChar: h
Encoding: 104 104 104
Width: 1298
Flags: W
AnchorPoint: "above" 278 1520 basechar 0
AnchorPoint: "below" 678 0 basechar 0
Fore
1078 676 m 2,0,-1
 1078 0 l 1,1,-1
 986 0 l 1,2,-1
 986 670 l 2,3,4
 986 886 986 886 913 976 c 128,-1,5
 840 1066 840 1066 692 1066 c 0,6,7
 522 1066 522 1066 423 966 c 128,-1,8
 324 866 324 866 324 633 c 2,9,-1
 324 0 l 1,10,-1
 232 0 l 1,11,-1
 232 1556 l 1,12,-1
 324 1556 l 1,13,-1
 324 913 l 1,14,15
 356 999 356 999 438 1066 c 0,16,17
 536 1147 536 1147 714 1147 c 0,18,19
 880 1147 880 1147 979 1028 c 0,20,21
 1078 908 1078 908 1078 676 c 2,0,-1
EndSplineSet
EndChar
StartChar: i
Encoding: 105 105 105
Width: 569
Flags: W
AnchorPoint: "above" 287 1583 basechar 0
AnchorPoint: "below" 287 0 basechar 0
Fore
230 1120 m 1,0,-1
 322 1120 l 1,1,-1
 322 0 l 1,2,-1
 230 0 l 1,3,-1
 230 1120 l 1,0,-1
230 1556 m 1,4,-1
 322 1556 l 1,5,-1
 322 1430 l 1,6,-1
 230 1430 l 1,7,-1
 230 1556 l 1,4,-1
EndSplineSet
Substitution: 0 65534 's001' dotlessi
EndChar
StartChar: j
Encoding: 106 106 106
Width: 569
Flags: W
AnchorPoint: "above" 287 1583 basechar 0
AnchorPoint: "below" 287 -430 basechar 0
Fore
239 1120 m 1,0,-1
 331 1120 l 1,1,-1
 331 -20 l 2,2,3
 331 -248 331 -248 262 -337 c 0,4,5
 192 -426 192 -426 33 -426 c 2,6,-1
 -37 -426 l 1,7,-1
 -37 -348 l 1,8,-1
 12 -348 l 2,9,10
 124 -348 124 -348 182 -298 c 0,11,12
 239 -248 239 -248 239 -20 c 2,13,-1
 239 1120 l 1,0,-1
239 1556 m 1,14,-1
 331 1556 l 1,15,-1
 331 1430 l 1,16,-1
 239 1430 l 1,17,-1
 239 1556 l 1,14,-1
EndSplineSet
Substitution: 0 65534 's001' dotlessj
EndChar
StartChar: k
Encoding: 107 107 107
Width: 1186
Flags: W
AnchorPoint: "above" 371.5 1520 basechar 0
AnchorPoint: "below" 678 0 basechar 0
Fore
325 1556 m 1,0,-1
 418 1556 l 1,1,-1
 418 611 l 1,2,-1
 975 1120 l 1,3,-1
 1101 1120 l 1,4,-1
 522 591 l 1,5,-1
 1120 0 l 1,6,-1
 1001 0 l 1,7,-1
 418 574 l 1,8,-1
 418 0 l 1,9,-1
 325 0 l 1,10,-1
 325 1556 l 1,0,-1
EndSplineSet
EndChar
StartChar: l
Encoding: 108 108 108
Width: 569
Flags: W
AnchorPoint: "above" 278 1520 basechar 0
AnchorPoint: "below" 278 0 basechar 0
Fore
232 1556 m 1,0,-1
 324 1556 l 1,1,-1
 324 0 l 1,2,-1
 232 0 l 1,3,-1
 232 1556 l 1,0,-1
EndSplineSet
EndChar
StartChar: m
Encoding: 109 109 109
Width: 1995
Flags: W
AnchorPoint: "above" 1001 1147 basechar 0
AnchorPoint: "below" 1001 0 basechar 0
Fore
1038 876 m 1,0,1
 1090 1011 1090 1011 1202 1080 c 0,2,3
 1308 1147 1308 1147 1454 1147 c 128,-1,4
 1600 1147 1600 1147 1688 1044 c 0,5,6
 1777 942 1777 942 1777 676 c 2,7,-1
 1777 0 l 1,8,-1
 1686 0 l 1,9,-1
 1686 670 l 2,10,11
 1686 902 1686 902 1622 984 c 128,-1,12
 1558 1066 1558 1066 1452 1066 c 0,13,14
 1298 1066 1298 1066 1180 971 c 0,15,16
 1051 868 1051 868 1051 633 c 2,17,-1
 1051 0 l 1,18,-1
 959 0 l 1,19,-1
 959 670 l 2,20,21
 959 894 959 894 897 980 c 128,-1,22
 835 1066 835 1066 725 1066 c 0,23,24
 571 1066 571 1066 453 970 c 0,25,26
 324 867 324 867 324 633 c 2,27,-1
 324 0 l 1,28,-1
 232 0 l 1,29,-1
 232 1120 l 1,30,-1
 324 1120 l 1,31,-1
 324 910 l 1,32,33
 373 1020 373 1020 476 1084 c 0,34,35
 580 1147 580 1147 731 1147 c 0,36,37
 829 1147 829 1147 920 1081 c 0,38,39
 990 1030 990 1030 1038 876 c 1,0,1
EndSplineSet
EndChar
StartChar: n
Encoding: 110 110 110
Width: 1298
Flags: W
AnchorPoint: "above" 649 1147 basechar 0
AnchorPoint: "below" 678 0 basechar 0
Fore
1078 676 m 2,0,-1
 1078 0 l 1,1,-1
 986 0 l 1,2,-1
 986 670 l 2,3,4
 986 888 986 888 916 977 c 128,-1,5
 846 1066 846 1066 710 1066 c 0,6,7
 551 1066 551 1066 438 970 c 0,8,9
 324 873 324 873 324 633 c 2,10,-1
 324 0 l 1,11,-1
 232 0 l 1,12,-1
 232 1120 l 1,13,-1
 324 1120 l 1,14,-1
 324 910 l 1,15,16
 373 1012 373 1012 453 1066 c 0,17,18
 571 1147 571 1147 714 1147 c 0,19,20
 880 1147 880 1147 979 1034 c 0,21,22
 1078 922 1078 922 1078 676 c 2,0,-1
EndSplineSet
EndChar
StartChar: o
Encoding: 111 111 111
Width: 1253
Flags: W
AnchorPoint: "above" 637 1147 basechar 0
AnchorPoint: "below" 637 0 basechar 0
Fore
628 1066 m 0,0,1
 457 1066 457 1066 358 929 c 0,2,3
 258 793 258 793 258 561 c 0,4,5
 258 323 258 323 357 187 c 0,6,7
 456 50 456 50 628 50 c 0,8,9
 799 50 799 50 898 187 c 0,10,11
 998 325 998 325 998 561 c 0,12,13
 998 790 998 790 898 928 c 0,14,15
 799 1066 799 1066 628 1066 c 0,0,1
627 1147 m 0,16,17
 841 1147 841 1147 965 987 c 0,18,19
 1090 826 1090 826 1090 560 c 0,20,21
 1090 285 1090 285 965 126 c 0,22,23
 841 -34 841 -34 627 -34 c 0,24,25
 411 -34 411 -34 286 125 c 0,26,27
 162 284 162 284 162 560 c 0,28,29
 162 829 162 829 287 988 c 128,-1,30
 412 1147 412 1147 627 1147 c 0,16,17
EndSplineSet
EndChar
StartChar: p
Encoding: 112 112 112
Width: 1300
Flags: W
AnchorPoint: "below" 723 -430 basechar 0
AnchorPoint: "above" 748 1147 basechar 0
Fore
324 254 m 1,0,-1
 324 -426 l 1,1,-1
 234 -426 l 1,2,-1
 234 1120 l 1,3,-1
 324 1120 l 1,4,-1
 324 864 l 1,5,6
 387 1010 387 1010 461 1064 c 0,7,8
 574 1147 574 1147 674 1147 c 0,9,10
 873 1147 873 1147 1005 985 c 128,-1,11
 1137 823 1137 823 1137 559 c 24,12,13
 1137 295 1137 295 1005 133 c 128,-1,14
 873 -29 873 -29 674 -29 c 0,15,16
 574 -29 574 -29 461 54 c 0,17,18
 387 108 387 108 324 254 c 1,0,-1
1040 559 m 24,19,20
 1040 832 1040 832 924 949 c 0,21,22
 809 1066 809 1066 681 1066 c 24,23,24
 556 1066 556 1066 440 949 c 0,25,26
 325 832 325 832 325 559 c 24,27,28
 325 286 325 286 440 169 c 0,29,30
 556 52 556 52 681 52 c 24,31,32
 809 52 809 52 924 169 c 0,33,34
 1040 286 1040 286 1040 559 c 24,19,20
EndSplineSet
EndChar
StartChar: q
Encoding: 113 113 113
Width: 1300
Flags: W
AnchorPoint: "above" 623 1147 basechar 0
AnchorPoint: "below" 648 -430 basechar 0
Fore
331 559 m 24,0,1
 331 286 331 286 447 169 c 0,2,3
 562 52 562 52 690 52 c 24,4,5
 815 52 815 52 931 169 c 0,6,7
 1046 286 1046 286 1046 559 c 24,8,9
 1046 832 1046 832 931 949 c 0,10,11
 815 1066 815 1066 690 1066 c 24,12,13
 562 1066 562 1066 447 949 c 0,14,15
 331 832 331 832 331 559 c 24,0,1
1047 254 m 1,16,17
 984 108 984 108 910 54 c 0,18,19
 797 -29 797 -29 697 -29 c 0,20,21
 498 -29 498 -29 366 133 c 128,-1,22
 234 295 234 295 234 559 c 24,23,24
 234 823 234 823 366 985 c 128,-1,25
 498 1147 498 1147 697 1147 c 0,26,27
 797 1147 797 1147 910 1064 c 0,28,29
 984 1010 984 1010 1047 864 c 1,30,-1
 1047 1120 l 1,31,-1
 1137 1120 l 1,32,-1
 1137 -426 l 1,33,-1
 1047 -426 l 1,34,-1
 1047 254 l 1,16,17
EndSplineSet
EndChar
StartChar: r
Encoding: 114 114 114
Width: 842
Flags: W
AnchorPoint: "above" 535 1147 basechar 0
AnchorPoint: "below" 535 0 basechar 0
Fore
840 1041 m 1,0,1
 818 1052 818 1052 780 1060 c 0,2,3
 746 1066 746 1066 694 1066 c 0,4,5
 524 1066 524 1066 412 940 c 0,6,7
 324 838 324 838 324 590 c 2,8,-1
 324 0 l 1,9,-1
 234 0 l 1,10,-1
 234 1120 l 1,11,-1
 324 1120 l 1,12,-1
 324 910 l 1,13,14
 369 1000 369 1000 450 1062 c 0,15,16
 562 1147 562 1147 714 1147 c 0,17,18
 753 1147 753 1147 782 1144 c 0,19,20
 812 1144 812 1144 840 1137 c 1,21,-1
 840 1041 l 1,0,1
EndSplineSet
EndChar
StartChar: s
Encoding: 115 115 115
Width: 1067
Flags: W
Fore
866 1087 m 1,0,-1
 866 986 l 1,1,2
 769 1040 769 1040 745 1046 c 0,3,4
 675 1063 675 1063 571 1066 c 0,5,6
 413 1066 413 1066 323 1003 c 0,7,8
 254 951 254 951 254 825 c 0,9,10
 254 740 254 740 319 692 c 0,11,12
 388 640 388 640 516 612 c 2,13,-1
 579 598 l 2,14,15
 738 563 738 563 820 499 c 0,16,17
 915 426 915 426 920 309 c 0,18,19
 920 150 920 150 826 60 c 0,20,21
 726 -29 726 -29 504 -29 c 0,22,23
 380 -29 380 -29 316 -12 c 0,24,25
 239 10 239 10 154 41 c 1,26,-1
 154 156 l 1,27,28
 276 86 276 86 312 76 c 0,29,30
 411 50 411 50 508 50 c 0,31,32
 670 50 670 50 747 117 c 0,33,34
 825 185 825 185 825 295 c 0,35,36
 825 387 825 387 773 429 c 0,37,38
 698 489 698 489 534 527 c 2,39,-1
 470 542 l 2,40,41
 329 575 329 575 255 635 c 0,42,43
 162 710 162 710 162 817 c 0,44,45
 162 993 162 993 274 1070 c 128,-1,46
 386 1147 386 1147 549 1147 c 0,47,48
 688 1147 688 1147 741 1132 c 0,49,50
 805 1114 805 1114 866 1087 c 1,0,-1
EndSplineSet
EndChar
StartChar: t
Encoding: 116 116 116
Width: 803
Flags: W
AnchorPoint: "above" 282 1520 basechar 0
AnchorPoint: "below" 500 0 basechar 0
Fore
329 1438 m 1,0,-1
 329 1120 l 1,1,-1
 708 1120 l 1,2,-1
 708 1042 l 1,3,-1
 329 1042 l 1,4,-1
 329 369 l 2,5,6
 329 241 329 241 362 190 c 0,7,8
 430 78 430 78 560 78 c 2,9,-1
 708 78 l 1,10,-1
 708 0 l 1,11,-1
 565 0 l 2,12,13
 428 0 428 0 332 80 c 128,-1,14
 236 160 236 160 236 369 c 2,15,-1
 236 1042 l 1,16,-1
 102 1042 l 1,17,-1
 102 1120 l 1,18,-1
 236 1120 l 1,19,-1
 236 1438 l 1,20,-1
 329 1438 l 1,0,-1
EndSplineSet
EndChar
StartChar: u
Encoding: 117 117 117
Width: 1298
Flags: W
AnchorPoint: "above" 637 1147 basechar 0
AnchorPoint: "below" 678 0 basechar 0
Fore
232 444 m 2,0,-1
 232 1120 l 1,1,-1
 324 1120 l 1,2,-1
 324 450 l 2,3,4
 324 232 324 232 394 143 c 128,-1,5
 464 54 464 54 600 54 c 0,6,7
 759 54 759 54 872 150 c 0,8,9
 986 247 986 247 986 487 c 2,10,-1
 986 1120 l 1,11,-1
 1078 1120 l 1,12,-1
 1078 0 l 1,13,-1
 986 0 l 1,14,-1
 986 210 l 1,15,16
 937 108 937 108 857 54 c 0,17,18
 739 -27 739 -27 596 -27 c 0,19,20
 430 -27 430 -27 331 86 c 0,21,22
 232 198 232 198 232 444 c 2,0,-1
EndSplineSet
EndChar
StartChar: v
Encoding: 118 118 118
Width: 1212
Flags: W
AnchorPoint: "above" 606 1147 basechar 0
AnchorPoint: "below" 606 0 basechar 0
Fore
130 1120 m 1,0,-1
 226 1120 l 1,1,-1
 606 101 l 1,2,-1
 985 1120 l 1,3,-1
 1082 1120 l 1,4,-1
 665 0 l 1,5,-1
 547 0 l 1,6,-1
 130 1120 l 1,0,-1
EndSplineSet
EndChar
StartChar: w
Encoding: 119 119 119
Width: 1675
Flags: W
AnchorPoint: "above" 807 1154 basechar 0
AnchorPoint: "below" 807 0 basechar 0
Fore
130 1120 m 1,0,-1
 225 1120 l 1,1,-1
 488 122 l 1,2,-1
 749 1120 l 1,3,-1
 866 1120 l 1,4,-1
 1129 117 l 1,5,-1
 1391 1120 l 1,6,-1
 1486 1120 l 1,7,-1
 1193 0 l 1,8,-1
 1065 0 l 1,9,-1
 807 982 l 1,10,-1
 550 0 l 1,11,-1
 424 0 l 1,12,-1
 130 1120 l 1,0,-1
EndSplineSet
EndChar
StartChar: x
Encoding: 120 120 120
Width: 1212
Flags: W
AnchorPoint: "above" 610 1147 basechar 0
AnchorPoint: "below" 610 0 basechar 0
Fore
1068 1120 m 1,0,-1
 663 582 l 1,1,-1
 1098 0 l 1,2,-1
 988 0 l 1,3,-1
 608 510 l 1,4,-1
 224 0 l 1,5,-1
 114 0 l 1,6,-1
 552 586 l 1,7,-1
 154 1120 l 1,8,-1
 263 1120 l 1,9,-1
 608 655 l 1,10,-1
 958 1120 l 1,11,-1
 1068 1120 l 1,0,-1
EndSplineSet
EndChar
StartChar: y
Encoding: 121 121 121
Width: 1212
Flags: W
AnchorPoint: "above" 608 1154 basechar 0
AnchorPoint: "below" 608 -430 basechar 0
Fore
610 -104 m 2,0,1
 550 -253 550 -253 481 -310 c 0,2,3
 388 -387 388 -387 299 -387 c 2,4,-1
 162 -387 l 1,5,-1
 162 -309 l 1,6,-1
 279 -309 l 2,7,8
 352 -309 352 -309 407 -262 c 0,9,10
 478 -201 478 -201 524 -83 c 2,11,-1
 557 0 l 1,12,-1
 110 1120 l 1,13,-1
 208 1120 l 1,14,-1
 606 122 l 1,15,-1
 1005 1120 l 1,16,-1
 1102 1120 l 1,17,-1
 610 -104 l 2,0,1
EndSplineSet
EndChar
StartChar: z
Encoding: 122 122 122
Width: 1075
Flags: W
AnchorPoint: "above" 535 1147 basechar 0
AnchorPoint: "below" 535 0 basechar 0
Fore
113 1120 m 1,0,-1
 987 1120 l 1,1,-1
 987 1014 l 1,2,-1
 177 78 l 1,3,-1
 987 78 l 1,4,-1
 987 0 l 1,5,-1
 88 0 l 1,6,-1
 88 102 l 1,7,-1
 897 1041 l 1,8,-1
 113 1041 l 1,9,-1
 113 1120 l 1,0,-1
EndSplineSet
EndChar
StartChar: braceleft
Encoding: 123 123 123
Width: 1303
Flags: W
Fore
883 -248 m 1,0,-1
 883 -334 l 1,1,-1
 842 -334 l 2,2,3
 697 -334 697 -334 641 -260 c 0,4,5
 584 -186 584 -186 584 35 c 2,6,-1
 584 288 l 2,7,8
 584 459 584 459 515 532 c 0,9,10
 481 568 481 568 421 568 c 2,11,-1
 347 568 l 1,12,-1
 347 656 l 1,13,-1
 421 656 l 2,14,15
 463 656 463 656 515 692 c 0,16,17
 584 739 584 739 584 934 c 2,18,-1
 584 1188 l 2,19,20
 584 1409 584 1409 641 1482 c 0,21,22
 697 1556 697 1556 842 1556 c 2,23,-1
 883 1556 l 1,24,-1
 883 1471 l 1,25,-1
 838 1471 l 2,26,27
 743 1471 743 1471 714 1424 c 0,28,29
 686 1377 686 1377 686 1225 c 2,30,-1
 686 936 l 2,31,32
 686 779 686 779 655 708 c 0,33,34
 625 637 625 637 551 612 c 1,35,36
 625 585 625 585 656 514 c 0,37,38
 686 443 686 443 686 287 c 2,39,-1
 686 -3 l 2,40,41
 686 -154 686 -154 714 -201 c 0,42,43
 743 -248 743 -248 838 -248 c 2,44,-1
 883 -248 l 1,0,-1
EndSplineSet
EndChar
StartChar: bar
Encoding: 124 124 124
Width: 690
Flags: W
Fore
396 1565 m 1,0,-1
 396 -483 l 1,1,-1
 300 -483 l 1,2,-1
 300 1565 l 1,3,-1
 396 1565 l 1,0,-1
EndSplineSet
EndChar
StartChar: braceright
Encoding: 125 125 125
Width: 1303
Flags: W
Fore
347 -248 m 1,0,-1
 393 -248 l 2,1,2
 487 -248 487 -248 516 -201 c 128,-1,3
 545 -154 545 -154 545 -3 c 2,4,-1
 545 287 l 2,5,6
 545 443 545 443 575 514 c 128,-1,7
 605 585 605 585 680 612 c 1,8,9
 606 637 606 637 576 708 c 0,10,11
 545 779 545 779 545 936 c 2,12,-1
 545 1225 l 2,13,14
 545 1377 545 1377 516 1424 c 128,-1,15
 487 1471 487 1471 393 1471 c 2,16,-1
 347 1471 l 1,17,-1
 347 1556 l 1,18,-1
 389 1556 l 2,19,20
 534 1556 534 1556 590 1482 c 0,21,22
 647 1409 647 1409 647 1188 c 2,23,-1
 647 934 l 2,24,25
 647 739 647 739 716 692 c 0,26,27
 768 656 768 656 810 656 c 2,28,-1
 883 656 l 1,29,-1
 883 568 l 1,30,-1
 810 568 l 2,31,32
 750 568 750 568 716 532 c 0,33,34
 647 459 647 459 647 288 c 2,35,-1
 647 35 l 2,36,37
 647 -186 647 -186 590 -260 c 0,38,39
 534 -334 534 -334 389 -334 c 2,40,-1
 347 -334 l 1,41,-1
 347 -248 l 1,0,-1
EndSplineSet
EndChar
StartChar: asciitilde
Encoding: 126 126 126
Width: 1716
Flags: W
Fore
1499 782 m 1,0,-1
 1499 685 l 1,1,2
 1394 606 1394 606 1304 572 c 0,3,4
 1215 538 1215 538 1118 538 c 0,5,6
 1024 538 1024 538 862 597 c 0,7,8
 851 601 851 601 846 603 c 0,9,10
 839 606 839 606 824 611 c 0,11,12
 669 673 669 673 575 673 c 0,13,14
 487 673 487 673 401 634 c 0,15,16
 315 596 315 596 217 513 c 1,17,-1
 217 610 l 1,18,19
 322 689 322 689 412 724 c 0,20,21
 501 758 501 758 598 758 c 0,22,23
 705 758 705 758 855 698 c 0,24,25
 865 694 865 694 870 692 c 0,26,27
 878 689 878 689 892 684 c 0,28,29
 1047 622 1047 622 1141 622 c 0,30,31
 1227 622 1227 622 1312 660 c 0,32,33
 1396 698 1396 698 1499 782 c 1,0,-1
EndSplineSet
EndChar
StartChar: exclamdown
Encoding: 161 161 161
Width: 821
Flags: W
Fore
459 1365 m 1,0,-1
 362 1365 l 1,1,-1
 362 1493 l 1,2,-1
 459 1493 l 1,3,-1
 459 1365 l 1,0,-1
459 0 m 1,4,-1
 362 0 l 1,5,-1
 362 655 l 1,6,-1
 382 1012 l 1,7,-1
 438 1012 l 1,8,-1
 459 655 l 1,9,-1
 459 0 l 1,4,-1
EndSplineSet
EndChar
StartChar: cent
Encoding: 162 162 162
Width: 1303
Flags: W
Fore
678 52 m 1,0,-1
 678 1066 l 1,1,2
 506 1045 506 1045 410 911 c 128,-1,3
 314 777 314 777 314 559 c 0,4,5
 314 340 314 340 410 206 c 128,-1,6
 506 72 506 72 678 52 c 1,0,-1
1080 1076 m 1,7,-1
 1080 969 l 1,8,9
 1000 1018 1000 1018 927 1042 c 0,10,11
 854 1067 854 1067 781 1071 c 1,12,-1
 781 47 l 1,13,14
 856 47 856 47 929 74 c 0,15,16
 1002 97 1002 97 1080 138 c 1,17,-1
 1080 32 l 1,18,19
 1010 2 1010 2 936 -16 c 0,20,21
 863 -34 863 -34 780 -41 c 1,22,-1
 780 -313 l 1,23,-1
 678 -313 l 1,24,-1
 678 -25 l 1,25,26
 461 -25 461 -25 342 148 c 0,27,28
 223 302 223 302 223 559 c 0,29,30
 223 817 223 817 342 970 c 128,-1,31
 461 1123 461 1123 678 1145 c 1,32,-1
 678 1432 l 1,33,-1
 780 1432 l 1,34,-1
 780 1145 l 1,35,36
 858 1145 858 1145 933 1124 c 0,37,38
 1007 1108 1007 1108 1080 1076 c 1,7,-1
EndSplineSet
EndChar
StartChar: sterling
Encoding: 163 163 163
Width: 1303
Flags: W
Fore
1102 1468 m 1,0,-1
 1102 1378 l 1,1,2
 1026 1408 1026 1408 958 1423 c 0,3,4
 899 1436 899 1436 829 1438 c 0,5,6
 648 1438 648 1438 560 1284 c 0,7,8
 511 1196 511 1196 511 993 c 2,9,-1
 511 746 l 1,10,-1
 956 746 l 1,11,-1
 956 668 l 1,12,-1
 511 668 l 1,13,-1
 511 76 l 1,14,-1
 1122 76 l 1,15,-1
 1122 0 l 1,16,-1
 129 0 l 1,17,-1
 129 76 l 1,18,-1
 419 76 l 1,19,-1
 419 668 l 1,20,-1
 166 668 l 1,21,-1
 166 746 l 1,22,-1
 419 746 l 1,23,-1
 419 1016 l 2,24,25
 419 1288 419 1288 536 1404 c 0,26,27
 652 1520 652 1520 811 1520 c 0,28,29
 872 1520 872 1520 948 1506 c 0,30,31
 1023 1493 1023 1493 1102 1468 c 1,0,-1
EndSplineSet
EndChar
StartChar: currency
Encoding: 164 164 164
Width: 1303
Flags: W
Fore
889 951 m 1,0,-1
 1111 1173 l 1,1,-1
 1181 1100 l 1,2,-1
 962 880 l 1,3,4
 997 836 997 836 1015 790 c 0,5,6
 1043 719 1043 719 1043 644 c 0,7,8
 1042 563 1042 563 1015 499 c 0,9,10
 993 448 993 448 959 406 c 1,11,-1
 1181 184 l 1,12,-1
 1111 111 l 1,13,-1
 886 336 l 1,14,15
 846 306 846 306 803 289 c 0,16,17
 729 258 729 258 650 259 c 0,18,19
 565 260 565 260 497 289 c 0,20,21
 454 307 454 307 417 335 c 1,22,-1
 193 111 l 1,23,-1
 123 184 l 1,24,-1
 343 405 l 1,25,26
 305 451 305 451 286 499 c 0,27,28
 257 570 257 570 258 644 c 0,29,30
 259 711 259 711 286 790 c 0,31,32
 305 846 305 846 340 881 c 1,33,-1
 123 1100 l 1,34,-1
 193 1173 l 1,35,-1
 414 952 l 1,36,37
 454 984 454 984 497 1001 c 0,38,39
 572 1032 572 1032 650 1031 c 0,40,41
 741 1030 741 1030 803 1001 c 0,42,43
 860 975 860 975 889 951 c 1,0,-1
951 644 m 0,44,45
 951 771.064 951 771.064 860 864 c 0,46,47
 776.939 951.017 776.939 951.017 650 953 c 0,48,49
 530 953 530 953 441 864 c 0,50,51
 351.986 779.032 351.986 779.032 350 644 c 0,52,53
 347.967 519.971 347.967 519.971 441 425 c 0,54,55
 526.953 337 526.953 337 650 337 c 0,56,57
 768.013 334.93 768.013 334.93 860 425 c 0,58,59
 949.03 512.007 949.03 512.007 951 644 c 0,44,45
EndSplineSet
EndChar
StartChar: yen
Encoding: 165 165 165
Width: 1303
Flags: W
Fore
1115 455 m 1,0,-1
 702 455 l 1,1,-1
 702 0 l 1,2,-1
 601 0 l 1,3,-1
 601 455 l 1,4,-1
 185 455 l 1,5,-1
 185 537 l 1,6,-1
 601 537 l 1,7,-1
 600 618 l 1,8,-1
 511 784 l 1,9,-1
 179 784 l 1,10,-1
 179 866 l 1,11,-1
 465 866 l 1,12,-1
 126 1493 l 1,13,-1
 237 1493 l 1,14,-1
 651 729 l 1,15,-1
 1063 1493 l 1,16,-1
 1176 1493 l 1,17,-1
 835 866 l 1,18,-1
 1122 866 l 1,19,-1
 1122 784 l 1,20,-1
 791 784 l 1,21,-1
 700 618 l 1,22,-1
 700 537 l 1,23,-1
 1115 537 l 1,24,-1
 1115 455 l 1,0,-1
EndSplineSet
EndChar
StartChar: brokenbar
Encoding: 166 166 166
Width: 690
Flags: W
Fore
390 408 m 1,0,-1
 390 -350 l 1,1,-1
 290 -350 l 1,2,-1
 290 408 l 1,3,-1
 390 408 l 1,0,-1
390 1432 m 1,4,-1
 390 674 l 1,5,-1
 290 674 l 1,6,-1
 290 1432 l 1,7,-1
 390 1432 l 1,4,-1
EndSplineSet
EndChar
StartChar: section
Encoding: 167 167 167
Width: 1024
Flags: W
Fore
412 954 m 1,0,1
 319 938 319 938 284 914 c 0,2,3
 196 853 196 853 196 762 c 0,4,5
 196 631 196 631 378 526 c 0,6,7
 597 398 597 398 600 394 c 1,8,9
 692 409 692 409 728 434 c 0,10,11
 815 494 815 494 815 586 c 0,12,13
 815 709.099 815 709.099 634 822 c 0,14,15
 432 948 432 948 412 954 c 1,0,1
829 1462 m 1,16,-1
 829 1360 l 1,17,18
 753 1396 753 1396 674 1418 c 0,19,20
 603 1438 603 1438 547 1438 c 0,21,22
 408 1438 408 1438 330 1398 c 0,23,24
 253 1358 253 1358 253 1287 c 0,25,26
 253 1134 253 1134 538 978 c 2,27,-1
 563 964 l 2,28,29
 782 844 782 844 847 767 c 0,30,31
 913 690 913 690 913 588 c 0,32,33
 913 522 913 522 866 444 c 0,34,35
 826 378 826 378 680 328 c 1,36,37
 786 253 786 253 820 170 c 0,38,39
 850 95 850 95 850 66 c 0,40,41
 850 -42 850 -42 750 -108 c 128,-1,42
 650 -174 650 -174 484 -174 c 0,43,44
 405 -174 405 -174 334 -160 c 0,45,46
 258 -145 258 -145 179 -116 c 1,47,-1
 179 -14 l 1,48,49
 255 -50 255 -50 334 -72 c 0,50,51
 405 -92 405 -92 461 -92 c 0,52,53
 600 -92 600 -92 678 -52 c 0,54,55
 755 -12 755 -12 755 59 c 0,56,57
 755 212 755 212 470 368 c 2,58,-1
 445 382 l 2,59,60
 226 502 226 502 161 579 c 0,61,62
 95 656 95 656 95 758 c 0,63,64
 95 824 95 824 142 902 c 0,65,66
 182 968 182 968 328 1018 c 1,67,68
 222 1093 222 1093 188 1176 c 0,69,70
 158 1251 158 1251 158 1280 c 0,71,72
 158 1388 158 1388 258 1454 c 128,-1,73
 358 1520 358 1520 524 1520 c 0,74,75
 603 1520 603 1520 674 1506 c 0,76,77
 750 1491 750 1491 829 1462 c 1,16,-1
EndSplineSet
EndChar
StartChar: dieresis
Encoding: 168 168 168
Width: 1024
Flags: W
Fore
606 1552 m 1,0,-1
 700 1552 l 1,1,-1
 700 1432 l 1,2,-1
 606 1432 l 1,3,-1
 606 1552 l 1,0,-1
326 1552 m 1,4,-1
 418 1552 l 1,5,-1
 418 1432 l 1,6,-1
 326 1432 l 1,7,-1
 326 1552 l 1,4,-1
EndSplineSet
LCarets: 0 65535 '    ' 1 0 
Ligature: 0 1 'liga' space uni0308
EndChar
StartChar: copyright
Encoding: 169 169 169
Width: 2048
Flags: W
Fore
1024 1434 m 0,0,1
 883 1434 883 1434 761 1384 c 0,2,3
 639 1333 639 1333 537 1231 c 0,4,5
 436 1130 436 1130 384 1007 c 0,6,7
 332 882 332 882 332 742 c 0,8,9
 332 603 332 603 384 480 c 0,10,11
 436 358 436 358 537 256 c 0,12,13
 639 155 639 155 761 104 c 0,14,15
 883 52 883 52 1024 52 c 0,16,17
 1167 52 1167 52 1290 104 c 0,18,19
 1412 155 1412 155 1514 256 c 0,20,21
 1614 356 1614 356 1664 479 c 0,22,23
 1714 601 1714 601 1714 742 c 0,24,25
 1714 886 1714 886 1664 1009 c 0,26,27
 1613 1131 1613 1131 1514 1231 c 0,28,29
 1412 1333 1412 1333 1290 1384 c 0,30,31
 1167 1434 1167 1434 1024 1434 c 0,0,1
1024 1485 m 128,-1,33
 1176 1485 1176 1485 1308 1430 c 0,34,35
 1439 1375 1439 1375 1548 1266 c 128,-1,36
 1657 1157 1657 1157 1711 1026 c 128,-1,37
 1765 895 1765 895 1765 741 c 0,38,39
 1765 589 1765 589 1711 458 c 0,40,41
 1657 328 1657 328 1548 219 c 128,-1,42
 1439 110 1439 110 1308 55 c 0,43,44
 1176 0 1176 0 1024 0 c 128,-1,45
 872 0 872 0 740 55 c 0,46,47
 609 110 609 110 500 219 c 128,-1,48
 391 328 391 328 337 458 c 0,49,50
 283 589 283 589 283 741 c 0,51,52
 283 895 283 895 337 1026 c 128,-1,53
 391 1157 391 1157 500 1266 c 128,-1,54
 609 1375 609 1375 740 1430 c 0,55,32
 872 1485 872 1485 1024 1485 c 128,-1,33
1323 1137 m 1,56,-1
 1323 1053 l 1,57,58
 1257 1092 1257 1092 1192 1110 c 0,59,60
 1127 1129 1127 1129 1058 1129 c 0,61,62
 870 1129 870 1129 767 1028 c 0,63,64
 664 926 664 926 664 744 c 0,65,66
 664 559 664 559 770 458 c 0,67,68
 877 357 877 357 1071 357 c 0,69,70
 1131 357 1131 357 1196 376 c 0,71,72
 1257 393 1257 393 1323 433 c 1,73,-1
 1323 346 l 1,74,75
 1256 317 1256 317 1188 303 c 0,76,77
 1119 289 1119 289 1049 289 c 0,78,79
 833 289 833 289 708 411 c 0,80,81
 582 533 582 533 582 741 c 0,82,83
 582 950 582 950 708 1071 c 0,84,85
 833 1192 833 1192 1049 1192 c 0,86,87
 1122 1192 1122 1192 1190 1178 c 128,-1,88
 1258 1164 1258 1164 1323 1137 c 1,56,-1
EndSplineSet
EndChar
StartChar: ordfeminine
Encoding: 170 170 170
Width: 965
Flags: W
Fore
139 592 m 1,0,-1
 827 592 l 1,1,-1
 827 510 l 1,2,-1
 139 510 l 1,3,-1
 139 592 l 1,0,-1
799.66 1165 m 2,4,-1
 799.66 717 l 1,5,-1
 707.612 717 l 1,6,-1
 707.612 922.815 l 1,7,8
 658.662 819.171 658.662 819.171 578.562 763.236 c 0,9,10
 489.321 700.917 489.321 700.917 395 707.3 c 0,11,12
 304.249 713.84 304.249 713.84 231 764 c 0,13,14
 141.53 825.325 141.53 825.325 141.53 946 c 0,15,16
 141.53 1092 141.53 1092 229.88 1161 c 0,17,18
 319.16 1230 319.16 1230 494 1230 c 2,19,-1
 702.472 1230 l 1,20,-1
 702.472 1234 l 2,21,22
 702.472 1331.91 702.472 1331.91 637.91 1384.88 c 0,23,24
 572.235 1438.77 572.235 1438.77 442 1438.77 c 0,25,26
 380 1438.77 380 1438.77 312 1418.42 c 128,-1,27
 244 1398.06 244 1398.06 176 1357.34 c 1,28,-1
 176 1451.26 l 1,29,30
 249 1485.63 249 1485.63 322 1502.82 c 0,31,32
 394 1520 394 1520 463 1520 c 0,33,34
 633.19 1520 633.19 1520 716.89 1432 c 0,35,36
 799.66 1344 799.66 1344 799.66 1165 c 2,4,-1
562.188 1152 m 2,37,38
 382.919 1152 382.919 1152 307.947 1110.03 c 0,39,40
 231.714 1067.36 231.714 1067.36 231.714 971.786 c 0,41,42
 231.714 879.414 231.714 879.414 265 847 c 0,43,44
 319 792 319 792 439.02 792 c 128,-1,45
 559.04 792 559.04 792 632.814 880.87 c 0,46,47
 706.332 969.742 706.332 969.742 706.332 1116.2 c 2,48,-1
 706.332 1152 l 1,49,-1
 562.188 1152 l 2,37,38
EndSplineSet
EndChar
StartChar: guillemotleft
Encoding: 171 171 171
Width: 1253
Flags: W
Fore
1096 1024 m 1,0,-1
 1096 901 l 1,1,-1
 757 600 l 1,2,-1
 1096 299 l 1,3,-1
 1096 177 l 1,4,-1
 627 595 l 1,5,-1
 627 606 l 1,6,-1
 1096 1024 l 1,0,-1
662 1024 m 1,7,-1
 662 901 l 1,8,-1
 323 600 l 1,9,-1
 662 299 l 1,10,-1
 662 177 l 1,11,-1
 193 595 l 1,12,-1
 193 606 l 1,13,-1
 662 1024 l 1,7,-1
EndSplineSet
EndChar
StartChar: logicalnot
Encoding: 172 172 172
Width: 1716
Flags: W
Fore
215 818 m 1,0,-1
 1466 818 l 1,1,-1
 1466 288 l 1,2,-1
 1367 288 l 1,3,-1
 1367 736 l 1,4,-1
 215 736 l 1,5,-1
 215 818 l 1,0,-1
EndSplineSet
EndChar
StartChar: sfthyphen
Encoding: 173 173 173
Width: 739
Flags: W
Fore
100 602 m 1,0,-1
 639 602 l 1,1,-1
 639 520 l 1,2,-1
 100 520 l 1,3,-1
 100 602 l 1,0,-1
EndSplineSet
EndChar
StartChar: registered
Encoding: 174 174 174
Width: 2048
Flags: W
Fore
1024 1434 m 0,0,1
 883 1434 883 1434 761 1384 c 0,2,3
 639 1333 639 1333 537 1231 c 0,4,5
 436 1130 436 1130 384 1007 c 0,6,7
 332 882 332 882 332 742 c 0,8,9
 332 603 332 603 384 480 c 0,10,11
 436 358 436 358 537 256 c 0,12,13
 639 155 639 155 761 104 c 0,14,15
 883 52 883 52 1024 52 c 0,16,17
 1167 52 1167 52 1290 104 c 0,18,19
 1412 155 1412 155 1514 256 c 0,20,21
 1614 356 1614 356 1664 479 c 0,22,23
 1714 601 1714 601 1714 742 c 0,24,25
 1714 886 1714 886 1664 1009 c 0,26,27
 1613 1131 1613 1131 1514 1231 c 0,28,29
 1412 1333 1412 1333 1290 1384 c 0,30,31
 1167 1434 1167 1434 1024 1434 c 0,0,1
1024 1485 m 128,-1,33
 1176 1485 1176 1485 1308 1430 c 0,34,35
 1439 1375 1439 1375 1548 1266 c 128,-1,36
 1657 1157 1657 1157 1711 1026 c 128,-1,37
 1765 895 1765 895 1765 741 c 0,38,39
 1765 589 1765 589 1711 458 c 0,40,41
 1657 328 1657 328 1548 219 c 128,-1,42
 1439 110 1439 110 1308 55 c 0,43,44
 1176 0 1176 0 1024 0 c 128,-1,45
 872 0 872 0 740 55 c 0,46,47
 609 110 609 110 500 219 c 128,-1,48
 391 328 391 328 337 458 c 0,49,50
 283 589 283 589 283 741 c 0,51,52
 283 895 283 895 337 1026 c 128,-1,53
 391 1157 391 1157 500 1266 c 128,-1,54
 609 1375 609 1375 740 1430 c 0,55,32
 872 1485 872 1485 1024 1485 c 128,-1,33
997 1108 m 2,56,-1
 848 1108 l 1,57,-1
 848 773 l 1,58,-1
 997 773 l 2,59,60
 1113 773 1113 773 1158 811 c 0,61,62
 1205 848 1205 848 1205 939 c 0,63,64
 1205 1031 1205 1031 1158 1070 c 0,65,66
 1112 1108 1112 1108 997 1108 c 2,56,-1
1004 1190 m 2,67,68
 1173 1190 1173 1190 1239 1128 c 0,69,70
 1305 1067 1305 1067 1305 942 c 0,71,72
 1305 853 1305 853 1266 795 c 0,73,74
 1225 737 1225 737 1153 719 c 1,75,76
 1173 713 1173 713 1210 672 c 0,77,78
 1248 630 1248 630 1290 561 c 2,79,-1
 1427 338 l 1,80,-1
 1327 338 l 1,81,-1
 1198 547 l 2,82,83
 1140 640 1140 640 1102 668 c 0,84,85
 1066 694 1066 694 1012 694 c 2,86,-1
 846 694 l 1,87,-1
 846 338 l 1,88,-1
 756 338 l 1,89,-1
 756 1190 l 1,90,-1
 1004 1190 l 2,67,68
EndSplineSet
EndChar
StartChar: macron
Encoding: 175 175 175
Width: 1024
Flags: W
Fore
213 1526 m 1,0,-1
 811 1526 l 1,1,-1
 811 1438 l 1,2,-1
 213 1438 l 1,3,-1
 213 1526 l 1,0,-1
EndSplineSet
LCarets: 0 65535 '    ' 1 0 
Ligature: 0 1 'liga' space uni0304
EndChar
StartChar: degree
Encoding: 176 176 176
Width: 1024
Flags: W
Fore
512 1395 m 0,0,1
 428 1395 428 1395 372 1340 c 0,2,3
 314 1282 314 1282 314 1199 c 0,4,5
 314 1115 314 1115 372 1059 c 0,6,7
 428 1002 428 1002 512 1002 c 0,8,9
 595 1002 595 1002 652 1059 c 0,10,11
 710 1116 710 1116 710 1199 c 0,12,13
 710 1281 710 1281 652 1338 c 0,14,15
 595 1395 595 1395 512 1395 c 0,0,1
511.646 1473.21 m 0,16,17
 572.36 1473.59 572.36 1473.59 624 1450.06 c 0,18,19
 667.988 1430.01 667.988 1430.01 705.394 1392.6 c 1,20,21
 738.98 1359.01 738.98 1359.01 758.694 1320 c 0,22,23
 786.711 1264.55 786.711 1264.55 786.711 1198.15 c 0,24,25
 787.418 1085.72 787.418 1085.72 706.101 1004.4 c 128,-1,26
 624.783 923.082 624.783 923.082 512.354 923.789 c 0,27,28
 399.217 923.789 399.217 923.789 317.899 1005.11 c 0,29,30
 238.005 1085 238.005 1085 237.289 1198.85 c 0,31,32
 236.582 1311.28 236.582 1311.28 317.899 1392.6 c 0,33,34
 397.794 1472.49 397.794 1472.49 511.646 1473.21 c 0,16,17
EndSplineSet
EndChar
StartChar: plusminus
Encoding: 177 177 177
Width: 1716
Flags: W
Fore
908 1284 m 1,0,-1
 908 849.5 l 1,1,-1
 1499 849.5 l 1,2,-1
 1499 767 l 1,3,-1
 908 767 l 1,4,-1
 908 340 l 1,5,-1
 807 340 l 1,6,-1
 807 767 l 1,7,-1
 217 767 l 1,8,-1
 217 849.5 l 1,9,-1
 807 849.5 l 1,10,-1
 807 1284 l 1,11,-1
 908 1284 l 1,0,-1
215 82 m 1,12,-1
 1500 82 l 1,13,-1
 1500 0 l 1,14,-1
 215 0 l 1,15,-1
 215 82 l 1,12,-1
EndSplineSet
EndChar
StartChar: twosuperior
Encoding: 178 178 178
Width: 821
Flags: W
Fore
209 816 m 1,0,-1
 692 816 l 1,1,-1
 692 733 l 1,2,-1
 94 733 l 1,3,-1
 94 831 l 1,4,5
 175 897 175 897 191 908 c 0,6,7
 567 1184 567 1184 567 1264 c 0,8,9
 567 1359 567 1359 511 1398 c 0,10,11
 455 1438 455 1438 346 1438 c 0,12,13
 294 1438 294 1438 233 1413 c 0,14,15
 172 1387 172 1387 100 1337 c 1,16,-1
 100 1429 l 1,17,18
 177 1475 177 1475 244 1497 c 0,19,20
 310 1520 310 1520 368 1520 c 0,21,22
 500 1520 500 1520 579 1454 c 128,-1,23
 658 1388 658 1388 658 1278 c 0,24,25
 658 1129 658 1129 309 886 c 0,26,27
 245 841 245 841 209 816 c 1,0,-1
EndSplineSet
EndChar
StartChar: threesuperior
Encoding: 179 179 179
Width: 821
Flags: W
Fore
548.269 1145.19 m 1,0,1
 614.499 1129.36 614.499 1129.36 654.567 1077.42 c 0,2,3
 696.253 1023.39 696.253 1023.39 696.253 948.473 c 0,4,5
 696.253 833.799 696.253 833.799 611.465 768.69 c 0,6,7
 531.912 707.602 531.912 707.602 350 707.602 c 0,8,9
 293 707.602 293 707.602 230 717.911 c 0,10,11
 168 727.281 168 727.281 98 746.021 c 1,12,-1
 98 843.064 l 1,13,14
 150 813.173 150 813.173 210 798.775 c 0,15,16
 269 784.385 269 784.385 336 784.385 c 0,17,18
 464.075 784.385 464.075 784.385 534.575 828.67 c 0,19,20
 605.075 871.853 605.075 871.853 605.075 949.357 c 0,21,22
 605.075 1023.49 605.075 1023.49 540.45 1061.55 c 0,23,24
 474.65 1099.62 474.65 1099.62 347.75 1099.62 c 2,25,-1
 260 1099.62 l 1,26,-1
 260 1177.48 l 1,27,-1
 354 1177.48 l 2,28,29
 465.86 1177.48 465.86 1177.48 522.98 1209.96 c 0,30,31
 581.29 1243.49 581.29 1243.49 581.29 1306.36 c 0,32,33
 581.29 1370.39 581.29 1370.39 521.79 1403.51 c 0,34,35
 462.29 1437.74 462.29 1437.74 349.24 1437.74 c 0,36,37
 310 1437.74 310 1437.74 259 1423.86 c 128,-1,38
 208 1410 208 1410 127 1374.56 c 1,39,-1
 127 1468.6 l 1,40,41
 200 1493.56 200 1493.56 264 1506.78 c 128,-1,42
 328 1520 328 1520 383 1520 c 0,43,44
 528.893 1520 528.893 1520 601 1466.16 c 0,45,46
 674.5 1410.62 674.5 1410.62 674.5 1317.44 c 0,47,48
 674.5 1255.44 674.5 1255.44 641.475 1207.32 c 0,49,50
 610.472 1162.14 610.472 1162.14 548.269 1145.19 c 1,0,1
EndSplineSet
EndChar
StartChar: acute
Encoding: 180 180 180
Width: 989
Flags: W
Fore
651 1638 m 1,0,-1
 779 1638 l 1,1,-1
 453 1262 l 1,2,-1
 371 1262 l 1,3,-1
 651 1638 l 1,0,-1
EndSplineSet
LCarets: 0 65535 '    ' 1 0 
Ligature: 0 1 'liga' space acutecomb
EndChar
StartChar: mu
Encoding: 181 181 181
Width: 1303
Flags: W
Fore
220 -426 m 1,0,-1
 220 1120 l 1,1,-1
 312 1120 l 1,2,-1
 312 424 l 2,3,4
 312 258 312 258 444 136 c 0,5,6
 528 58 528 58 682 58 c 0,7,8
 834 58 834 58 904 142 c 128,-1,9
 974 226 974 226 974 467 c 2,10,-1
 974 1120 l 1,11,-1
 1064 1120 l 1,12,-1
 1064 258 l 2,13,14
 1064 148 1064 148 1075 128 c 0,15,16
 1111 56 1111 56 1153 56 c 0,17,18
 1176 56 1176 56 1200 65 c 0,19,20
 1237 80 1237 80 1255 89 c 1,21,-1
 1265 16 l 1,22,23
 1234 -7 1234 -7 1208 -18 c 128,-1,24
 1182 -29 1182 -29 1143 -29 c 0,25,26
 1102 -29 1102 -29 1055 11 c 0,27,28
 1007 50 1007 50 986 110 c 1,29,30
 945 50 945 50 864 6 c 0,31,32
 801 -29 801 -29 696 -29 c 0,33,34
 581 -29 581 -29 484 22 c 0,35,36
 378 78 378 78 312 200 c 1,37,-1
 312 -426 l 1,38,-1
 220 -426 l 1,0,-1
EndSplineSet
EndChar
StartChar: paragraph
Encoding: 182 182 182
Width: 1303
Flags: W
Fore
633 1493 m 2,0,-1
 1056 1493 l 1,1,-1
 1056 -197 l 1,2,-1
 965 -197 l 1,3,-1
 965 1413 l 1,4,-1
 725 1413 l 1,5,-1
 725 -197 l 1,6,-1
 633 -197 l 1,7,-1
 633 687 l 1,8,9
 401 703 401 703 287 808 c 0,10,11
 173 914 173 914 173 1090 c 0,12,13
 173 1271 173 1271 299 1382 c 128,-1,14
 425 1493 425 1493 633 1493 c 2,0,-1
EndSplineSet
EndChar
StartChar: periodcentered
Encoding: 183 183 183
Width: 651
Flags: W
Fore
272 752 m 1,0,-1
 376 752 l 1,1,-1
 376 626 l 1,2,-1
 272 626 l 1,3,-1
 272 752 l 1,0,-1
EndSplineSet
EndChar
StartChar: cedilla
Encoding: 184 184 184
Width: 1024
Flags: W
Fore
578 0 m 1,0,1
 630 -61 630 -61 656 -112 c 0,2,3
 681 -163 681 -163 681 -210 c 0,4,5
 681 -297 681 -297 625 -342 c 0,6,7
 568 -386 568 -386 457 -386 c 0,8,9
 413 -386 413 -386 372 -380 c 128,-1,10
 331 -374 331 -374 290 -363 c 1,11,-1
 292 -270 l 1,12,13
 328 -289 328 -289 368 -298 c 0,14,15
 408 -306 408 -306 459 -306 c 0,16,17
 523 -306 523 -306 555 -279 c 0,18,19
 588 -252 588 -252 588 -200 c 0,20,21
 588 -166 588 -166 564 -118 c 0,22,23
 541 -69 541 -69 493 0 c 1,24,-1
 578 0 l 1,0,1
EndSplineSet
LCarets: 0 65535 '    ' 1 0 
Ligature: 0 1 'liga' space uni0327
EndChar
StartChar: onesuperior
Encoding: 185 185 185
Width: 821
Flags: W
Fore
156 814 m 1,0,-1
 378 814 l 1,1,-1
 377.996 1413 l 1,2,-1
 137 1348 l 1,3,-1
 137 1435 l 1,4,-1
 367 1493 l 1,5,-1
 470 1493 l 1,6,-1
 470 814 l 1,7,-1
 709 814 l 1,8,-1
 709 736 l 1,9,-1
 156 736 l 1,10,-1
 156 814 l 1,0,-1
EndSplineSet
EndChar
StartChar: ordmasculine
Encoding: 186 186 186
Width: 965
Flags: W
Fore
139 592 m 1,0,-1
 827 592 l 1,1,-1
 827 510 l 1,2,-1
 139 510 l 1,3,-1
 139 592 l 1,0,-1
483 1520 m 128,-1,5
 646.785 1520 646.785 1520 741.03 1411.33 c 0,6,7
 835.275 1301.67 835.275 1301.67 835.275 1112.98 c 128,-1,8
 835.275 924.293 835.275 924.293 741.03 816.61 c 0,9,10
 646.785 707.94 646.785 707.94 483 707.94 c 128,-1,11
 319.215 707.94 319.215 707.94 224.055 816.61 c 128,-1,12
 128.895 925.28 128.895 925.28 128.895 1112.98 c 0,13,14
 128.895 1301.67 128.895 1301.67 224.055 1411.33 c 0,15,4
 319.215 1520 319.215 1520 483 1520 c 128,-1,5
483 1440 m 0,16,17
 365.138 1440 365.138 1440 294.42 1350.09 c 0,18,19
 223.702 1261.29 223.702 1261.29 223.702 1110.33 c 0,20,21
 223.702 962.7 223.702 962.7 295.543 873.9 c 0,22,23
 366.26 785.1 366.26 785.1 483 785.1 c 0,24,25
 600.862 785.1 600.862 785.1 670.457 873.9 c 0,26,27
 741.175 962.7 741.175 962.7 741.175 1110.33 c 0,28,29
 741.175 1262.4 741.175 1262.4 671.58 1351.2 c 128,-1,30
 601.985 1440 601.985 1440 483 1440 c 0,16,17
EndSplineSet
EndChar
StartChar: guillemotright
Encoding: 187 187 187
Width: 1253
Flags: W
Fore
193 1024 m 1,0,-1
 662 606 l 1,1,-1
 662 595 l 1,2,-1
 193 177 l 1,3,-1
 193 299 l 1,4,-1
 532 600 l 1,5,-1
 193 901 l 1,6,-1
 193 1024 l 1,0,-1
627 1024 m 1,7,-1
 1096 606 l 1,8,-1
 1096 595 l 1,9,-1
 627 177 l 1,10,-1
 627 299 l 1,11,-1
 966 600 l 1,12,-1
 627 901 l 1,13,-1
 627 1024 l 1,7,-1
EndSplineSet
EndChar
StartChar: questiondown
Encoding: 191 191 191
Width: 1098
Flags: W
Fore
511 1090 m 1,0,-1
 612 1090 l 1,1,-1
 612 936 l 2,2,3
 612 848 612 848 578 770 c 0,4,5
 553 710 553 710 460 619 c 2,6,-1
 370 530 l 2,7,8
 310 470 310 470 288 430 c 0,9,10
 262 383 262 383 262 334 c 0,11,12
 262 208 262 208 328 130 c 128,-1,13
 394 52 394 52 507 52 c 0,14,15
 632 52 632 52 697 81 c 0,16,17
 802 127 802 127 878 214 c 1,18,-1
 899 105 l 1,19,20
 799 21 799 21 721 -2 c 0,21,22
 631 -29 631 -29 517 -29 c 0,23,24
 378 -29 378 -29 266 68 c 0,25,26
 155 165 155 165 155 324 c 0,27,28
 155 400 155 400 191 468 c 0,29,30
 225 533 225 533 317 623 c 2,31,-1
 405 709 l 2,32,33
 449 752 449 752 472 782 c 0,34,35
 491 809 491 809 499 834 c 0,36,37
 505 855 505 855 508 885 c 128,-1,38
 511 915 511 915 511 967 c 2,39,-1
 511 1090 l 1,0,-1
613 1365 m 1,40,-1
 511 1365 l 1,41,-1
 511 1491 l 1,42,-1
 613 1491 l 1,43,-1
 613 1365 l 1,40,-1
EndSplineSet
EndChar
StartChar: Aring
Encoding: 197 197 197
Width: 1401
Flags: W
Fore
847 1639 m 0,0,1
 847 1702 847 1702 803 1746 c 128,-1,2
 759 1790 759 1790 695 1790 c 0,3,4
 630 1790 630 1790 587 1747 c 0,5,6
 543 1703 543 1703 543 1639 c 0,7,8
 543 1574 543 1574 587 1531 c 0,9,10
 630 1487 630 1487 695 1487 c 0,11,12
 759 1487 759 1487 803 1531 c 128,-1,13
 847 1575 847 1575 847 1639 c 0,0,1
695 1392 m 1,14,-1
 375 552 l 1,15,-1
 1010 552 l 1,16,-1
 695 1392 l 1,14,-1
599 1410 m 1,17,18
 556 1428 556 1428 521 1464 c 0,19,20
 449 1536 449 1536 449 1639 c 0,21,22
 449 1742 449 1742 521 1813 c 0,23,24
 592 1885 592 1885 695 1885 c 0,25,26
 798 1885 798 1885 869 1813 c 0,27,28
 941 1742 941 1742 941 1639 c 0,29,30
 941 1536 941 1536 869 1464 c 0,31,32
 835 1429 835 1429 793 1411 c 1,33,-1
 1333 0 l 1,34,-1
 1219 0 l 1,35,-1
 1041 469 l 1,36,-1
 344 469 l 1,37,-1
 167 0 l 1,38,-1
 61 0 l 1,39,-1
 599 1410 l 1,17,18
EndSplineSet
EndChar
StartChar: AE
Encoding: 198 198 198
Width: 1995
Flags: W
Fore
1845 1493 m 1,0,-1
 1845 1411 l 1,1,-1
 1110 1411 l 1,2,-1
 1110 837 l 1,3,-1
 1815 837 l 1,4,-1
 1815 756 l 1,5,-1
 1110 756 l 1,6,-1
 1110 81 l 1,7,-1
 1864 81 l 1,8,-1
 1864 0 l 1,9,-1
 1009 0 l 1,10,-1
 1009 469 l 1,11,-1
 360 469 l 1,12,-1
 164 0 l 1,13,-1
 56 0 l 1,14,-1
 681 1493 l 1,15,-1
 1845 1493 l 1,0,-1
755 1411 m 1,16,-1
 394 551 l 1,17,-1
 1008 551 l 1,18,-1
 1008 1411 l 1,19,-1
 755 1411 l 1,16,-1
EndSplineSet
EndChar
StartChar: Eth
Encoding: 208 208 208
Width: 1587
Flags: W
Fore
249 1493 m 1,0,-1
 616 1493 l 2,1,2
 1023.47 1493 1023.47 1493 1215 1312 c 0,3,4
 1406 1131.5 1406 1131.5 1406 748 c 0,5,6
 1406 362 1406 362 1214 181 c 128,-1,7
 1022 0 1022 0 616 0 c 2,8,-1
 249 0 l 1,9,-1
 249 708 l 1,10,-1
 10 708 l 1,11,-1
 10 788 l 1,12,-1
 249 788 l 1,13,-1
 249 1493 l 1,0,-1
351 1408 m 1,14,-1
 351 788 l 1,15,-1
 750 788 l 1,16,-1
 750 708 l 1,17,-1
 351 708 l 1,18,-1
 351 81 l 1,19,-1
 647 81 l 2,20,21
 984.501 81 984.501 81 1142 241 c 0,22,23
 1300 401.509 1300 401.509 1300 746 c 0,24,25
 1300 1088.99 1300 1088.99 1142 1249 c 0,26,27
 984.994 1408 984.994 1408 647 1408 c 2,28,-1
 351 1408 l 1,14,-1
EndSplineSet
EndChar
StartChar: multiply
Encoding: 215 215 215
Width: 1716
Flags: W
Fore
1387 1100 m 1,0,-1
 930 641 l 1,1,-1
 1387 184 l 1,2,-1
 1317 111 l 1,3,-1
 858 570 l 1,4,-1
 399 111 l 1,5,-1
 329 184 l 1,6,-1
 785 641 l 1,7,-1
 329 1100 l 1,8,-1
 399 1173 l 1,9,-1
 858 714 l 1,10,-1
 1317 1173 l 1,11,-1
 1387 1100 l 1,0,-1
EndSplineSet
EndChar
StartChar: Oslash
Encoding: 216 216 216
Width: 1612
Flags: W
AnchorPoint: "above" 807 1520 basechar 0
Fore
1242.47 1183.95 m 1,0,-1
 429.78 221.114 l 1,1,2
 496.046 141.741 496.046 141.741 582 99.1862 c 0,3,4
 681.348 50 681.348 50 807 50 c 0,5,6
 1052 50 1052 50 1196 237 c 0,7,8
 1339 424 1339 424 1339 745 c 0,9,10
 1339 890.25 1339 890.25 1310.08 1008 c 0,11,12
 1286.16 1105.38 1286.16 1105.38 1242.47 1183.95 c 1,0,-1
1188.39 1264.66 m 1,13,14
 1116.38 1354.09 1116.38 1354.09 1020 1398.42 c 0,15,16
 925.269 1442 925.269 1442 807 1442 c 0,17,18
 562 1442 562 1442 417 1255 c 0,19,20
 273 1068 273 1068 273 745 c 0,21,22
 273 609.575 273 609.575 298.63 498 c 0,23,24
 324.052 387.329 324.052 387.329 374.691 300.124 c 1,25,-1
 1188.39 1264.66 l 1,13,14
309.257 222.56 m 1,26,27
 240.959 319.712 240.959 319.712 205.451 444 c 0,28,29
 167 578.589 167 578.589 167 745 c 0,30,31
 167 1099 167 1099 341 1310 c 0,32,33
 516 1520 516 1520 807 1520 c 0,34,35
 940.857 1520 940.857 1520 1050 1475.26 c 0,36,37
 1162.3 1429.23 1162.3 1429.23 1248.43 1335.83 c 1,38,-1
 1424.33 1544.33 l 1,39,-1
 1494.33 1482.33 l 1,40,-1
 1307.65 1261.16 l 1,41,42
 1371.31 1167.7 1371.31 1167.7 1405.46 1050 c 0,43,44
 1445 913.747 1445 913.747 1445 745 c 0,45,46
 1445 392.499 1445 392.499 1271 182 c 0,47,48
 1096.59 -29 1096.59 -29 807 -29 c 0,49,50
 658.369 -29 658.369 -29 540 25.7838 c 0,51,52
 444.808 69.8407 444.808 69.8407 369.187 149.328 c 1,53,-1
 192.5 -60 l 1,54,-1
 121.5 0 l 1,55,-1
 309.257 222.56 l 1,26,27
EndSplineSet
EndChar
StartChar: Thorn
Encoding: 222 222 222
Width: 1239
Flags: W
Fore
249 1493 m 1,0,-1
 352.5 1493 l 1,1,-1
 352.5 1201.95 l 1,2,-1
 657 1201.95 l 2,3,4
 879.72 1201.95 879.72 1201.95 996.205 1094.6 c 0,5,6
 1111.66 988.2 1111.66 988.2 1111.66 779.2 c 128,-1,7
 1111.66 570.2 1111.66 570.2 996.205 462.851 c 0,8,9
 881.645 355.5 881.645 355.5 657 355.5 c 2,10,-1
 352.5 355.5 l 1,11,-1
 352.5 0 l 1,12,-1
 249 0 l 1,13,-1
 249 1493 l 1,0,-1
352.5 1121.78 m 1,14,-1
 352.5 437 l 1,15,-1
 657 437 l 2,16,17
 824.085 437 824.085 437 915.33 526.425 c 128,-1,18
 1006.58 615.85 1006.58 615.85 1006.58 780 c 128,-1,19
 1006.58 944.15 1006.58 944.15 916.515 1032.35 c 0,20,21
 825.27 1121.78 825.27 1121.78 657 1121.78 c 2,22,-1
 352.5 1121.78 l 1,14,-1
EndSplineSet
EndChar
StartChar: germandbls
Encoding: 223 223 223
Width: 1385
Flags: W
Fore
272.83 1137 m 2,0,1
 272.83 1337 272.83 1337 370.03 1446 c 0,2,3
 466.42 1556 466.42 1556 643 1556 c 0,4,5
 810.439 1556 810.439 1556 898.185 1440 c 0,6,7
 986.85 1324 986.85 1324 989.149 1126 c 1,8,9
 903.569 1105.38 903.569 1105.38 801.081 1049.82 c 0,10,11
 696.564 993.154 696.564 993.154 696.564 873.209 c 0,12,13
 696.564 818.957 696.564 818.957 732.647 772.784 c 0,14,15
 768.415 725.871 768.415 725.871 849.607 676.978 c 2,16,-1
 920.529 634.269 l 10,17,18
 985.762 605.689 985.762 605.689 1079 535.1 c 0,19,20
 1173 461 1173 461 1179 309 c 0,21,22
 1185.06 152.374 1185.06 152.374 1085 60 c 0,23,24
 988.593 -29 988.593 -29 763 -29 c 0,25,26
 669.838 -29 669.838 -29 626.7 -12 c 0,27,28
 570.875 10 570.875 10 509.25 41 c 1,29,-1
 509.25 135.065 l 1,30,31
 597.7 78.8896 597.7 78.8896 623.8 70.8652 c 0,32,33
 695.575 50 695.575 50 765.9 50 c 0,34,35
 929 50 929 50 1006 117 c 0,36,37
 1087.64 188.174 1087.64 188.174 1084 295 c 0,38,39
 1081.04 381.947 1081.04 381.947 1039 444 c 0,40,41
 1011.33 485.186 1011.33 485.186 851.655 580.12 c 2,42,-1
 767.475 630.17 l 2,43,44
 681.189 681.471 681.189 681.471 639.375 745.74 c 0,45,46
 600.03 806.71 600.03 806.71 600.03 889.52 c 0,47,48
 600.03 1010.39 600.03 1010.39 693 1085 c 0,49,50
 774 1150 774 1150 895 1179 c 1,51,52
 871.261 1355.45 871.261 1355.45 818 1413.34 c 0,53,54
 752 1486.7 752 1486.7 639 1486.7 c 0,55,56
 511.49 1486.7 511.49 1486.7 441 1396.31 c 0,57,58
 366 1300.14 366 1300.14 366 1133 c 2,59,-1
 366 0 l 1,60,-1
 272.83 0 l 1,61,-1
 272.83 1137 l 2,0,1
EndSplineSet
EndChar
StartChar: ae
Encoding: 230 230 230
Width: 2011
Flags: W
Fore
1779 626 m 1,0,1
 1779 862 1779 862 1673 970 c 0,2,3
 1584 1066 1584 1066 1431 1066 c 0,4,5
 1264 1066 1264 1066 1151 966 c 0,6,7
 1047 874 1047 874 1026 626 c 1,8,-1
 1779 626 l 1,0,1
991 889 m 1,9,10
 1019 949 1019 949 1059 994 c 0,11,12
 1193 1148 1193 1148 1429 1148 c 0,13,14
 1649 1148 1649 1148 1761 1002 c 0,15,16
 1872 850 1872 850 1872 606 c 2,17,-1
 1872 548 l 1,18,-1
 1022 548 l 1,19,20
 1022 279 1022 279 1127 170 c 0,21,22
 1243 50 1243 50 1472 50 c 0,23,24
 1532 50 1532 50 1631 76 c 0,25,26
 1731 103 1731 103 1829 154 c 1,27,-1
 1829 58 l 1,28,29
 1730 16 1730 16 1626 -6 c 128,-1,30
 1522 -28 1522 -28 1461 -28 c 0,31,32
 1203 -28 1203 -28 1071 112 c 0,33,34
 996 191 996 191 960 309 c 1,35,36
 879.697 82.1282 879.697 82.1282 741 20 c 0,37,38
 632 -29 632 -29 526 -29 c 0,39,40
 359 -29 359 -29 263 60 c 0,41,42
 167 150 167 150 167 324 c 128,-1,43
 167 498 167 498 292 602 c 0,44,45
 418 707 418 707 701 707 c 2,46,-1
 929 707 l 1,47,-1
 929 725 l 2,48,49
 929 873 929 873 844 970 c 0,50,51
 760 1066 760 1066 566 1066 c 0,52,53
 470 1066 470 1066 370 1030 c 0,54,55
 306 1007 306 1007 204 937 c 1,56,-1
 204 1036 l 1,57,58
 293 1091 293 1091 370 1114 c 0,59,60
 482 1147 482 1147 585 1147 c 0,61,62
 782 1147 782 1147 911 1027 c 0,63,64
 963 978 963 978 991 889 c 1,9,10
679 632 m 2,65,66
 457 632 457 632 359 553 c 128,-1,67
 261 474 261 474 261 322 c 0,68,69
 261 174 261 174 342 112 c 128,-1,70
 423 50 423 50 534 50 c 0,71,72
 744 50 744 50 836 228 c 0,73,74
 929 407 929 407 929 563 c 2,75,-1
 929 632 l 1,76,-1
 679 632 l 2,65,66
EndSplineSet
EndChar
StartChar: eth
Encoding: 240 240 240
Width: 1253
Flags: W
AnchorPoint: "above" 637 1520 basechar 0
AnchorPoint: "below" 637 0 basechar 0
Fore
821 984.93 m 1,0,1
 758.371 1005.08 758.371 1005.08 703.257 1014.55 c 128,-1,2
 648.144 1024.04 648.144 1024.04 636.04 1024.04 c 0,3,4
 455.68 1024.04 455.68 1024.04 356.32 896.055 c 0,5,6
 255.88 768.075 255.88 768.075 255.88 537 c 0,7,8
 255.88 314.22 255.88 314.22 349.84 182.685 c 128,-1,9
 443.8 51.1504 443.8 51.1504 595.958 51.1504 c 0,10,11
 777.582 51.1504 777.582 51.1504 886.557 182.685 c 128,-1,12
 995.531 314.22 995.531 314.22 995.531 537 c 0,13,14
 995.531 723.571 995.531 723.571 960 796 c 0,15,16
 908 902 908 902 821 984.93 c 1,0,1
821.509 1124 m 2,17,18
 981.117 948.864 981.117 948.864 1024 856 c 0,19,20
 1087.03 719.506 1087.03 719.506 1087.03 537 c 0,21,22
 1087.03 282 1087.03 282 959.94 126 c 0,23,24
 832.85 -29 832.85 -29 627 -29 c 0,25,26
 415.146 -29 415.146 -29 288.71 126 c 0,27,28
 161.457 282 161.457 282 161.457 537 c 0,29,30
 161.457 787 161.457 787 286.003 942 c 0,31,32
 410.548 1098 410.548 1098 610 1098 c 0,33,34
 628 1098 628 1098 654 1096 c 0,35,36
 680 1093 680 1093 722 1088 c 1,37,-1
 564 1281 l 1,38,-1
 241 1172 l 1,39,-1
 214 1247 l 1,40,-1
 504 1345 l 1,41,-1
 319 1556 l 1,42,-1
 436 1556 l 1,43,-1
 593.5 1376 l 1,44,-1
 1001.5 1512.5 l 1,45,-1
 1028 1436 l 1,46,-1
 652 1310 l 1,47,-1
 821.509 1124 l 2,17,18
EndSplineSet
EndChar
StartChar: divide
Encoding: 247 247 247
Width: 1716
Flags: W
Fore
804 1134 m 1,0,-1
 906 1134 l 1,1,-1
 906 1007 l 1,2,-1
 804 1007 l 1,3,-1
 804 1134 l 1,0,-1
804 278 m 1,4,-1
 906 278 l 1,5,-1
 906 150 l 1,6,-1
 804 150 l 1,7,-1
 804 278 l 1,4,-1
215 685 m 1,8,-1
 1500 685 l 1,9,-1
 1500 603 l 1,10,-1
 215 603 l 1,11,-1
 215 685 l 1,8,-1
EndSplineSet
EndChar
StartChar: oslash
Encoding: 248 248 248
Width: 1253
Flags: W
Fore
934.989 866.987 m 1,0,-1
 365.845 175.258 l 1,1,2
 413.207 114.739 413.207 114.739 476 83.4598 c 0,3,4
 543.171 50 543.171 50 628 50 c 0,5,6
 798.862 50 798.862 50 898 187 c 0,7,8
 998 325.192 998 325.192 998 561 c 0,9,10
 998 661.112 998 661.112 978.768 744 c 0,11,12
 963.189 811.145 963.189 811.145 934.989 866.987 c 1,0,-1
882.561 948.066 m 1,13,14
 833.168 1008.17 833.168 1008.17 768 1037.64 c 0,15,16
 705.301 1066 705.301 1066 628 1066 c 0,17,18
 457.865 1066 457.865 1066 358 929 c 128,-1,19
 258 791.815 258 791.815 258 561 c 0,20,21
 258 483.064 258 483.064 268.663 416 c 0,22,23
 282.684 327.818 282.684 327.818 315.141 258.432 c 1,24,-1
 882.561 948.066 l 1,13,14
249.573 178.742 m 1,25,26
 203.21 257.791 203.21 257.791 181.393 360 c 0,27,28
 162 450.851 162 450.851 162 560 c 0,29,30
 162 829 162 829 287 988 c 128,-1,31
 412 1147 412 1147 627 1147 c 0,32,33
 724.906 1147 724.906 1147 804 1113.48 c 0,34,35
 880.535 1081.04 880.535 1081.04 939.454 1017.21 c 1,36,-1
 1094.48 1205.63 l 1,37,-1
 1165.52 1147.17 l 1,38,-1
 996.426 941.657 l 1,39,40
 1040.85 869.663 1040.85 869.663 1064.19 780 c 0,41,42
 1090 680.811 1090 680.811 1090 560 c 0,43,44
 1090 286.14 1090 286.14 965 126 c 128,-1,45
 840.109 -34 840.109 -34 627 -34 c 0,46,47
 527.928 -34 527.928 -34 448 -0.550403 c 0,48,49
 366.855 33.4087 366.855 33.4087 305.441 101.844 c 1,50,-1
 151.522 -85.2268 l 1,51,-1
 80.4782 -26.7732 l 1,52,-1
 249.573 178.742 l 1,25,26
EndSplineSet
EndChar
StartChar: thorn
Encoding: 254 254 254
Width: 1300
Flags: W
AnchorPoint: "above" 278 1520 basechar 0
Fore
324 254 m 1,0,-1
 324 -426 l 1,1,-1
 234 -426 l 1,2,-1
 234 1556 l 1,3,-1
 324 1556 l 1,4,-1
 324 864 l 1,5,6
 387 1010 387 1010 461 1064 c 0,7,8
 574 1147 574 1147 674 1147 c 0,9,10
 873 1147 873 1147 1005 985 c 128,-1,11
 1137 823 1137 823 1137 559 c 24,12,13
 1137 295 1137 295 1005 133 c 128,-1,14
 873 -29 873 -29 674 -29 c 0,15,16
 574 -29 574 -29 461 54 c 0,17,18
 387 108 387 108 324 254 c 1,0,-1
1040 559 m 24,19,20
 1040 832 1040 832 924 949 c 0,21,22
 809 1066 809 1066 681 1066 c 24,23,24
 556 1066 556 1066 440 949 c 0,25,26
 325 832 325 832 325 559 c 24,27,28
 325 286 325 286 440 169 c 0,29,30
 556 52 556 52 681 52 c 24,31,32
 809 52 809 52 924 169 c 0,33,34
 1040 286 1040 286 1040 559 c 24,19,20
EndSplineSet
EndChar
StartChar: dcroat
Encoding: 273 273 273
Width: 1300
Flags: W
Fore
975 864 m 1,0,-1
 975 1332 l 1,1,-1
 646.5 1332 l 1,2,-1
 646.5 1409 l 1,3,-1
 975 1409 l 1,4,-1
 975 1556 l 1,5,-1
 1065 1556 l 1,6,-1
 1065 1409 l 1,7,-1
 1221 1409 l 1,8,-1
 1221 1332 l 1,9,-1
 1065 1332 l 1,10,-1
 1065 0 l 1,11,-1
 975 0 l 1,12,-1
 975 254 l 1,13,14
 912.112 108.258 912.112 108.258 838 54 c 0,15,16
 724.63 -29 724.63 -29 625 -29 c 0,17,18
 426 -29 426 -29 294 133 c 128,-1,19
 162 295 162 295 162 559 c 0,20,21
 162 823 162 823 294 985 c 128,-1,22
 426 1147 426 1147 625 1147 c 0,23,24
 724.63 1147 724.63 1147 838 1064 c 0,25,26
 912.112 1009.74 912.112 1009.74 975 864 c 1,0,-1
259 559 m 0,27,28
 259 286.508 259 286.508 375 169 c 0,29,30
 490.499 52 490.499 52 618 52 c 0,31,32
 743 52 743 52 859 169 c 0,33,34
 974 286 974 286 974 559 c 0,35,36
 974 832 974 832 859 949 c 0,37,38
 743 1066 743 1066 618 1066 c 0,39,40
 490.499 1066 490.499 1066 375 949 c 0,41,42
 259 831.492 259 831.492 259 559 c 0,27,28
EndSplineSet
EndChar
StartChar: Hbar
Encoding: 294 294 294
Width: 1876
Flags: W
Fore
416 1493.59 m 1,0,-1
 516 1493.59 l 1,1,-1
 516 1188.59 l 1,2,-1
 1352 1188.59 l 1,3,-1
 1352 1493.59 l 1,4,-1
 1452 1493.59 l 1,5,-1
 1452 1188.59 l 1,6,-1
 1620 1188.59 l 1,7,-1
 1620 1105.59 l 1,8,-1
 1452 1105.59 l 1,9,-1
 1452 0.589844 l 1,10,-1
 1352 0.589844 l 1,11,-1
 1352 756 l 1,12,-1
 516 756 l 1,13,-1
 516 0.589844 l 1,14,-1
 416 0.589844 l 1,15,-1
 416 1105.59 l 1,16,-1
 248 1105.59 l 1,17,-1
 248 1188.59 l 1,18,-1
 416 1188.59 l 1,19,-1
 416 1493.59 l 1,0,-1
516 1105.59 m 1,20,-1
 516 837 l 1,21,-1
 1352 837 l 1,22,-1
 1352 1105.59 l 1,23,-1
 516 1105.59 l 1,20,-1
EndSplineSet
EndChar
StartChar: hbar
Encoding: 295 295 295
Width: 1423
Flags: W
AnchorPoint: "above" 337 1520 basechar 0
AnchorPoint: "below" 720 0 basechar 0
Fore
1138 676 m 2,0,-1
 1138 0 l 1,1,-1
 1046 0 l 1,2,-1
 1046 670 l 2,3,4
 1046 886 1046 886 973 976 c 128,-1,5
 900 1066 900 1066 752 1066 c 0,6,7
 582 1066 582 1066 483 966 c 128,-1,8
 384 866 384 866 384 633 c 2,9,-1
 384 0 l 1,10,-1
 292 0 l 1,11,-1
 292 1332 l 1,12,-1
 144 1332 l 1,13,-1
 144 1409 l 1,14,-1
 292 1409 l 1,15,-1
 292 1556 l 1,16,-1
 384 1556 l 1,17,-1
 384 1409 l 1,18,-1
 761 1409 l 1,19,-1
 761 1332 l 1,20,-1
 384 1332 l 1,21,-1
 384 913 l 1,22,23
 415.793 998.443 415.793 998.443 498 1066 c 0,24,25
 596.565 1147 596.565 1147 774 1147 c 0,26,27
 940 1147 940 1147 1039 1028 c 0,28,29
 1138 908 1138 908 1138 676 c 2,0,-1
EndSplineSet
EndChar
StartChar: dotlessi
Encoding: 305 305 305
Width: 569
Flags: W
AnchorPoint: "above" 278 1148 basechar 0
Fore
230 1120 m 1,0,-1
 322 1120 l 1,1,-1
 322 0 l 1,2,-1
 230 0 l 1,3,-1
 230 1120 l 1,0,-1
EndSplineSet
EndChar
StartChar: kgreenlandic
Encoding: 312 312 312
Width: 1186
Flags: W
Fore
228 1120 m 1,0,-1
 332 1120 l 1,1,-1
 332 652 l 1,2,-1
 974 1120 l 1,3,-1
 1130 1120 l 1,4,-1
 410 598 l 1,5,-1
 1180 0 l 1,6,-1
 1028 0 l 1,7,-1
 332 545 l 1,8,-1
 332 0 l 1,9,-1
 228 0 l 1,10,-1
 228 1120 l 1,0,-1
EndSplineSet
EndChar
StartChar: Lslash
Encoding: 321 321 321
Width: 1151
Flags: W
Fore
250 1493 m 1,0,-1
 350 1493 l 1,1,-1
 350 810.2 l 1,2,-1
 739.051 1082.38 l 1,3,-1
 796.949 999.621 l 1,4,-1
 350 686.937 l 1,5,-1
 350 82 l 1,6,-1
 1077 82 l 1,7,-1
 1077 0 l 1,8,-1
 250 0 l 1,9,-1
 250 616.977 l 1,10,-1
 52.9487 479.121 l 1,11,-1
 -4.94865 561.879 l 1,12,-1
 250 740.24 l 1,13,-1
 250 1493 l 1,0,-1
EndSplineSet
EndChar
StartChar: lslash
Encoding: 322 322 322
Width: 582
Flags: W
Fore
245 1556 m 1,0,-1
 337 1556 l 1,1,-1
 337 901.983 l 1,2,-1
 517.718 1031.4 l 1,3,-1
 571.282 956.601 l 1,4,-1
 337 788.826 l 1,5,-1
 337 0 l 1,6,-1
 245 0 l 1,7,-1
 245 722.943 l 1,8,-1
 65.7824 594.601 l 1,9,-1
 12.2176 669.399 l 1,10,-1
 245 836.1 l 1,11,-1
 245 1556 l 1,0,-1
EndSplineSet
EndChar
StartChar: Eng
Encoding: 330 330 330
Width: 1550
Flags: W
Fore
269 1493 m 1,0,-1
 417 1493 l 1,1,-1
 1141 128 l 1,2,-1
 1141 1493 l 1,3,-1
 1241 1493 l 1,4,-1
 1241 104 l 2,5,6
 1241 -142 1241 -142 1175 -253 c 128,-1,7
 1109 -364 1109 -364 963 -364 c 2,8,-1
 729 -364 l 1,9,-1
 729 -281 l 1,10,-1
 951 -281 l 2,11,12
 1055 -281 1055 -281 1098 -197 c 0,13,14
 1121.88 -150.342 1121.88 -150.342 1132.5 -62.6484 c 1,15,-1
 371 1374 l 1,16,-1
 371 0 l 1,17,-1
 269 0 l 1,18,-1
 269 1493 l 1,0,-1
EndSplineSet
EndChar
StartChar: eng
Encoding: 331 331 331
Width: 1298
Flags: W
AnchorPoint: "above" 649 1147 basechar 0
AnchorPoint: "below" 649 -430 basechar 0
Fore
1078 676 m 2,0,-1
 1078 0 l 2,1,2
 1078 -228 1078 -228 1009 -317 c 0,3,4
 939 -406 939 -406 780 -406 c 2,5,-1
 710 -406 l 1,6,-1
 710 -328 l 1,7,-1
 759 -328 l 2,8,9
 871 -328 871 -328 929 -278 c 0,10,11
 986 -228 986 -228 986 0 c 2,12,-1
 986 670 l 2,13,14
 986 888 986 888 916 977 c 128,-1,15
 846 1066 846 1066 710 1066 c 0,16,17
 551 1066 551 1066 438 970 c 0,18,19
 324 873 324 873 324 633 c 2,20,-1
 324 0 l 1,21,-1
 232 0 l 1,22,-1
 232 1120 l 1,23,-1
 324 1120 l 1,24,-1
 324 910 l 1,25,26
 372.674 1011.32 372.674 1011.32 453 1066 c 0,27,28
 571.994 1147 571.994 1147 714 1147 c 0,29,30
 879.559 1147 879.559 1147 979 1034 c 0,31,32
 1078 921.501 1078 921.501 1078 676 c 2,0,-1
EndSplineSet
EndChar
StartChar: OE
Encoding: 338 338 338
Width: 2191
Flags: W
Fore
1982 1493 m 1,0,-1
 1982 1410 l 1,1,-1
 1240 1410 l 1,2,-1
 1240 837 l 1,3,-1
 1951 837 l 1,4,-1
 1951 756 l 1,5,-1
 1240 756 l 1,6,-1
 1240 81 l 1,7,-1
 2000 81 l 1,8,-1
 2000 0 l 1,9,-1
 1138 0 l 2,10,11
 695.581 0 695.581 0 430.91 201.713 c 0,12,13
 167 404.002 167 404.002 167 745 c 0,14,15
 167 1088.12 167 1088.12 430.91 1289.25 c 0,16,17
 700.187 1493 700.187 1493 1138 1493 c 2,18,-1
 1982 1493 l 1,0,-1
1138 1412.04 m 1,19,-1
 1126 1412 l 2,20,21
 737.865 1409.07 737.865 1409.07 506.578 1233.08 c 0,22,23
 273 1055.35 273 1055.35 273 745 c 0,24,25
 273 438.832 273 438.832 506.578 258.84 c 0,26,27
 734.739 83.0224 734.739 83.0224 1122 80 c 2,28,29
 1128.48 80.0734 1128.48 80.0734 1138 80 c 1,30,-1
 1138 1412.04 l 1,19,-1
EndSplineSet
EndChar
StartChar: oe
Encoding: 339 339 339
Width: 2095
Flags: W
AnchorPoint: "above" 1044 1147 basechar 0
Fore
1848 626.5 m 1,0,1
 1848 859.607 1848 859.607 1742 970.5 c 0,2,3
 1650.24 1066.5 1650.24 1066.5 1500 1066.5 c 0,4,5
 1333 1066.5 1333 1066.5 1220 966.5 c 0,6,7
 1116 873.5 1116 873.5 1095 626.5 c 1,8,-1
 1848 626.5 l 1,0,1
1941 606.5 m 2,9,-1
 1941 548.5 l 1,10,-1
 1091 548.5 l 1,11,12
 1091 278.81 1091 278.81 1196 170.5 c 0,13,14
 1312.33 50.5 1312.33 50.5 1541 50.5 c 0,15,16
 1600.5 50.5 1600.5 50.5 1700 76.5 c 0,17,18
 1800.49 102.759 1800.49 102.759 1898 154.5 c 1,19,-1
 1898 57.5 l 1,20,21
 1799 15.5 1799 15.5 1695 -6.5 c 128,-1,22
 1591 -28.5 1591 -28.5 1530 -28.5 c 0,23,24
 1273.42 -28.5 1273.42 -28.5 1140 111.5 c 0,25,26
 1078.17 176.379 1078.17 176.379 1043.26 267.612 c 1,27,28
 1013.56 188.213 1013.56 188.213 965 126 c 0,29,30
 840.109 -34 840.109 -34 627 -34 c 0,31,32
 411 -34 411 -34 286 125 c 0,33,34
 162 284 162 284 162 560 c 0,35,36
 162 829 162 829 287 988 c 128,-1,37
 412 1147 412 1147 627 1147 c 0,38,39
 840.888 1147 840.888 1147 965 987 c 0,40,41
 1013.38 924.631 1013.38 924.631 1043.03 846.576 c 1,42,43
 1074.51 932.971 1074.51 932.971 1128 994.5 c 0,44,45
 1261 1147.5 1261 1147.5 1498 1147.5 c 0,46,47
 1721.13 1147.5 1721.13 1147.5 1830 1002.5 c 0,48,49
 1941 854.666 1941 854.666 1941 606.5 c 2,9,-1
628 1066 m 0,50,51
 457.865 1066 457.865 1066 358 929 c 128,-1,52
 258 791.815 258 791.815 258 561 c 0,53,54
 258 323.499 258 323.499 357 187 c 0,55,56
 456.364 50 456.364 50 628 50 c 0,57,58
 798.862 50 798.862 50 898 187 c 0,59,60
 996.651 323.328 996.651 323.328 997.998 554.697 c 0,61,62
 998.02 558.443 998.02 558.443 998 561 c 0,63,64
 998 789.305 998 789.305 898 928 c 0,65,66
 798.501 1066 798.501 1066 628 1066 c 0,50,51
EndSplineSet
EndChar
StartChar: Tbar
Encoding: 358 358 358
Width: 1251
Flags: W
TeX: 0 0 0 0
Fore
45 1493 m 1,0,-1
 1206 1493 l 1,1,-1
 1206 1411 l 1,2,-1
 676 1411 l 1,3,-1
 676 739 l 1,4,-1
 995 739 l 1,5,-1
 995 659 l 1,6,-1
 676 659 l 1,7,-1
 676 0 l 1,8,-1
 575 0 l 1,9,-1
 575 659 l 1,10,-1
 255 659 l 1,11,-1
 255 739 l 1,12,-1
 575 739 l 1,13,-1
 575 1411 l 1,14,-1
 45 1411 l 1,15,-1
 45 1493 l 1,0,-1
EndSplineSet
EndChar
StartChar: tbar
Encoding: 359 359 359
Width: 803
Flags: W
TeX: 0 0 0 0
Fore
329 1438 m 1,0,-1
 329 1120 l 1,1,-1
 708 1120 l 1,2,-1
 708 1042 l 1,3,-1
 329 1042 l 1,4,-1
 329 704.5 l 1,5,-1
 555 704.5 l 1,6,-1
 555 626.5 l 1,7,-1
 329 626.5 l 1,8,-1
 329 369 l 2,9,10
 329 241 329 241 362 190 c 0,11,12
 430 78 430 78 560 78 c 2,13,-1
 708 78 l 1,14,-1
 708 0 l 1,15,-1
 565 0 l 2,16,17
 428 0 428 0 332 80 c 128,-1,18
 236 160 236 160 236 369 c 2,19,-1
 236 626.5 l 1,20,-1
 102 626.5 l 1,21,-1
 102 704.5 l 1,22,-1
 236 704.5 l 1,23,-1
 236 1042 l 1,24,-1
 102 1042 l 1,25,-1
 102 1120 l 1,26,-1
 236 1120 l 1,27,-1
 236 1438 l 1,28,-1
 329 1438 l 1,0,-1
EndSplineSet
EndChar
StartChar: longs
Encoding: 383 383 383
Width: 721
Flags: W
TeX: 0 0 0 0
Fore
362 0 m 1,0,-1
 269 0 l 1,1,-1
 269 1042 l 1,2,-1
 93 1042 l 1,3,-1
 93 1120 l 1,4,-1
 269 1120 l 1,5,-1
 269 1198 l 2,6,7
 269 1385 269 1385 354 1470 c 0,8,9
 438 1556 438 1556 586 1556 c 2,10,-1
 714 1556 l 1,11,-1
 714 1478 l 1,12,-1
 584 1478 l 2,13,14
 482 1478 482 1478 428 1425 c 0,15,16
 362 1360 362 1360 362 1219 c 2,17,-1
 362 0 l 1,0,-1
EndSplineSet
EndChar
StartChar: uni0180
Encoding: 384 384 384
Width: 1300
Flags: W
TeX: 117 0 0 0
AnchorPoint: "below" 695 0 basechar 0
AnchorPoint: "above" 278 1520 basechar 0
Fore
325 559 m 128,-1,0
 325 286 325 286 440 169 c 0,1,2
 556 52 556 52 681 52 c 0,3,4
 808.501 52 808.501 52 924 169 c 0,5,6
 1040 286.508 1040 286.508 1040 559 c 128,-1,7
 1040 831.492 1040 831.492 924 949 c 0,8,9
 808.501 1066 808.501 1066 681 1066 c 0,10,11
 556 1066 556 1066 440 949 c 0,12,13
 325 832 325 832 325 559 c 128,-1,0
324 864 m 1,13,14
 386.888 1009.74 386.888 1009.74 461 1064 c 0,15,16
 574.37 1147 574.37 1147 674 1147 c 0,17,18
 873 1147 873 1147 1005 985 c 128,-1,19
 1137 823 1137 823 1137 559 c 128,-1,20
 1137 295 1137 295 1005 133 c 128,-1,21
 873 -29 873 -29 674 -29 c 0,22,23
 574.37 -29 574.37 -29 461 54 c 0,24,25
 386.888 108.258 386.888 108.258 324 254 c 1,26,-1
 324 0 l 1,27,-1
 234 0 l 1,28,-1
 234 1332 l 1,29,-1
 144 1332 l 1,30,-1
 144 1409 l 1,31,-1
 234 1409 l 1,32,-1
 234 1556 l 1,33,-1
 324 1556 l 1,34,-1
 324 1409 l 1,35,-1
 761 1409 l 1,36,-1
 761 1332 l 1,37,-1
 324 1332 l 1,38,-1
 324 864 l 1,13,14
EndSplineSet
EndChar
StartChar: uni0181
Encoding: 385 385 385
Width: 1505
Flags: W
TeX: 117 0 0 0
AnchorPoint: "below" 700 0 basechar 0
AnchorPoint: "above" 700 1520 basechar 0
Fore
352 1411 m 1,0,-1
 352 826 l 1,1,-1
 702 826 l 2,2,3
 874 826 874 826 958 898 c 128,-1,4
 1042 970 1042 970 1042 1120 c 0,5,6
 1042 1267 1042 1267 958 1338 c 0,7,8
 874 1411 874 1411 702 1411 c 2,9,-1
 352 1411 l 1,0,-1
352 744 m 1,10,-1
 352 81 l 1,11,-1
 727 81 l 2,12,13
 916.434 81 916.434 81 1009 163 c 0,14,15
 1101 244.499 1101 244.499 1101 413 c 0,16,17
 1101 582.501 1101 582.501 1009 663 c 0,18,19
 916.427 744 916.427 744 727 744 c 2,20,-1
 352 744 l 1,10,-1
252 1493 m 2,21,-1
 717 1493 l 2,22,23
 922 1493 922 1493 1033 1397 c 128,-1,24
 1144 1301 1144 1301 1144 1124 c 0,25,26
 1144 978.19 1144 978.19 1087 906 c 0,27,28
 1023.78 825.927 1023.78 825.927 935 797 c 1,29,30
 1063.92 763.021 1063.92 763.021 1129 672 c 0,31,32
 1202 569.9 1202 569.9 1202 418 c 0,33,34
 1202 218 1202 218 1081 109 c 128,-1,35
 960 0 960 0 737 0 c 2,36,-1
 252 0 l 1,37,-1
 252 1410.47 l 1,38,39
 110 1410.47 110 1410.47 51 1348.04 c 0,40,41
 2 1297.56 2 1297.56 2 1146.14 c 2,42,-1
 2 1081.05 l 1,43,-1
 -97.1602 1081.05 l 1,44,-1
 -97.1602 1151.05 l 2,45,46
 -97.1602 1331.5 -97.1602 1331.5 -14.5996 1414.05 c 0,47,48
 66.4043 1495.04 66.4043 1495.04 252 1493 c 2,21,-1
EndSplineSet
EndChar
StartChar: uni0183
Encoding: 387 387 387
Width: 1300
Flags: W
TeX: 117 0 0 0
Fore
325 559 m 128,-1,1
 325 286 325 286 440 169 c 0,2,3
 556 52 556 52 681 52 c 0,4,5
 808.501 52 808.501 52 924 169 c 0,6,7
 1040 286.508 1040 286.508 1040 559 c 128,-1,8
 1040 831.492 1040 831.492 924 949 c 0,9,10
 808.501 1066 808.501 1066 681 1066 c 0,11,12
 556 1066 556 1066 440 949 c 0,13,0
 325 832 325 832 325 559 c 128,-1,1
234 1556 m 1,14,-1
 1092 1556 l 1,15,-1
 1092 1479 l 1,16,-1
 324 1479 l 1,17,-1
 324 864 l 1,18,19
 386.889 1009.74 386.889 1009.74 461 1064 c 0,20,21
 574.369 1147 574.369 1147 674 1147 c 0,22,23
 873 1147 873 1147 1005 985 c 128,-1,24
 1137 823 1137 823 1137 559 c 128,-1,25
 1137 295 1137 295 1005 133 c 128,-1,26
 873 -29 873 -29 674 -29 c 0,27,28
 574.369 -29 574.369 -29 461 54 c 0,29,30
 386.889 108.259 386.889 108.259 324 254 c 1,31,-1
 324 0 l 1,32,-1
 234 0 l 1,33,-1
 234 1556 l 1,14,-1
EndSplineSet
EndChar
StartChar: uni0186
Encoding: 390 390 390
Width: 1430
Flags: W
TeX: 117 0 0 0
AnchorPoint: "below" 645 0 basechar 0
AnchorPoint: "above" 645 1520 basechar 0
Fore
170 1369 m 1,0,1
 274 1445 274 1445 393 1482 c 0,2,3
 511 1520 511 1520 645 1520 c 0,4,5
 959 1520 959 1520 1139 1312 c 0,6,7
 1319 1105 1319 1105 1319 745 c 0,8,9
 1319 386 1319 386 1139 178 c 0,10,11
 959 -29 959 -29 645 -29 c 0,12,13
 513 -29 513 -29 395 7 c 0,14,15
 276 43 276 43 170 115 c 1,16,-1
 170 236 l 1,17,18
 272 143 272 143 387 96 c 0,19,20
 503 50 503 50 633 50 c 0,21,22
 915 50 915 50 1064 229 c 0,23,24
 1214 408 1214 408 1214 745 c 128,-1,25
 1214 1082 1214 1082 1064 1260 c 0,26,27
 915 1438 915 1438 633 1438 c 0,28,29
 503 1438 503 1438 387 1392 c 0,30,31
 272 1347 272 1347 170 1254 c 1,32,-1
 170 1369 l 1,0,1
EndSplineSet
EndChar
StartChar: uni0187
Encoding: 391 391 391
Width: 1430
Flags: W
TeX: 117 0 0 0
AnchorPoint: "above" 844 1520 basechar 0
Fore
1319 1369 m 1,0,-1
 1319 1254 l 1,1,2
 1217.58 1346.47 1217.58 1346.47 1102 1392 c 0,3,4
 985.227 1438 985.227 1438 856 1438 c 0,5,6
 574.499 1438 574.499 1438 425 1260 c 0,7,8
 275 1081.4 275 1081.4 275 745 c 128,-1,9
 275 408.6 275 408.6 425 229 c 0,10,11
 574.499 50 574.499 50 856 50 c 0,12,13
 986 50 986 50 1102 96 c 0,14,15
 1217 143 1217 143 1319 236 c 1,16,-1
 1319 115 l 1,17,18
 1213.41 43.2759 1213.41 43.2759 1094 7 c 0,19,20
 975.502 -29 975.502 -29 844 -29 c 0,21,22
 530 -29 530 -29 350 178 c 0,23,24
 170 386 170 386 170 745 c 0,25,26
 170 1104.5 170 1104.5 350 1312 c 0,27,28
 530.434 1520 530.434 1520 844 1520 c 0,29,30
 978 1520 978 1520 1096 1482 c 0,31,32
 1164.08 1460.83 1164.08 1460.83 1227.25 1426.9 c 1,33,34
 1231.15 1633.35 1231.15 1633.35 1296 1717 c 0,35,36
 1366 1806 1366 1806 1525 1806 c 2,37,-1
 1595 1806 l 1,38,-1
 1595 1728 l 1,39,-1
 1546 1728 l 2,40,41
 1434 1728 1434 1728 1376 1678 c 0,42,43
 1319 1628 1319 1628 1319 1400 c 2,44,-1
 1319 1369 l 1,0,-1
EndSplineSet
EndChar
StartChar: uni0188
Encoding: 392 392 392
Width: 1126
Flags: W
TeX: 117 0 0 0
Fore
140 559 m 128,-1,0
 140 880 140 880 285 1014 c 0,1,2
 430 1147 430 1147 676 1147 c 0,3,4
 756 1147 756 1147 846 1124 c 0,5,6
 878.55 1116.04 878.55 1116.04 907.569 1106.26 c 1,7,8
 913.265 1302.08 913.265 1302.08 976 1383 c 0,9,10
 1046 1472 1046 1472 1205 1472 c 2,11,-1
 1275 1472 l 1,12,-1
 1275 1394 l 1,13,-1
 1226 1394 l 2,14,15
 1114 1394 1114 1394 1056 1344 c 0,16,17
 999 1294 999 1294 999 1066 c 2,18,-1
 999 968 l 1,19,20
 916 1019 916 1019 862 1037 c 0,21,22
 769 1066 769 1066 684 1066 c 0,23,24
 442 1066 442 1066 337 942 c 128,-1,25
 232 818 232 818 232 559 c 0,26,27
 232 298 232 298 337 174 c 128,-1,28
 442 50 442 50 684 50 c 0,29,30
 764 50 764 50 842 72 c 0,31,32
 921 93 921 93 999 136 c 1,33,-1
 999 43 l 1,34,35
 922 7 922 7 840 -11 c 0,36,37
 757 -29 757 -29 676 -29 c 0,38,39
 430 -29 430 -29 285 104 c 0,40,41
 140 238 140 238 140 559 c 128,-1,0
EndSplineSet
EndChar
StartChar: uni018A
Encoding: 394 394 394
Width: 1687
Flags: W
TeX: 117 0 0 0
Fore
351 1408 m 1,0,-1
 351 81 l 1,1,-1
 647 81 l 2,2,3
 984.501 81 984.501 81 1142 241 c 0,4,5
 1300 401.509 1300 401.509 1300 746 c 0,6,7
 1300 1088.99 1300 1088.99 1142 1249 c 0,8,9
 984.994 1408 984.994 1408 647 1408 c 2,10,-1
 351 1408 l 1,0,-1
249 1493 m 2,11,-1
 616 1493 l 2,12,13
 1023.47 1493 1023.47 1493 1215 1312 c 0,14,15
 1406 1131.5 1406 1131.5 1406 748 c 0,16,17
 1406 362 1406 362 1214 181 c 128,-1,18
 1022 0 1022 0 616 0 c 2,19,-1
 249 0 l 1,20,-1
 249 1410.47 l 1,21,22
 107 1410.47 107 1410.47 48 1348.04 c 0,23,24
 -1 1297.56 -1 1297.56 -1 1146.14 c 2,25,-1
 -1 1081.05 l 1,26,-1
 -100.16 1081.05 l 1,27,-1
 -100.16 1151.05 l 2,28,29
 -100.16 1331.5 -100.16 1331.5 -17.5996 1414.05 c 0,30,31
 63.4044 1495.04 63.4044 1495.04 249 1493 c 2,11,-1
EndSplineSet
EndChar
StartChar: uni018B
Encoding: 395 395 395
Width: 1405
Flags: W
TeX: 117 0 0 0
Fore
717 825.55 m 2,0,1
 1102 826 l 1,13,-1
 1102 1411 l 1,12,-1
 458 1411 l 25,11,-1
 458 1493 l 9,10,-1
 1202 1493 l 1,9,-1
 1202 0 l 1,8,-1
 717 0 l 2,7,-1
 494 0 494 0 373 109 c 128,-1,6
 252 218 252 218 252 418 c 24,4,5
 252 613 252 613 373 719.275 c 0,2,3
 493.703 825.289 493.703 825.289 717 825.55 c 2,0,1
1102 744 m 1,14,-1
 727 744 l 2,24,-1
 537 744 537 744 445 663 c 0,22,23
 353 583 353 583 353 413 c 0,20,21
 353 244 353 244 445 163 c 0,18,19
 537 81 537 81 727 81 c 2,16,17
 1102 81 l 1,15,-1
 1102 744 l 1,14,-1
EndSplineSet
EndChar
StartChar: uni018C
Encoding: 396 396 396
Width: 1300
Flags: W
TeX: 117 0 0 0
Fore
1046 559 m 128,-1,0
 1046 832 1046 832 931 949 c 0,1,2
 815 1066 815 1066 690 1066 c 0,3,4
 562.499 1066 562.499 1066 447 949 c 0,5,6
 331 831.492 331 831.492 331 559 c 128,-1,7
 331 286.508 331 286.508 447 169 c 0,8,9
 562.499 52 562.499 52 690 52 c 0,10,11
 815 52 815 52 931 169 c 0,12,13
 1046 286 1046 286 1046 559 c 128,-1,0
1137 1556 m 1,13,-1
 1137 0 l 1,14,-1
 1047 0 l 1,15,-1
 1047 254 l 1,16,17
 984.112 108.258 984.112 108.258 910 54 c 0,18,19
 796.63 -29 796.63 -29 697 -29 c 0,20,21
 498 -29 498 -29 366 133 c 128,-1,22
 234 295 234 295 234 559 c 128,-1,23
 234 823 234 823 366 985 c 128,-1,24
 498 1147 498 1147 697 1147 c 0,25,26
 796.63 1147 796.63 1147 910 1064 c 0,27,28
 984.112 1009.74 984.112 1009.74 1047 864 c 1,29,-1
 1047 1479 l 1,30,-1
 279 1479 l 1,31,-1
 279 1556 l 1,32,-1
 1137 1556 l 1,13,-1
EndSplineSet
EndChar
StartChar: uni018D
Encoding: 397 397 397
Width: 1253
Flags: W
TeX: 117 0 0 0
Fore
244.86 -234.55 m 1,0,1
 377.86 -347.08 377.86 -347.08 585.86 -347.08 c 0,2,3
 885.665 -347.08 885.665 -347.08 885.665 -159 c 0,4,5
 885.665 -58.0195 885.665 -58.0195 578.116 6.2002 c 0,6,7
 378.125 47.96 378.125 47.96 276.86 177 c 0,8,9
 156.69 330.126 156.69 330.126 156.69 542 c 0,10,11
 156.69 807 156.69 807 280.675 963 c 0,12,13
 404.66 1120 404.66 1120 621.86 1120 c 0,14,15
 840.545 1120 840.545 1120 966.815 963 c 0,16,17
 1092.17 807 1092.17 807 1092.17 532 c 0,18,19
 1092.17 311.785 1092.17 311.785 977.86 162 c 0,20,21
 919.86 86 919.86 86 808.86 38 c 1,22,23
 990.478 -41 990.478 -41 990.478 -157 c 0,24,25
 990.478 -429 990.478 -429 585.86 -429 c 0,26,27
 364.86 -429 364.86 -429 244.86 -340.1 c 1,28,-1
 244.86 -234.55 l 1,0,1
713.535 72.0303 m 1,29,30
 814.958 99.7988 814.958 99.7988 887.45 194.63 c 0,31,32
 985.061 322.32 985.061 322.32 985.061 552.84 c 0,33,34
 985.061 782.23 985.061 782.23 888.585 911.05 c 0,35,36
 790.975 1041 790.975 1041 621.86 1041 c 0,37,38
 455.016 1041 455.016 1041 357.405 909.92 c 128,-1,39
 259.795 778.84 259.795 778.84 259.795 564.14 c 0,40,41
 259.795 319.941 259.795 319.941 366.86 213 c 0,42,43
 464.975 118.693 464.975 118.693 600.86 93 c 0,43,44
 699.041 74.4404 699.041 74.4404 713.535 72.0303 c 1,29,30
EndSplineSet
EndChar
StartChar: uni018E
Encoding: 398 398 398
Width: 1294
Flags: W
TeX: 117 0 0 0
AnchorPoint: "below" 690 0 basechar 0
AnchorPoint: "above" 690 1520 basechar 0
Fore
1111 1493 m 1,0,-1
 1111 0 l 1,1,-1
 249 0 l 1,2,-1
 249 81 l 1,3,-1
 1009 81 l 1,4,-1
 1009 756 l 1,5,-1
 298 756 l 1,6,-1
 298 837 l 1,7,-1
 1009 837 l 1,8,-1
 1009 1410 l 1,9,-1
 267 1410 l 1,10,-1
 267 1493 l 1,11,-1
 1111 1493 l 1,0,-1
EndSplineSet
EndChar
StartChar: uni018F
Encoding: 399 399 399
Width: 1612
Flags: W
TeX: 117 0 0 0
Fore
278.5 1314.86 m 17,0,1
 338.594 1370.2 338.594 1370.2 416 1423 c 0,2,3
 549.55 1516.09 549.55 1516.09 807 1520 c 0,4,5
 1093.4 1524.35 1093.4 1524.35 1271 1310 c 0,6,7
 1445 1099 1445 1099 1445 745 c 0,8,9
 1445 392.499 1445 392.499 1271 182 c 0,10,11
 1096.59 -29 1096.59 -29 807 -29 c 0,12,13
 516 -29 516 -29 341 181 c 0,14,15
 168.723 388.918 168.723 388.918 167.015 738 c 1,16,-1
 1338.98 738 l 1,17,-1
 1339 745 l 2,18,19
 1339.79 1066.95 1339.79 1066.95 1196 1255 c 0,20,21
 1052 1442 1052 1442 807 1442 c 0,22,23
 540.722 1442 540.722 1442 403 1331 c 0,24,25
 335 1277 335 1277 278.5 1218.7 c 1,26,-1
 278.5 1314.86 l 17,0,1
1336.08 656 m 1,27,-1
 275.94 656 l 1,28,29
 293.576 397.279 293.576 397.279 417 237 c 0,30,31
 562 50 562 50 807 50 c 128,-1,32
 1052 50 1052 50 1196 237 c 0,33,34
 1318.57 397.279 1318.57 397.279 1336.08 656 c 1,27,-1
EndSplineSet
EndChar
StartChar: uni0190
Encoding: 400 400 400
Width: 1199
Flags: W
TeX: 117 0 0 0
AnchorPoint: "below" 640 0 basechar 0
AnchorPoint: "above" 640 1520 basechar 0
Fore
413 805 m 1,0,1
 304 837 304 837 248 924 c 0,2,3
 190 1014 190 1014 190 1133 c 0,4,5
 190 1311 190 1311 300 1416 c 0,6,7
 409 1520 409 1520 638 1520 c 0,8,9
 727 1518 727 1518 828 1493 c 0,10,11
 928 1470 928 1470 1043 1421 c 1,12,-1
 1043 1317 l 1,13,14
 929 1378 929 1378 834 1407 c 128,-1,15
 739 1436 739 1436 657 1436 c 0,16,17
 481 1436 481 1436 386 1352 c 0,18,19
 292 1268 292 1268 292 1112 c 0,20,21
 292 980 292 980 384 910 c 0,22,23
 475 841 475 841 648 841 c 2,24,-1
 830 841 l 1,25,-1
 830 757 l 1,26,-1
 656 757 l 2,27,28
 468 757 468 757 362 671 c 0,29,30
 257 586 257 586 257 434 c 0,31,32
 257 248 257 248 370 151 c 0,33,34
 484 53 484 53 700 53 c 0,35,36
 804 53 804 53 904 90 c 0,37,38
 1004 128 1004 128 1088 201 c 1,39,-1
 1088 92 l 1,40,41
 982 30 982 30 882 0 c 0,42,43
 783 -29 783 -29 689 -29 c 0,44,45
 410 -29 410 -29 283 92 c 128,-1,46
 156 213 156 213 156 434 c 0,47,48
 156 578 156 578 224 676 c 0,49,50
 293 776 293 776 413 805 c 1,0,1
EndSplineSet
EndChar
StartChar: uni0191
Encoding: 401 401 401
Width: 1178
Flags: W
TeX: 117 0 0 0
AnchorPoint: "above" 670 1520 basechar 0
Fore
250 104 m 2,0,-1
 250 1493 l 1,1,-1
 1007 1493 l 1,2,-1
 1007 1410 l 1,3,-1
 351 1410 l 1,4,-1
 351 837 l 1,5,-1
 943 837 l 1,6,-1
 943 756 l 1,7,-1
 351 756 l 1,8,-1
 351 104 l 2,9,10
 351 -141.999 351 -141.999 284.999 -253 c 128,-1,11
 218.999 -364 218.999 -364 72.999 -364 c 2,12,-1
 11 -364 l 1,13,-1
 11 -281 l 1,14,-1
 60 -281 l 2,15,16
 164 -281 164 -281 207 -197 c 128,-1,17
 250 -113 250 -113 250 104 c 2,0,-1
EndSplineSet
EndChar
StartChar: florin
Encoding: 402 402 402
Width: 721
Flags: W
TeX: 102 0 0 0
AnchorPoint: "above" 315 1520 basechar 0
AnchorPoint: "below" 311 -430 basechar 0
Fore
714 1556 m 1,0,-1
 714 1478 l 1,1,-1
 584 1478 l 2,2,3
 482 1478 482 1478 428 1425 c 0,4,5
 362 1360 362 1360 362 1219 c 2,6,-1
 362 1120 l 1,7,-1
 664 1120 l 1,8,-1
 664 1042 l 1,9,-1
 362 1042 l 1,10,-1
 362 -20 l 2,11,12
 362 -248 362 -248 293 -337 c 0,13,14
 223 -426 223 -426 64 -426 c 2,15,-1
 -6 -426 l 1,16,-1
 -6 -348 l 1,17,-1
 42 -348 l 2,18,19
 154 -348 154 -348 212 -298 c 0,20,21
 269 -248 269 -248 269 -20 c 2,22,-1
 269 1042 l 1,23,-1
 93 1042 l 1,24,-1
 93 1120 l 1,25,-1
 269 1120 l 1,26,-1
 269 1198 l 2,27,28
 269 1385 269 1385 354 1470 c 0,29,30
 438 1556 438 1556 586 1556 c 2,31,-1
 714 1556 l 1,0,-1
EndSplineSet
EndChar
StartChar: uni0193
Encoding: 403 403 403
Width: 1587
Flags: W
TeX: 117 0 0 0
AnchorPoint: "above" 860 1520 basechar 0
Fore
1270 127 m 1,0,-1
 1270 650 l 1,1,-1
 889 650 l 1,2,-1
 889 732 l 1,3,-1
 1369 732 l 1,4,-1
 1369 79 l 1,5,6
 1264 27 1264 27 1134 0 c 0,7,8
 1003 -27 1003 -27 860 -29 c 0,9,10
 537 -29 537 -29 354 176 c 128,-1,11
 171 381 171 381 171 745 c 0,12,13
 171 1111 171 1111 354 1316 c 0,14,15
 536 1520 536 1520 860 1520 c 0,16,17
 994 1520 994 1520 1113 1493 c 0,18,19
 1181 1477 1181 1477 1242 1452 c 1,20,21
 1242 1638 1242 1638 1310 1717 c 0,22,23
 1380 1806 1380 1806 1539 1806 c 2,24,-1
 1609 1806 l 1,25,-1
 1609 1728 l 1,26,-1
 1560 1728 l 2,27,28
 1448 1728 1448 1728 1390 1678 c 0,29,30
 1334 1630 1334 1630 1333 1407 c 1,31,-1
 1333 1311 l 1,32,33
 1232 1367 1232 1367 1117 1396 c 0,34,35
 1003 1424 1003 1424 877 1424 c 0,36,37
 576 1424 576 1424 425 1253 c 0,38,39
 274 1083 274 1083 274 745 c 0,40,41
 274 402 274 402 425 229 c 0,42,43
 576 55 576 55 877 55 c 0,44,45
 1000 55 1000 55 1097 72 c 0,46,47
 1193 90 1193 90 1270 127 c 1,0,-1
EndSplineSet
EndChar
StartChar: uni0194
Encoding: 404 404 404
Width: 1403
Flags: W
TeX: 117 0 0 0
Fore
773 633 m 1,0,1
 1089 129 1089 129 1089 -150 c 0,2,3
 1088.1 -430.013 1088.1 -430.013 740 -430 c 0,4,5
 351 -430 351 -430 351 -194 c 0,6,7
 351 174 351 174 666 631 c 1,8,-1
 186 1353 l 1,9,-1
 290 1353 l 1,10,-1
 719 711 l 1,11,-1
 1146 1353 l 1,12,-1
 1254 1353 l 1,13,-1
 773 633 l 1,0,1
719 545 m 1,14,15
 446 108 446 108 446 -202 c 0,16,17
 446.462 -353.372 446.462 -353.372 719 -353.365 c 0,18,19
 1004.47 -353.358 1004.47 -353.358 996 -140 c 0,20,21
 986 112 986 112 719 545 c 1,14,15
EndSplineSet
EndChar
StartChar: uni0195
Encoding: 405 405 405
Width: 1976
Flags: W
TeX: 117 0 0 0
Fore
1308 0 m 2,0,-1
 1200 0 l 2,1,2
 1073.49 0 1073.49 0 1030.5 68 c 0,3,4
 986 138.371 986 138.371 986 284 c 2,5,-1
 986 670 l 2,6,7
 986 886.003 986 886.003 913 976 c 128,-1,9
 839.998 1066 839.998 1066 692 1066 c 0,10,11
 521.995 1066 521.995 1066 423 966 c 128,-1,13
 324 866 324 866 324 633 c 2,14,-1
 324 0 l 1,15,-1
 232 0 l 1,16,-1
 232 1556 l 1,17,-1
 324 1556 l 1,18,-1
 324 913 l 1,19,20
 355.793 998.443 355.793 998.443 438 1066 c 0,21,22
 536.556 1147 536.556 1147 714 1147 c 0,23,24
 879.996 1147 879.996 1147 979 1028 c 0,25,26
 1078 908.005 1078 908.005 1078 676 c 2,27,-1
 1078 280 l 2,28,29
 1078 159.589 1078 159.589 1100 122 c 0,30,31
 1127.58 76 1127.58 76 1216 76 c 2,32,-1
 1308 76 l 2,33,34
 1482.17 76.0001 1482.17 76.0001 1569 194.342 c 0,35,36
 1670 332 1670 332 1670 510.66 c 0,37,38
 1668.77 670.287 1668.77 670.287 1595.75 810.78 c 0,39,40
 1539.71 918.62 1539.71 918.62 1452.31 985 c 1,41,-1
 1566.32 985 l 1,42,43
 1646.88 901.929 1646.88 901.929 1695.19 812.237 c 0,44,45
 1767.51 676.662 1767.51 676.662 1767.51 509.454 c 0,46,47
 1767.51 319.418 1767.51 319.418 1640.13 145.711 c 0,48,49
 1533.29 -4.57764e-05 1533.29 -4.57764e-05 1308 0 c 2,0,-1
EndSplineSet
EndChar
StartChar: uni0196
Encoding: 406 406 406
Width: 724
Flags: W
TeX: 117 0 0 0
AnchorPoint: "above" 303 1520 basechar 0
Fore
247.44 514 m 2,0,-1
 247.44 1493 l 1,1,-1
 350.082 1493 l 1,2,-1
 350.082 514 l 2,3,4
 350.082 270.53 350.082 270.53 417.011 176.405 c 128,-1,5
 483.938 82.2803 483.938 82.2803 647 82.2803 c 2,6,-1
 710 82.2803 l 1,7,-1
 710 0 l 1,8,-1
 633 0 l 2,9,10
 430.402 0 430.402 0 339.367 122 c 0,11,12
 247.44 244 247.44 244 247.44 514 c 2,0,-1
EndSplineSet
EndChar
StartChar: uni0197
Encoding: 407 407 407
Width: 604
Flags: W
TeX: 117 0 0 0
AnchorPoint: "above" 303 1520 basechar 0
Fore
248 1493 m 1,0,-1
 352 1493 l 1,1,-1
 352 816 l 1,2,-1
 555 816 l 1,3,-1
 555 736 l 1,4,-1
 352 736 l 1,5,-1
 352 0 l 1,6,-1
 248 0 l 1,7,-1
 248 736 l 1,8,-1
 49 736 l 1,9,-1
 49 816 l 1,10,-1
 248 816 l 1,11,-1
 248 1493 l 1,0,-1
EndSplineSet
EndChar
StartChar: uni0198
Encoding: 408 408 408
Width: 1413
Flags: W
TeX: 117 0 0 0
AnchorPoint: "above" 670 1520 basechar 0
Fore
1022.44 1259.33 m 2,0,-1
 528 794 l 1,1,-1
 1319 0 l 1,2,-1
 1188 0 l 1,3,-1
 453 737 l 1,4,-1
 453 0 l 1,5,-1
 354 0 l 1,6,-1
 354 1493 l 1,7,-1
 453 1493 l 1,8,-1
 453 850 l 1,9,-1
 959.041 1327.37 l 2,10,11
 1125.85 1482.81 1125.85 1482.81 1238 1493 c 0,12,13
 1350.84 1502.46 1350.84 1502.46 1459.23 1386.14 c 2,14,-1
 1507.63 1334.19 l 1,15,-1
 1450.57 1281.02 l 1,16,-1
 1417.16 1316.87 l 2,17,18
 1340.81 1398.81 1340.81 1398.81 1264.69 1407.15 c 0,19,20
 1189.25 1414.77 1189.25 1414.77 1022.44 1259.33 c 2,0,-1
EndSplineSet
EndChar
StartChar: uni0199
Encoding: 409 409 409
Width: 1077
Flags: W
TeX: 117 0 0 0
AnchorPoint: "above" 278 1673 basechar 0
Fore
323 1147 m 1,0,-1
 323 1004 l 1,1,-1
 323 611 l 1,2,-1
 880 1120 l 1,3,-1
 1006 1120 l 1,4,-1
 427 591 l 1,5,-1
 1025 0 l 1,6,-1
 906 0 l 1,7,-1
 323 574 l 1,8,-1
 323 0 l 1,9,-1
 230 0 l 1,10,-1
 230 1004 l 1,11,-1
 230 1147 l 1,12,-1
 230 1150 l 2,13,14
 230 1378 230 1378 299 1467 c 0,15,16
 369 1556 369 1556 528 1556 c 2,17,-1
 599 1556 l 1,18,-1
 599 1478 l 1,19,-1
 550 1478 l 2,20,21
 438 1478 438 1478 380 1428 c 0,22,23
 323 1378 323 1378 323 1150 c 2,24,-1
 323 1147 l 1,0,-1
EndSplineSet
EndChar
StartChar: uni019A
Encoding: 410 410 410
Width: 569
Flags: W
TeX: 117 0 0 0
AnchorPoint: "above" 278 1520 basechar 0
Fore
232 1556 m 1,0,-1
 324 1556 l 1,1,-1
 324 785 l 1,2,-1
 555 785 l 1,3,-1
 555 707 l 1,4,-1
 324 707 l 1,5,-1
 324 0 l 1,6,-1
 232 0 l 1,7,-1
 232 707 l 1,8,-1
 9 707 l 1,9,-1
 9 785 l 1,10,-1
 232 785 l 1,11,-1
 232 1556 l 1,0,-1
EndSplineSet
EndChar
StartChar: uni019D
Encoding: 413 413 413
Width: 1532
Flags: W
TeX: 117 0 0 0
AnchorPoint: "above" 757 1506 basechar 0
Fore
248 17 m 2,0,-1
 248 1493 l 1,1,-1
 250 1493 l 1,2,-1
 350 1493 l 1,3,-1
 396 1493 l 1,4,-1
 1120 128 l 1,5,-1
 1120 1493 l 1,6,-1
 1220 1493 l 1,7,-1
 1220 0 l 1,8,-1
 1078 0 l 1,9,-1
 350 1374 l 1,10,-1
 350 0 l 2,11,12
 338 -167 338 -167 284 -253 c 0,13,14
 214 -364 214 -364 72 -364 c 2,15,-1
 11 -364 l 1,16,-1
 11 -281 l 1,17,-1
 60 -281 l 2,18,19
 164 -281 164 -281 207 -197 c 0,20,21
 241 -131 241 -131 248 17 c 2,0,-1
EndSplineSet
EndChar
StartChar: uni019F
Encoding: 415 415 415
Width: 1612
Flags: W
TeX: 117 0 0 0
Fore
807 1520 m 0,0,1
 1097 1520 1097 1520 1271 1310 c 0,2,3
 1445 1099 1445 1099 1445 745 c 0,4,5
 1445 392.499 1445 392.499 1271 182 c 0,6,7
 1096.59 -29 1096.59 -29 807 -29 c 0,8,9
 516 -29 516 -29 341 181 c 0,10,11
 167 391 167 391 167 745 c 128,-1,12
 167 1099 167 1099 341 1310 c 0,13,14
 516 1520 516 1520 807 1520 c 0,0,1
807 1442 m 128,-1,15
 562 1442 562 1442 417 1255 c 0,16,17
 273 1068 273 1068 273 745 c 0,18,19
 273 741.492 273 741.492 273.017 738 c 1,20,-1
 1338.98 738 l 1,21,-1
 1339 745 l 2,22,23
 1339 1068 1339 1068 1196 1255 c 0,24,25
 1052 1442 1052 1442 807 1442 c 128,-1,15
1336.08 656 m 1,25,-1
 275.94 656 l 1,26,27
 293.576 397.279 293.576 397.279 417 237 c 0,28,29
 562 50 562 50 807 50 c 128,-1,30
 1052 50 1052 50 1196 237 c 0,31,32
 1318.57 397.279 1318.57 397.279 1336.08 656 c 1,25,-1
EndSplineSet
EndChar
StartChar: uni01A4
Encoding: 420 420 420
Width: 1335
Flags: W
TeX: 117 0 0 0
AnchorPoint: "above" 770 1520 basechar 0
Fore
249 1410.47 m 1,0,1
 107 1410.47 107 1410.47 48 1348.04 c 0,2,3
 -1 1297.56 -1 1297.56 -1 1146.14 c 2,4,-1
 -1 1081.05 l 1,5,-1
 -100.16 1081.05 l 1,6,-1
 -100.16 1151.05 l 2,7,8
 -100.16 1331.5 -100.16 1331.5 -17.5996 1414.05 c 0,9,10
 63.4044 1495.04 63.4044 1495.04 249 1493 c 1,11,-1
 250 1488.3 l 1,12,-1
 250 1493 l 1,13,-1
 657 1493 l 2,14,15
 880 1493 880 1493 995 1385 c 0,16,17
 1109 1277 1109 1277 1109 1068 c 0,18,19
 1109 858 1109 858 995 750 c 0,20,21
 880 642 880 642 657 642 c 2,22,-1
 350 642 l 1,23,-1
 350 0 l 1,24,-1
 250 0 l 1,25,-1
 250 1411.39 l 1,26,-1
 249 1410.47 l 1,0,1
350 1410 m 1,27,-1
 350 724 l 1,28,-1
 657 724 l 2,29,30
 823.501 724 823.501 724 915 813 c 0,31,32
 1007 902.488 1007 902.488 1007 1068 c 0,33,34
 1007 1231 1007 1231 915 1321 c 0,35,36
 824 1410 824 1410 657 1410 c 2,37,-1
 350 1410 l 1,27,-1
EndSplineSet
EndChar
StartChar: uni01A5
Encoding: 421 421 421
Width: 1300
Flags: W
TeX: 117 0 0 0
Fore
325 559 m 128,-1,0
 325 286 325 286 440 169 c 0,1,2
 556 52 556 52 681 52 c 0,3,4
 808.501 52 808.501 52 924 169 c 0,5,6
 1040 286.508 1040 286.508 1040 559 c 128,-1,7
 1040 831.492 1040 831.492 924 949 c 0,8,9
 808.501 1066 808.501 1066 681 1066 c 0,10,11
 556 1066 556 1066 440 949 c 0,12,13
 325 832 325 832 325 559 c 128,-1,0
324 254 m 1,13,-1
 324 -426 l 1,14,-1
 233.999 -426 l 1,15,-1
 233.999 1150 l 2,16,17
 233.999 1378 233.999 1378 302.999 1467 c 0,18,19
 372.999 1556 372.999 1556 531.999 1556 c 2,20,-1
 600 1556 l 1,21,-1
 600 1478 l 1,22,-1
 551 1478 l 2,23,24
 439 1478 439 1478 381 1428 c 0,25,26
 324 1378 324 1378 324 1150 c 2,27,-1
 324 864 l 1,28,29
 386.888 1009.74 386.888 1009.74 461 1064 c 0,30,31
 574.37 1147 574.37 1147 674 1147 c 0,32,33
 873 1147 873 1147 1005 985 c 128,-1,34
 1137 823 1137 823 1137 559 c 128,-1,35
 1137 295 1137 295 1005 133 c 128,-1,36
 873 -29 873 -29 674 -29 c 0,37,38
 574.37 -29 574.37 -29 461 54 c 0,39,40
 386.888 108.258 386.888 108.258 324 254 c 1,13,-1
EndSplineSet
EndChar
StartChar: uni01A7
Encoding: 423 423 423
Width: 1300
Flags: W
TeX: 117 0 0 0
AnchorPoint: "below" 656 0 basechar 0
AnchorPoint: "above" 656 1520 basechar 0
Fore
645 -29 m 0,0,1
 481 -29 481 -29 325 72 c 0,46,47
 182 166 182 166 182 409 c 0,44,45
 182 577 182 577 345 688 c 0,42,43
 436 749 436 749 592 788 c 2,40,41
 711 819 l 2,39,-1
 872 860 872 860 955 930 c 0,37,38
 1031 995 1031 995 1031 1106 c 0,35,36
 1031 1283 1031 1283 931 1360 c 0,33,34
 821 1438 821 1438 645 1438 c 0,31,32
 514 1432 514 1432 448 1411 c 0,29,30
 329 1373 329 1373 231 1324 c 1,27,28
 231 1418 l 1,26,-1
 253 1434 253 1434 443 1496 c 0,24,25
 520 1520 520 1520 656 1520 c 0,22,23
 892 1519 892 1519 1008 1416 c 0,20,21
 1133 1305 1133 1305 1133 1098 c 0,18,19
 1133 932 1133 932 980 836 c 0,16,17
 881 774 881 774 735 738 c 2,14,15
 615 709 l 2,13,-1
 453 669 453 669 353 577 c 0,11,12
 283 513 283 513 283 401 c 0,9,10
 283 210 283 210 397 134 c 0,7,8
 518 53 518 53 701 53 c 0,5,6
 871 53 871 53 1129 210 c 1,3,4
 1129 112 l 1,2,-1
 928 -29 928 -29 645 -29 c 0,0,1
EndSplineSet
EndChar
StartChar: uni01A8
Encoding: 424 424 424
Width: 1067
Flags: W
TeX: 117 0 0 0
Fore
208 1087 m 1,0,-1
 269 1114 269 1114 333 1132 c 0,49,50
 386 1147 386 1147 525 1147 c 0,47,48
 688 1147 688 1147 800 1070 c 128,-1,46
 912 993 912 993 912 817 c 0,44,45
 912 710 912 710 819 635 c 0,42,43
 745 575 745 575 604 542 c 2,40,41
 540 527 l 2,39,-1
 376 489 376 489 301 429 c 0,37,38
 249 387 249 387 249 295 c 0,35,36
 249 185 249 185 327 117 c 0,33,34
 404 50 404 50 566 50 c 0,31,32
 663 50 663 50 762 76 c 0,29,30
 798 86 798 86 920 156 c 1,27,28
 920 41 l 1,26,-1
 835 10 835 10 758 -12 c 0,24,25
 694 -29 694 -29 570 -29 c 0,22,23
 348 -29 348 -29 248 60 c 0,20,21
 154 150 154 150 154 309 c 0,18,19
 159 426 159 426 254 499 c 0,16,17
 336 563 336 563 495 598 c 2,14,15
 558 612 l 2,13,-1
 686 640 686 640 755 692 c 0,11,12
 820 740 820 740 820 825 c 0,9,10
 820 951 820 951 751 1003 c 0,7,8
 661 1066 661 1066 503 1066 c 0,5,6
 399 1063 399 1063 329 1046 c 0,3,4
 305 1040 305 1040 208 986 c 1,1,2
 208 1087 l 1,0,-1
EndSplineSet
EndChar
StartChar: uni01AB
Encoding: 427 427 427
Width: 803
Flags: W
TeX: 117 0 0 0
AnchorPoint: "above" 282 1520 basechar 0
Fore
708 1120 m 1,0,-1
 708 1042 l 1,1,-1
329 1438 m 1,2,-1
 329 1120 l 1,3,-1
 708 1120 l 1,4,-1
 708 1042 l 1,5,-1
 329 1042 l 1,6,-1
 329 369 l 2,7,8
 329 241 329 241 362 190 c 0,9,10
 430 78 430 78 560 78 c 2,11,-1
 708 78 l 1,12,-1
 708 -20 l 2,13,14
 708 -248 708 -248 639 -337 c 0,15,16
 569 -426 569 -426 410 -426 c 2,17,-1
 340 -426 l 1,18,-1
 340 -348 l 1,19,-1
 389 -348 l 2,20,21
 501 -348 501 -348 559 -298 c 0,22,23
 616 -248 616 -248 616 -20 c 2,24,-1
 616 2.22045e-16 l 1,25,-1
 565 0 l 2,26,27
 428 0 428 0 332 80 c 128,-1,28
 236 160 236 160 236 369 c 2,29,-1
 236 1042 l 1,30,-1
 102 1042 l 1,31,-1
 102 1120 l 1,32,-1
 236 1120 l 1,33,-1
 236 1438 l 1,34,-1
 329 1438 l 1,2,-1
EndSplineSet
EndChar
StartChar: uni01AC
Encoding: 428 428 428
Width: 1251
Flags: W
TeX: 117 0 0 0
AnchorPoint: "above" 627 1506 basechar 0
Fore
400 1493 m 2,0,-1
 1206 1493 l 1,1,-1
 1206 1411 l 1,2,-1
 676 1411 l 1,3,-1
 676 0 l 1,4,-1
 575 0 l 1,5,-1
 575 1411 l 1,6,-1
 400 1411 l 2,7,8
 258.002 1411 258.002 1411 199.002 1348.57 c 0,9,10
 150.002 1298.09 150.002 1298.09 150.002 1146.67 c 2,11,-1
 150.002 1081.58 l 1,12,-1
 50.8418 1081.58 l 1,13,-1
 50.8418 1151.58 l 2,14,15
 50.8418 1331.76 50.8418 1331.76 133.402 1414.58 c 0,16,17
 214.139 1495.57 214.139 1495.57 400 1493 c 2,0,-1
EndSplineSet
EndChar
StartChar: uni01AD
Encoding: 429 429 429
Width: 803
Flags: W
TeX: 117 0 0 0
AnchorPoint: "above" 282 1673 basechar 0
Fore
708 1120 m 1,0,-1
 708 1042 l 1,1,-1
329 1120 m 1,2,-1
 708 1120 l 1,3,-1
 708 1042 l 1,4,-1
 329 1042 l 1,5,-1
 329 369 l 2,6,7
 329 243.257 329 243.257 362 190 c 0,8,9
 431.399 78 431.399 78 560 78 c 2,10,-1
 708 78 l 1,11,-1
 708 0 l 1,12,-1
 565 0 l 2,13,14
 428 0 428 0 332 80 c 128,-1,15
 236 160 236 160 236 369 c 2,16,-1
 236 1042 l 1,17,-1
 102 1042 l 1,18,-1
 102 1120 l 1,19,-1
 236 1120 l 1,20,-1
 236 1150 l 2,21,22
 236 1378 236 1378 305 1467 c 0,23,24
 375 1556 375 1556 534 1556 c 2,25,-1
 604 1556 l 1,26,-1
 604 1478 l 1,27,-1
 555.999 1478 l 2,28,29
 443.999 1478 443.999 1478 385.999 1428 c 0,30,31
 329 1378 329 1378 329 1150 c 2,32,-1
 329 1120 l 1,2,-1
EndSplineSet
EndChar
StartChar: uni01AE
Encoding: 430 430 430
Width: 1251
Flags: W
TeX: 117 0 0 0
AnchorPoint: "above" 627 1506 basechar 0
Fore
45 1493 m 1,0,-1
 1206 1493 l 1,1,-1
 1206 1411 l 1,2,-1
 676 1411 l 1,3,-1
 675.999 104 l 2,4,5
 675.999 -113 675.999 -113 718.999 -197 c 128,-1,6
 761.999 -281 761.999 -281 865 -281 c 2,7,-1
 914 -281 l 1,8,-1
 914 -364 l 1,9,-1
 853 -364 l 2,10,11
 704.392 -364 704.392 -364 641 -253 c 0,12,13
 575 -137.434 575 -137.434 575 104 c 2,14,-1
 575 1410.47 l 1,15,-1
 575 1411 l 1,16,-1
 45 1411 l 1,17,-1
 45 1493 l 1,0,-1
EndSplineSet
EndChar
StartChar: uni01B1
Encoding: 433 433 433
Width: 1565
Flags: W
TeX: 117 0 0 0
Fore
1418 679.5 m 24,0,1
 1418 369.159 1418 369.159 1240.56 169.641 c 0,2,3
 1064.36 -29.877 1064.36 -29.877 783 -29.877 c 0,4,5
 503.482 -29.877 503.482 -29.877 325.44 169.641 c 0,6,7
 148.32 368.146 148.32 368.146 148.32 679.5 c 0,8,9
 148.32 903.767 148.32 903.767 238.595 1075.08 c 128,-1,10
 328.872 1246.39 328.872 1246.39 533.58 1409.59 c 1,11,-1
 117 1409.59 l 1,12,-1
 117 1493 l 1,13,-1
 695.971 1493.2 l 1,14,-1
 695.971 1412.81 l 1,15,16
 487.266 1300.51 487.266 1300.51 370.533 1108.33 c 128,-1,17
 253.8 916.142 253.8 916.142 253.8 682.278 c 0,18,19
 253.8 395.491 253.8 395.491 399.33 222.226 c 128,-1,20
 544.86 48.96 544.86 48.96 783 48.96 c 128,-1,21
 1021.14 48.96 1021.14 48.96 1166.67 222.226 c 0,22,23
 1313.3 396.688 1313.3 396.688 1312.52 682.278 c 24,24,25
 1312.52 911.144 1312.52 911.144 1195.79 1108.33 c 0,26,27
 1082.45 1300.51 1082.45 1300.51 863.055 1412.81 c 1,28,-1
 863.055 1493.2 l 1,29,-1
 1448 1493 l 1,30,-1
 1448 1409.59 l 1,31,-1
 1025.45 1409.59 l 1,32,33
 1234.01 1252.91 1234.01 1252.91 1327.73 1075.08 c 0,34,35
 1418 903.767 1418 903.767 1418 679.5 c 24,0,1
EndSplineSet
EndChar
StartChar: uni01B2
Encoding: 434 434 434
Width: 1476
Flags: W
TeX: 117 0 0 0
AnchorPoint: "above" 679 1520 basechar 0
Fore
710 82.2803 m 2,0,1
 948.14 82.2802 948.14 82.2802 1093.67 255.546 c 0,10,11
 1240.3 430.008 1240.3 430.008 1239.52 715.599 c 24,6,7
 1239.52 944.464 1239.52 944.464 1122.79 1141.65 c 0,5,6
 1058.49 1250.68 1058.49 1250.68 960.051 1334 c 1,0,0
 1080.92 1334 l 17,0,0
 1192.85 1225.81 1192.85 1225.81 1254.73 1108.4 c 0,26,27
 1345 937.087 1345 937.087 1345 712.82 c 24,24,25
 1345 402.479 1345 402.479 1167.56 202.961 c 0,26,27
 987.06 3.39919e-05 987.06 3.39919e-05 710 0 c 2,28,29
 633 0 l 2,9,10
 430.402 0 430.402 0 339.367 122 c 0,11,12
 247.44 244 247.44 244 247.44 514 c 2,0,-1
 247.44 1493 l 1,1,-1
 350.082 1493 l 1,2,-1
 350.082 514 l 2,3,4
 350.082 270.53 350.082 270.53 417.011 176.405 c 128,-1,5
 483.937 82.2804 483.937 82.2804 647 82.2803 c 2,6,-1
 710 82.2803 l 2,0,1
EndSplineSet
EndChar
StartChar: uni01B3
Encoding: 435 435 435
Width: 1425
Flags: W
TeX: 117 0 0 0
AnchorPoint: "above" 626 1527 basechar 0
Fore
1010.06 1207.72 m 2,0,-1
 675 711 l 1,1,-1
 675 0 l 1,2,-1
 574 0 l 1,3,-1
 574 711 l 1,4,-1
 46 1493 l 1,5,-1
 162 1493 l 1,6,-1
 627 805 l 1,7,-1
 933.116 1259.96 l 2,8,9
 1064.59 1449.71 1064.59 1449.71 1168.26 1483.47 c 0,10,11
 1198.22 1493 1198.22 1493 1230 1493 c 0,12,13
 1312.7 1493 1312.7 1493 1407.71 1428.48 c 2,14,-1
 1466.45 1388.59 l 1,15,-1
 1422.65 1324.07 l 1,16,-1
 1382.1 1351.59 l 2,17,18
 1300.79 1406.79 1300.79 1406.79 1232.28 1406.79 c 0,19,20
 1222.7 1406.79 1222.7 1406.79 1213.37 1405.71 c 0,21,22
 1138.13 1396.36 1138.13 1396.36 1010.06 1207.72 c 2,0,-1
EndSplineSet
EndChar
StartChar: uni01B4
Encoding: 436 436 436
Width: 1648
Flags: W
TeX: 117 0 0 0
AnchorPoint: "above" 608 1154 basechar 0
AnchorPoint: "below" 608 -430 basechar 0
Fore
978.045 812.642 m 2,0,-1
 610 -104 l 2,1,2
 549.695 -253.253 549.695 -253.253 481 -310 c 0,3,4
 388 -387 388 -387 299 -387 c 2,5,-1
 162 -387 l 1,6,-1
 162 -309 l 1,7,-1
 279 -309 l 2,8,9
 352 -309 352 -309 407 -262 c 0,10,11
 476.609 -202.195 476.609 -202.195 524 -83 c 2,12,-1
 557 0 l 1,13,-1
 110 1120 l 1,14,-1
 208 1120 l 1,15,-1
 606 122 l 1,16,-1
 892.009 845.226 l 2,17,18
 977.922 1062.47 977.922 1062.47 1068.81 1117.24 c 0,19,20
 1118.2 1147 1118.2 1147 1181 1147 c 0,21,22
 1241.52 1147 1241.52 1147 1314.49 1119.36 c 2,23,-1
 1379.95 1094.57 l 1,24,-1
 1352.32 1021.63 l 1,25,-1
 1306.5 1038.98 l 2,26,27
 1239.84 1064.23 1239.84 1064.23 1190.03 1064.23 c 0,28,29
 1155.99 1064.23 1155.99 1064.23 1129.81 1052.43 c 0,30,31
 1055.25 1016.51 1055.25 1016.51 978.045 812.642 c 2,0,-1
EndSplineSet
EndChar
StartChar: uni01B5
Encoding: 437 437 437
Width: 1403
Flags: W
TeX: 117 0 0 0
AnchorPoint: "above" 702 1520 basechar 0
Fore
115 1493 m 1,0,-1
 1288 1493 l 1,1,-1
 1288 1412 l 1,2,-1
 805.823 816 l 1,3,-1
 1131 816 l 1,4,-1
 1131 736 l 1,5,-1
 741.101 736 l 1,6,-1
 212 82 l 1,7,-1
 1311 82 l 1,8,-1
 1311 0 l 1,9,-1
 92 0 l 1,10,-1
 92 81 l 1,11,-1
 621.323 736 l 1,12,-1
 273 736 l 1,13,-1
 273 816 l 1,14,-1
 685.973 816 l 1,15,-1
 1166 1410 l 1,16,-1
 115 1410 l 1,17,-1
 115 1493 l 1,0,-1
EndSplineSet
EndChar
StartChar: uni01B6
Encoding: 438 438 438
Width: 1075
Flags: W
TeX: 117 0 0 0
AnchorPoint: "above" 535 1147 basechar 0
Fore
113 1120 m 1,0,-1
 987 1120 l 1,1,-1
 987 1014 l 1,2,-1
 651.663 626.5 l 1,3,-1
 891 626.5 l 1,4,-1
 891 548.5 l 1,5,-1
 584.163 548.5 l 1,6,-1
 177 78 l 1,7,-1
 987 78 l 1,8,-1
 987 0 l 1,9,-1
 88 0 l 1,10,-1
 88 102 l 1,11,-1
 472.684 548.5 l 1,12,-1
 213 548.5 l 1,13,-1
 213 626.5 l 1,14,-1
 539.885 626.5 l 1,15,-1
 897 1041 l 1,16,-1
 113 1041 l 1,17,-1
 113 1120 l 1,0,-1
EndSplineSet
EndChar
StartChar: uni01C0
Encoding: 448 448 448
Width: 604
Flags: W
TeX: 117 0 0 0
Fore
251.5 1493 m 1,0,-1
 352.5 1493 l 1,1,-1
 352.5 -426 l 1,2,-1
 251.5 -426 l 1,3,-1
 251.5 1493 l 1,0,-1
EndSplineSet
EndChar
StartChar: uni01C2
Encoding: 450 450 450
Width: 940
Flags: W
TeX: 117 0 0 0
Fore
421.5 1493 m 1,0,-1
 522.5 1493 l 1,1,-1
 522.5 876 l 1,2,-1
 888 876 l 1,3,-1
 888 792 l 1,4,-1
 522.5 792 l 1,5,-1
 522.5 383 l 1,6,-1
 888 383 l 1,7,-1
 888 298 l 1,8,-1
 522.5 298 l 1,9,-1
 522.5 -426 l 1,10,-1
 421.5 -426 l 1,11,-1
 421.5 298 l 1,12,-1
 56 298 l 1,13,-1
 56 383 l 1,14,-1
 421.5 383 l 1,15,-1
 421.5 792 l 1,16,-1
 56 792 l 1,17,-1
 56 876 l 1,18,-1
 421.5 876 l 1,19,-1
 421.5 1493 l 1,0,-1
EndSplineSet
EndChar
StartChar: dotlessj
Encoding: 567 567 567
Width: 569
Flags: W
Fore
239 1120 m 1,0,-1
 331 1120 l 1,1,-1
 331 -20 l 2,2,3
 331 -248 331 -248 262 -337 c 0,4,5
 192 -426 192 -426 33 -426 c 2,6,-1
 -37 -426 l 1,7,-1
 -37 -348 l 1,8,-1
 12 -348 l 2,9,10
 124 -348 124 -348 182 -298 c 0,11,12
 239 -248 239 -248 239 -20 c 2,13,-1
 239 1120 l 1,0,-1
EndSplineSet
EndChar
StartChar: uni0238
Encoding: 568 568 568
Width: 2113
Flags: W
TeX: 117 0 0 0
Fore
1853 559 m 24,0,1
 1853 832 1853 832 1737 949 c 0,2,3
 1622 1066 1622 1066 1494 1066 c 24,4,5
 1369 1066 1369 1066 1253 949 c 0,6,7
 1138 832 1138 832 1138 559 c 24,8,9
 1138 286 1138 286 1253 169 c 0,10,11
 1369 52 1369 52 1494 52 c 24,12,13
 1622 52 1622 52 1737 169 c 0,14,15
 1853 286 1853 286 1853 559 c 24,0,1
1137 0 m 1,30,-1
 1047 0 l 1,4,-1
 1047 254 l 1,5,6
 984 108 984 108 910 54 c 0,7,8
 797 -29 797 -29 697 -29 c 0,9,10
 498 -29 498 -29 366 133 c 128,-1,11
 234 295 234 295 234 559 c 24,12,13
 234 823 234 823 366 985 c 128,-1,14
 498 1147 498 1147 697 1147 c 0,15,16
 797 1147 797 1147 910 1064 c 0,17,18
 984 1010 984 1010 1047 864 c 1,0,-1
 1047 1556 l 1,1,-1
 1137 1556 l 1,33,-1
 1137 864 l 1,16,17
 1200 1010 1200 1010 1274 1064 c 0,18,19
 1387 1147 1387 1147 1487 1147 c 0,20,21
 1686 1147 1686 1147 1818 985 c 128,-1,22
 1950 823 1950 823 1950 559 c 152,-1,23
 1950 295 1950 295 1818 133 c 128,-1,24
 1686 -29 1686 -29 1487 -29 c 0,25,26
 1387 -29 1387 -29 1274 54 c 0,27,28
 1200 108 1200 108 1137 254 c 1,29,-1
 1137 0 l 1,30,-1
331 559 m 24,19,20
 331 286 331 286 447 169 c 0,21,22
 562 52 562 52 690 52 c 24,23,24
 815 52 815 52 931 169 c 0,25,26
 1046 286 1046 286 1046 559 c 24,27,28
 1046 832 1046 832 931 949 c 0,29,30
 815 1066 815 1066 690 1066 c 24,31,32
 562 1066 562 1066 447 949 c 0,33,34
 331 832 331 832 331 559 c 24,19,20
EndSplineSet
EndChar
StartChar: uni0239
Encoding: 569 569 569
Width: 2113
Flags: W
TeX: 117 0 0 0
Fore
1137 -426 m 1,1,-1
 1047 -426 l 1,34,-1
 1047 254 l 1,16,17
 984 108 984 108 910 54 c 0,18,19
 797 -29 797 -29 697 -29 c 0,20,21
 498 -29 498 -29 366 133 c 128,-1,22
 234 295 234 295 234 559 c 24,23,24
 234 823 234 823 366 985 c 128,-1,25
 498 1147 498 1147 697 1147 c 0,26,27
 797 1147 797 1147 910 1064 c 0,28,29
 984 1010 984 1010 1047 864 c 1,30,-1
 1047 1120 l 1,31,-1
 1137 1120 l 1,4,-1
 1137 864 l 1,5,6
 1200 1010 1200 1010 1274 1064 c 0,7,8
 1387 1147 1387 1147 1487 1147 c 0,9,10
 1686 1147 1686 1147 1818 985 c 128,-1,11
 1950 823 1950 823 1950 559 c 24,12,13
 1950 295 1950 295 1818 133 c 128,-1,14
 1686 -29 1686 -29 1487 -29 c 0,15,16
 1387 -29 1387 -29 1274 54 c 0,17,18
 1200 108 1200 108 1137 254 c 1,0,-1
 1137 -426 l 1,1,-1
1853 559 m 24,19,20
 1853 832 1853 832 1737 949 c 0,21,22
 1622 1066 1622 1066 1494 1066 c 24,23,24
 1369 1066 1369 1066 1253 949 c 0,25,26
 1138 832 1138 832 1138 559 c 24,27,28
 1138 286 1138 286 1253 169 c 0,29,30
 1369 52 1369 52 1494 52 c 24,31,32
 1622 52 1622 52 1737 169 c 0,33,34
 1853 286 1853 286 1853 559 c 24,19,20
331 559 m 24,0,1
 331 286 331 286 447 169 c 0,2,3
 562 52 562 52 690 52 c 24,4,5
 815 52 815 52 931 169 c 0,6,7
 1046 286 1046 286 1046 559 c 24,8,9
 1046 832 1046 832 931 949 c 0,10,11
 815 1066 815 1066 690 1066 c 24,12,13
 562 1066 562 1066 447 949 c 0,14,15
 331 832 331 832 331 559 c 24,0,1
EndSplineSet
EndChar
StartChar: uni0250
Encoding: 592 592 592
Width: 1257
Flags: W
AnchorPoint: "above" 596 1147 basechar 0
AnchorPoint: "below" 596 0 basechar 0
Fore
522 486 m 2,0,1
 744 486 744 486 842 565 c 128,-1,2
 940 644 940 644 940 796 c 0,3,4
 940 944 940 944 859 1006 c 128,-1,5
 778 1068 778 1068 667 1068 c 0,6,7
 457 1068 457 1068 365 890 c 0,8,9
 272 712 272 712 272 555 c 2,10,-1
 272 486 l 1,11,-1
 522 486 l 2,0,1
179 479 m 2,12,-1
 179 1118 l 1,13,-1
 270 1118 l 1,14,-1
 270 814 l 1,15,16
 347 1037 347 1037 474 1098 c 0,17,18
 575 1147 575 1147 675 1147 c 0,19,20
 842 1147 842 1147 938 1058 c 0,21,22
 1034 968 1034 968 1034 794 c 128,-1,23
 1034 620 1034 620 909 516 c 0,24,25
 784 411 784 411 500 411 c 2,26,-1
 272 411 l 1,27,-1
 272 393 l 2,28,29
 272 244 272 244 357 148 c 0,30,31
 441 52 441 52 635 52 c 0,32,33
 731 52 731 52 831 88 c 0,34,35
 895 111 895 111 997 181 c 1,36,-1
 997 82 l 1,37,38
 908 27 908 27 831 4 c 0,39,40
 719 -29 719 -29 616 -29 c 0,41,42
 418 -29 418 -29 290 91 c 0,43,44
 179 194 179 194 179 479 c 2,12,-1
EndSplineSet
EndChar
StartChar: uni0251
Encoding: 593 593 593
Width: 1300
Flags: W
TeX: 0 0 0 0
AnchorPoint: "above" 676 1147 basechar 0
AnchorPoint: "below" 676 0 basechar 0
Fore
1047 864 m 1,0,-1
 1047 1120 l 1,1,-1
 1137 1120 l 1,2,-1
 1137 0 l 1,3,-1
 1047 0 l 1,4,-1
 1047 254 l 1,5,6
 984 108 984 108 910 54 c 0,7,8
 797 -29 797 -29 697 -29 c 0,9,10
 498 -29 498 -29 366 133 c 128,-1,11
 234 295 234 295 234 559 c 152,-1,12
 234 823 234 823 366 985 c 128,-1,13
 498 1147 498 1147 697 1147 c 0,14,15
 797 1147 797 1147 910 1064 c 0,16,17
 984 1010 984 1010 1047 864 c 1,0,-1
1046 559 m 152,-1,19
 1046 832 1046 832 931 949 c 0,20,21
 815 1066 815 1066 690 1066 c 24,22,23
 562 1066 562 1066 447 949 c 0,24,25
 331 832 331 832 331 559 c 152,-1,26
 331 286 331 286 447 169 c 0,27,28
 562 52 562 52 690 52 c 24,29,30
 815 52 815 52 931 169 c 0,31,18
 1046 286 1046 286 1046 559 c 152,-1,19
EndSplineSet
EndChar
StartChar: uni0252
Encoding: 594 594 594
Width: 1300
Flags: W
TeX: 0 0 0 0
AnchorPoint: "above" 695 1147 basechar 0
AnchorPoint: "below" 695 0 basechar 0
Fore
324 864 m 1,0,1
 387 1010 387 1010 461 1064 c 0,2,3
 574 1147 574 1147 674 1147 c 0,4,5
 873 1147 873 1147 1005 985 c 128,-1,6
 1137 823 1137 823 1137 559 c 152,-1,7
 1137 295 1137 295 1005 133 c 128,-1,8
 873 -29 873 -29 674 -29 c 0,9,10
 574 -29 574 -29 461 54 c 0,11,12
 387 108 387 108 324 254 c 1,13,-1
 324 0 l 1,14,-1
 234 0 l 1,15,-1
 234 1120 l 1,16,-1
 324 1120 l 1,17,-1
 324 864 l 1,0,1
325 559 m 152,-1,19
 325 286 325 286 440 169 c 0,20,21
 556 52 556 52 681 52 c 24,22,23
 809 52 809 52 924 169 c 0,24,25
 1040 286 1040 286 1040 559 c 152,-1,26
 1040 832 1040 832 924 949 c 0,27,28
 809 1066 809 1066 681 1066 c 24,29,30
 556 1066 556 1066 440 949 c 0,31,18
 325 832 325 832 325 559 c 152,-1,19
EndSplineSet
EndChar
StartChar: uni0253
Encoding: 595 595 595
Width: 1300
Flags: W
TeX: 117 0 0 0
AnchorPoint: "above" 278 1520 basechar 0
AnchorPoint: "below" 653 0 basechar 0
Fore
325 559 m 128,-1,0
 325 286 325 286 440 169 c 0,1,2
 556 52 556 52 681 52 c 0,3,4
 808.501 52 808.501 52 924 169 c 0,5,6
 1040 286.508 1040 286.508 1040 559 c 128,-1,7
 1040 831.492 1040 831.492 924 949 c 0,8,9
 808.501 1066 808.501 1066 681 1066 c 0,10,11
 556 1066 556 1066 440 949 c 0,12,13
 325 832 325 832 325 559 c 128,-1,0
324 864 m 1,13,14
 386.888 1009.74 386.888 1009.74 461 1064 c 0,15,16
 574.37 1147 574.37 1147 674 1147 c 0,17,18
 873 1147 873 1147 1005 985 c 128,-1,19
 1137 823 1137 823 1137 559 c 128,-1,20
 1137 295 1137 295 1005 133 c 128,-1,21
 873 -29 873 -29 674 -29 c 0,22,23
 574.37 -29 574.37 -29 461 54 c 0,24,25
 386.888 108.258 386.888 108.258 324 254 c 1,26,-1
 324 0 l 1,27,-1
 233.999 0 l 1,28,-1
 233.999 1150 l 2,29,30
 233.999 1378 233.999 1378 302.999 1467 c 0,31,32
 372.999 1556 372.999 1556 531.999 1556 c 2,33,-1
 600 1556 l 1,34,-1
 600 1478 l 1,35,-1
 551 1478 l 2,36,37
 439 1478 439 1478 381 1428 c 0,38,39
 324 1378 324 1378 324 1150 c 2,40,-1
 324 864 l 1,13,14
EndSplineSet
EndChar
StartChar: uni0254
Encoding: 596 596 596
Width: 1126
Flags: W
AnchorPoint: "below" 461 0 basechar 0
AnchorPoint: "above" 461 1147 basechar 0
Fore
999 559 m 152,-1,1
 999 238 999 238 854 104 c 0,2,3
 709 -29 709 -29 463 -29 c 24,4,5
 382 -29 382 -29 299 -11 c 0,6,7
 217 7 217 7 140 43 c 1,8,-1
 140 136 l 1,9,10
 218 93 218 93 297 72 c 0,11,12
 375 50 375 50 455 50 c 24,13,14
 697 50 697 50 802 174 c 128,-1,15
 907 298 907 298 907 559 c 24,16,17
 907 818 907 818 802 942 c 128,-1,18
 697 1066 697 1066 455 1066 c 0,19,20
 370 1066 370 1066 277 1037 c 0,21,22
 223 1019 223 1019 140 968 c 1,23,-1
 140 1066 l 1,24,25
 203 1102 203 1102 293 1124 c 0,26,27
 383 1147 383 1147 463 1147 c 0,28,29
 709 1147 709 1147 854 1014 c 0,30,0
 999 880 999 880 999 559 c 152,-1,1
EndSplineSet
EndChar
StartChar: uni0256
Encoding: 598 598 598
Width: 1300
Flags: W
TeX: 117 0 0 0
AnchorPoint: "above" 1093.5 1519.5 basechar 0
AnchorPoint: "below" 667.5 -430.5 basechar 0
Fore
1046 559 m 128,-1,0
 1046 832 1046 832 931 949 c 0,1,2
 815 1066 815 1066 690 1066 c 0,3,4
 562.499 1066 562.499 1066 447 949 c 0,5,6
 331 831.492 331 831.492 331 559 c 128,-1,7
 331 286.508 331 286.508 447 169 c 0,8,9
 562.499 52 562.499 52 690 52 c 0,10,11
 815 52 815 52 931 169 c 0,12,13
 1046 286 1046 286 1046 559 c 128,-1,0
1047 864 m 1,13,-1
 1047 1556 l 1,14,-1
 1137 1556 l 1,15,-1
 1137 126 l 1,16,-1
 1137 0 l 1,17,-1
 1137 -20 l 2,18,19
 1137 -248 1137 -248 1194 -298 c 0,20,21
 1252 -348 1252 -348 1364 -348 c 2,22,-1
 1413 -348 l 1,23,-1
 1413 -426 l 1,24,-1
 1345 -426 l 2,25,26
 1186 -426 1186 -426 1116 -337 c 0,27,28
 1047 -248 1047 -248 1047 -20 c 2,29,-1
 1047 0 l 1,30,-1
 1047 126 l 1,31,-1
 1047 254 l 1,32,33
 984.111 108.258 984.111 108.258 910 54 c 0,34,35
 796.631 -29 796.631 -29 697 -29 c 0,36,37
 498 -29 498 -29 366 133 c 128,-1,38
 234 295 234 295 234 559 c 128,-1,39
 234 823 234 823 366 985 c 128,-1,40
 498 1147 498 1147 697 1147 c 0,41,42
 796.631 1147 796.631 1147 910 1064 c 0,43,44
 984.111 1009.74 984.111 1009.74 1047 864 c 1,13,-1
EndSplineSet
EndChar
StartChar: uni0257
Encoding: 599 599 599
Width: 1489
Flags: W
TeX: 117 0 0 0
AnchorPoint: "below" 667.5 0 basechar 0
AnchorPoint: "above" 1093.5 1519.5 basechar 0
Fore
1046 559 m 128,-1,0
 1046 832 1046 832 931 949 c 0,1,2
 815 1066 815 1066 690 1066 c 0,3,4
 562.499 1066 562.499 1066 447 949 c 0,5,6
 331 831.492 331 831.492 331 559 c 128,-1,7
 331 286.508 331 286.508 447 169 c 0,8,9
 562.499 52 562.499 52 690 52 c 0,10,11
 815 52 815 52 931 169 c 0,12,13
 1046 286 1046 286 1046 559 c 128,-1,0
1137 1150 m 2,13,-1
 1137 0 l 1,14,-1
 1047 0 l 1,15,-1
 1047 254 l 1,16,17
 984.112 108.258 984.112 108.258 910 54 c 0,18,19
 796.63 -29 796.63 -29 697 -29 c 0,20,21
 498 -29 498 -29 366 133 c 128,-1,22
 234 295 234 295 234 559 c 128,-1,23
 234 823 234 823 366 985 c 128,-1,24
 498 1147 498 1147 697 1147 c 0,25,26
 796.63 1147 796.63 1147 910 1064 c 0,27,28
 984.112 1009.74 984.112 1009.74 1047 864 c 1,29,-1
 1047 1150 l 2,30,31
 1047 1378 1047 1378 1116 1467 c 0,32,33
 1186 1556 1186 1556 1345 1556 c 2,34,-1
 1413 1556 l 1,35,-1
 1413 1478 l 1,36,-1
 1364 1478 l 2,37,38
 1252 1478 1252 1478 1194 1428 c 0,39,40
 1137 1378 1137 1378 1137 1150 c 2,13,-1
EndSplineSet
EndChar
StartChar: uni0258
Encoding: 600 600 600
Width: 1260
Flags: W
AnchorPoint: "below" 660 0 basechar 0
AnchorPoint: "above" 653 1147 basechar 0
Fore
162 606 m 1,0,1
 162 850 162 850 273 1002 c 0,2,3
 385 1147 385 1147 605 1147 c 0,4,5
 842 1147 842 1147 975 994 c 0,6,7
 1105 847 1105 847 1105 548 c 0,8,9
 1105 260 1105 260 963 111 c 0,10,11
 832 -29 832 -29 573 -29 c 0,12,13
 512 -29 512 -29 408 -7 c 128,-1,14
 304 15 304 15 205 57 c 1,15,-1
 205 154 l 1,16,17
 303 102 303 102 403 76 c 0,18,19
 502 50 502 50 562 50 c 0,20,21
 791 50 791 50 907 170 c 0,22,23
 1012 278 1012 278 1012 548 c 1,24,-1
 162 548 l 1,25,-1
 162 606 l 1,0,1
255 626 m 1,26,-1
 1008 626 l 1,27,28
 987 873 987 873 883 966 c 0,29,30
 770 1066 770 1066 603 1066 c 0,31,32
 450 1066 450 1066 361 970 c 0,33,34
 255 862 255 862 255 626 c 1,26,-1
EndSplineSet
EndChar
StartChar: uni0259
Encoding: 601 601 601
Width: 1260
Flags: W
AnchorPoint: "above" 653 1147 basechar 0
AnchorPoint: "below" 660 0 basechar 0
Fore
162 512 m 1,0,-1
 162 570 l 1,1,-1
 1012 570 l 1,2,3
 1012 840 1012 840 907 948 c 0,4,5
 791 1068 791 1068 562 1068 c 0,6,7
 502 1068 502 1068 403 1042 c 0,8,9
 303 1016 303 1016 205 964 c 1,10,-1
 205 1061 l 1,11,12
 304 1103 304 1103 408 1125 c 128,-1,13
 512 1147 512 1147 573 1147 c 0,14,15
 832 1147 832 1147 963 1007 c 0,16,17
 1105 858 1105 858 1105 570 c 0,18,19
 1105 271 1105 271 975 124 c 0,20,21
 842 -29 842 -29 605 -29 c 0,22,23
 385 -29 385 -29 273 116 c 0,24,25
 162 268 162 268 162 512 c 1,0,-1
255 492 m 1,26,27
 255 256 255 256 361 148 c 0,28,29
 450 52 450 52 603 52 c 0,30,31
 770 52 770 52 883 152 c 0,32,33
 987 245 987 245 1008 492 c 1,34,-1
 255 492 l 1,26,27
EndSplineSet
EndChar
StartChar: uni025F
Encoding: 607 607 607
Width: 668
Flags: W
TeX: 117 0 0 0
AnchorPoint: "above" 287 1147 basechar 0
AnchorPoint: "below" 287 -430 basechar 0
Fore
239 1120 m 1,0,-1
 331 1120 l 1,1,-1
 331 626.5 l 1,2,-1
 541 626.5 l 1,3,-1
 541 548.5 l 1,4,-1
 331 548.5 l 1,5,-1
 331 -20 l 2,6,7
 331 -248 331 -248 262 -337 c 0,8,9
 192 -426 192 -426 33 -426 c 2,10,-1
 -37 -426 l 1,11,-1
 -37 -348 l 1,12,-1
 12 -348 l 2,13,14
 124 -348 124 -348 182 -298 c 0,15,16
 239 -248 239 -248 239 -20 c 2,17,-1
 239 548.5 l 1,18,-1
 14 548.5 l 1,19,-1
 14 626.5 l 1,20,-1
 239 626.5 l 1,21,-1
 239 1120 l 1,0,-1
EndSplineSet
EndChar
StartChar: uni0260
Encoding: 608 608 608
Width: 1305
Flags: W
TeX: 117 0 0 0
AnchorPoint: "above" 618 1520 basechar 0
AnchorPoint: "below" 618 -430 basechar 0
Fore
976 573 m 2,0,-1
 976 1041 l 1,1,-1
 616 1041 l 2,2,3
 447.114 1041 447.114 1041 353 919 c 0,4,5
 258 795.851 258 795.851 258 573 c 0,6,7
 258 341.181 258 341.181 353 212 c 0,8,9
 447.132 84 447.132 84 616 84 c 0,10,11
 786.868 84 786.868 84 881 212 c 0,12,13
 976 341.181 976 341.181 976 573 c 2,0,-1
616 0 m 0,14,15
 403.396 0 403.396 0 284 151 c 0,16,17
 165 301.499 165 301.499 165 574 c 0,18,19
 165 832.501 165 832.501 284 976 c 0,20,21
 403.415 1120 403.415 1120 616 1120 c 2,22,-1
 977.044 1120 l 1,23,24
 984.49 1304.95 984.49 1304.95 1045 1383 c 0,25,26
 1115 1472 1115 1472 1274 1472 c 2,27,-1
 1344 1472 l 1,28,-1
 1344 1394 l 1,29,-1
 1295 1394 l 2,30,31
 1175 1394 1175 1394 1125 1344 c 0,32,33
 1068 1284 1068 1284 1068 1066 c 2,34,-1
 1068 139 l 2,35,36
 1068 -210 1068 -210 935 -318 c 128,-1,37
 802 -426 802 -426 598 -426 c 0,38,39
 501 -426 501 -426 415 -412 c 0,40,41
 329 -397 329 -397 248 -367 c 1,42,-1
 248 -262 l 1,43,44
 329 -306 329 -306 408 -327 c 128,-1,45
 487 -348 487 -348 569 -348 c 0,46,47
 736 -348 736 -348 856 -277 c 128,-1,48
 976 -206 976 -206 976 106 c 2,49,-1
 976 281 l 1,50,51
 935.177 166.495 935.177 166.495 863 100 c 0,52,53
 754.456 0 754.456 0 616 0 c 0,14,15
EndSplineSet
EndChar
StartChar: uni0261
Encoding: 609 609 609
Width: 1300
Flags: W
TeX: 117 0 0 0
AnchorPoint: "above" 618 1147 basechar 0
AnchorPoint: "below" 618 -430 basechar 0
Fore
616 0 m 24,9,10
 403 0 403 0 284 151 c 0,11,12
 165 301 165 301 165 574 c 0,6,7
 165 833 165 833 284 976 c 0,8,9
 403 1120 403 1120 616 1120 c 26,6,7
 976 1120 l 1,0,-1
 1068 1120 l 1,1,-1
 1068 139 l 2,2,3
 1068 -210 1068 -210 935 -318 c 128,-1,4
 802 -426 802 -426 598 -426 c 0,5,6
 501 -426 501 -426 415 -412 c 0,7,8
 329 -397 329 -397 248 -367 c 1,9,-1
 248 -262 l 1,10,11
 329 -306 329 -306 408 -327 c 128,-1,12
 487 -348 487 -348 569 -348 c 0,13,14
 736 -348 736 -348 856 -277 c 128,-1,15
 976 -206 976 -206 976 106 c 2,16,-1
 976 181 l 1,17,-1
 976 281 l 1,18,19
 935 166 935 166 863 100 c 0,20,21
 755 0 755 0 616 0 c 24,9,10
976 573 m 1,0,1
 976 1041 l 1,2,-1
 616 1041 l 1,3,4
 447 1041 447 1041 353 919 c 0,5,6
 258 796 258 796 258 573 c 0,6,7
 258 341 258 341 353 212 c 0,8,9
 447 84 447 84 616 84 c 0,9,10
 787 84 787 84 881 212 c 0,11,12
 976 341 976 341 976 573 c 1,0,1
EndSplineSet
EndChar
StartChar: uni0263
Encoding: 611 611 611
Width: 1403
Flags: W
TeX: 117 0 0 0
AnchorPoint: "above" 726 1147 basechar 0
AnchorPoint: "below" 726 -430 basechar 0
Fore
774 510 m 1,0,1
 1053 64 1053 64 1053 -194 c 0,2,3
 1053 -425.903 1053 -425.903 740 -430 c 0,4,5
 387.894 -435 387.894 -435 387 -219 c 0,6,7
 387 66 387 66 668 508 c 1,8,-1
 259.5 1120 l 1,9,-1
 366.5 1120 l 1,10,-1
 720 587.5 l 1,11,-1
 1074 1120 l 1,12,-1
 1180 1120 l 1,13,-1
 774 510 l 1,0,1
720 422 m 1,14,15
 488 50 488 50 488 -218 c 0,16,17
 488.538 -350.997 488.538 -350.997 719 -351 c 0,18,19
 960 -351 960 -351 960 -172 c 0,20,21
 960 50 960 50 720 422 c 1,14,15
EndSplineSet
EndChar
StartChar: uni0265
Encoding: 613 613 613
Width: 1298
Flags: W
TeX: 117 0 0 0
AnchorPoint: "below" 637 -430 basechar 0
AnchorPoint: "above" 637 1147 basechar 0
Fore
232 444 m 2,0,-1
 232 1120 l 1,1,-1
 324 1120 l 1,2,-1
 324 450 l 2,3,4
 324 232 324 232 394 143 c 128,-1,5
 464 54 464 54 600 54 c 0,6,7
 759 54 759 54 872 150 c 0,8,9
 986 247 986 247 986 487 c 2,10,-1
 986 1120 l 1,11,-1
 1078 1120 l 1,12,-1
 1078 -426 l 1,13,-1
 986 -426 l 1,14,-1
 986 210 l 1,15,16
 937 108 937 108 857 54 c 0,17,18
 739 -27 739 -27 596 -27 c 0,19,20
 430 -27 430 -27 331 86 c 0,21,22
 232 198 232 198 232 444 c 2,0,-1
EndSplineSet
EndChar
StartChar: uni0268
Encoding: 616 616 616
Width: 761
Flags: W
TeX: 117 0 0 0
AnchorPoint: "above" 383 1583 basechar 0
AnchorPoint: "below" 383 0 basechar 0
Fore
342 1556 m 1,0,-1
 434 1556 l 1,1,-1
 434 1430 l 1,2,-1
 342 1430 l 1,3,-1
 342 1556 l 1,0,-1
342 1120 m 1,4,-1
 434 1120 l 1,5,-1
 434 626.5 l 1,6,-1
 644 626.5 l 1,7,-1
 644 548.5 l 1,8,-1
 434 548.5 l 1,9,-1
 434 0 l 1,10,-1
 342 0 l 1,11,-1
 342 548.5 l 1,12,-1
 117 548.5 l 1,13,-1
 117 626.5 l 1,14,-1
 342 626.5 l 1,15,-1
 342 1120 l 1,4,-1
EndSplineSet
EndChar
StartChar: uni026F
Encoding: 623 623 623
Width: 1995
Flags: W
TeX: 117 0 0 0
AnchorPoint: "below" 1001 0 basechar 0
AnchorPoint: "above" 1001 1147 basechar 0
Fore
971 244 m 1,0,1
 919 109 919 109 807 40 c 0,2,3
 701 -27 701 -27 555 -27 c 128,-1,4
 409 -27 409 -27 321 76 c 0,5,6
 232 178 232 178 232 444 c 2,7,-1
 232 1120 l 1,8,-1
 323 1120 l 1,9,-1
 323 450 l 2,10,11
 323 218 323 218 387 136 c 128,-1,12
 451 54 451 54 557 54 c 0,13,14
 711 54 711 54 829 149 c 0,15,16
 958 252 958 252 958 487 c 2,17,-1
 958 1120 l 1,18,-1
 1050 1120 l 1,19,-1
 1050 450 l 2,20,21
 1050 226 1050 226 1112 140 c 128,-1,22
 1174 54 1174 54 1284 54 c 0,23,24
 1438 54 1438 54 1556 150 c 0,25,26
 1685 253 1685 253 1685 487 c 2,27,-1
 1685 1120 l 1,28,-1
 1777 1120 l 1,29,-1
 1777 0 l 1,30,-1
 1685 0 l 1,31,-1
 1685 210 l 1,32,33
 1636 100 1636 100 1533 36 c 0,34,35
 1429 -27 1429 -27 1278 -27 c 0,36,37
 1180 -27 1180 -27 1089 39 c 0,38,39
 1019 90 1019 90 971 244 c 1,0,1
EndSplineSet
EndChar
StartChar: uni0270
Encoding: 624 624 624
Width: 1995
Flags: W
TeX: 117 0 0 0
AnchorPoint: "below" 1001 0 basechar 0
AnchorPoint: "above" 1001 1147 basechar 0
Fore
971 244 m 1,0,1
 919.913 111.369 919.913 111.369 807 40 c 0,2,3
 701 -27 701 -27 555 -27 c 0,4,5
 410.873 -27 410.873 -27 321 76 c 0,6,7
 232 178 232 178 232 444 c 2,8,-1
 232 1120 l 1,9,-1
 323 1120 l 1,10,-1
 323 450 l 2,11,12
 323 218 323 218 387 136 c 128,-1,13
 451 54 451 54 557 54 c 0,14,15
 711 54 711 54 829 149 c 0,16,17
 958 252 958 252 958 487 c 2,18,-1
 958 1120 l 1,19,-1
 1050 1120 l 1,20,-1
 1050 450 l 2,21,22
 1050 226 1050 226 1112 140 c 128,-1,23
 1174 54 1174 54 1284 54 c 0,24,25
 1435.77 54 1435.77 54 1556 150 c 0,26,27
 1685 253 1685 253 1685 487 c 2,28,-1
 1685 1120 l 1,29,-1
 1777 1120 l 1,30,-1
 1777 -425 l 1,31,-1
 1685 -425 l 1,32,-1
 1685 210 l 1,33,34
 1635.02 97.8008 1635.02 97.8008 1533 36 c 0,35,36
 1429 -27 1429 -27 1278 -27 c 0,37,38
 1180 -27 1180 -27 1089 39 c 0,39,40
 1019 90 1019 90 971 244 c 1,0,1
EndSplineSet
EndChar
StartChar: uni0274
Encoding: 628 628 628
Width: 1298
Flags: W
TeX: 117 0 0 0
AnchorPoint: "above" 649 1147 basechar 0
AnchorPoint: "below" 649 0 basechar 0
Fore
234 1120 m 1,0,-1
 371 1120 l 1,1,-1
 978.75 100.5 l 1,2,-1
 979.125 1120 l 1,3,-1
 1071.01 1120 l 1,4,-1
 1071.01 0 l 1,5,-1
 937 0 l 1,6,-1
 326 1022.5 l 1,7,-1
 326 0 l 1,8,-1
 234 0 l 1,9,-1
 234 1120 l 1,0,-1
EndSplineSet
EndChar
StartChar: uni0275
Encoding: 629 629 629
Width: 1253
Flags: W
TeX: 117 0 0 0
AnchorPoint: "above" 637 1147 basechar 0
AnchorPoint: "below" 637 0 basechar 0
Fore
628 1066 m 0,0,1
 457.865 1066 457.865 1066 358 929 c 0,2,3
 272.633 811.89 272.633 811.89 260.14 626.5 c 1,4,-1
 995.817 626.5 l 1,5,6
 983.221 809.802 983.221 809.802 898 928 c 0,7,8
 798.501 1066 798.501 1066 628 1066 c 0,0,1
627 1147 m 0,9,10
 840.888 1147 840.888 1147 965 987 c 0,11,12
 1090 825.855 1090 825.855 1090 560 c 0,13,14
 1090 286.14 1090 286.14 965 126 c 128,-1,15
 840.109 -34 840.109 -34 627 -34 c 0,16,17
 411 -34 411 -34 286 125 c 0,18,19
 162 284 162 284 162 560 c 0,20,21
 162 829 162 829 287 988 c 128,-1,22
 412 1147 412 1147 627 1147 c 0,9,10
997.929 548.5 m 1,23,-1
 258.069 548.5 l 1,24,25
 260.621 319.884 260.621 319.884 357 187 c 0,26,27
 456.364 50 456.364 50 628 50 c 0,28,29
 798.862 50 798.862 50 898 187 c 0,30,31
 995.334 321.508 995.334 321.508 997.929 548.5 c 1,23,-1
EndSplineSet
EndChar
StartChar: uni0280
Encoding: 640 640 640
Width: 1232
Flags: W
TeX: 117 0 0 0
AnchorPoint: "above" 435 1147 basechar 0
AnchorPoint: "below" 435 0 basechar 0
Fore
624.646 539.875 m 1,0,1
 665.384 523.837 665.384 523.837 693 491 c 0,2,3
 738.722 436.634 738.722 436.634 793 341 c 2,4,-1
 986.537 0 l 1,5,-1
 885 0 l 1,6,-1
 706.395 315.7 l 2,7,8
 635.62 440.801 635.62 440.801 571.89 479.6 c 0,9,10
 506.843 520.3 506.843 520.3 399.9 520.3 c 2,11,-1
 191 520.3 l 1,12,-1
 191 0 l 1,13,-1
 99 0 l 1,14,-1
 99 1120 l 1,15,-1
 438 1120 l 2,16,17
 629.286 1120 629.286 1120 721.457 1042 c 0,18,19
 814.779 963.025 814.779 963.025 814.779 805.075 c 0,20,21
 814.779 705.282 814.779 705.282 765.938 634.45 c 0,22,23
 718.463 565.598 718.463 565.598 624.646 539.875 c 1,0,1
191 1042 m 1,23,-1
 191 598 l 1,24,-1
 433 598 l 2,25,26
 586.214 598 586.214 598 648 647 c 0,27,28
 721.435 703.652 721.435 703.652 721.435 820.657 c 0,29,30
 721.435 931.327 721.435 931.327 646.395 986.662 c 0,31,32
 572.527 1042 572.527 1042 433 1042 c 2,33,-1
 191 1042 l 1,23,-1
EndSplineSet
EndChar
StartChar: uni0281
Encoding: 641 641 641
Width: 1232
Flags: W
TeX: 117 0 0 0
AnchorPoint: "above" 435 1147 basechar 0
AnchorPoint: "below" 435 0 basechar 0
Fore
624.646 580.125 m 1,0,1
 718.463 554.401 718.463 554.401 765.938 485.55 c 0,2,3
 814.779 414.719 814.779 414.719 814.779 314.925 c 0,20,21
 814.779 156.975 814.779 156.975 721.457 78 c 0,18,19
 629.286 0 629.286 0 438 0 c 2,16,17
 99 0 l 1,15,-1
 99 1120 l 1,14,-1
 191 1120 l 1,13,-1
 191 599.7 l 1,12,-1
 399.9 599.7 l 2,11,-1
 506.843 599.7 506.843 599.7 571.89 640.4 c 0,9,10
 635.62 679.199 635.62 679.199 706.395 804.3 c 2,7,8
 885 1120 l 1,6,-1
 986.537 1120 l 1,5,-1
 793 779 l 2,4,-1
 738.723 683.366 738.723 683.366 693 629 c 0,5,6
 665.384 596.163 665.384 596.163 624.646 580.125 c 1,0,1
191 78.002 m 1,23,-1
 433 78.002 l 2,33,-1
 572.527 78.002 572.527 78.002 646.395 133.338 c 0,31,32
 721.435 188.673 721.435 188.673 721.435 299.343 c 0,29,30
 721.435 416.348 721.435 416.348 648 473 c 0,27,28
 586.214 522 586.214 522 433 522 c 2,25,26
 191 522 l 1,24,-1
 191 78.002 l 1,23,-1
EndSplineSet
EndChar
StartChar: uni0289
Encoding: 649 649 649
Width: 1298
Flags: W
TeX: 117 0 0 0
AnchorPoint: "above" 637 1147 basechar 0
AnchorPoint: "below" 637 0 basechar 0
Fore
117 548.5 m 1,0,-1
 117 626.5 l 1,1,-1
 232 626.5 l 1,2,-1
 232 1120 l 1,3,-1
 324 1120 l 1,4,-1
 324 626.5 l 1,5,-1
 986 626.5 l 1,6,-1
 986 1120 l 1,7,-1
 1078 1120 l 1,8,-1
 1078 626.5 l 1,9,-1
 1200 626.5 l 1,10,-1
 1200 548.5 l 1,11,-1
 1078 548.5 l 1,12,-1
 1078 0 l 1,13,-1
 986 0 l 1,14,-1
 986 210 l 1,15,16
 937.326 108.678 937.326 108.678 857 54 c 0,17,18
 738.006 -27 738.006 -27 596 -27 c 0,19,20
 430.441 -27 430.441 -27 331 86 c 0,21,22
 232 198.499 232 198.499 232 444 c 2,23,-1
 232 548.5 l 1,24,-1
 117 548.5 l 1,0,-1
986 548.5 m 1,25,-1
 324 548.5 l 1,26,-1
 324 450 l 2,27,28
 324 232 324 232 394 143 c 128,-1,29
 464 54 464 54 600 54 c 0,30,31
 759 54 759 54 872 150 c 0,32,33
 986 247 986 247 986 487 c 2,34,-1
 986 548.5 l 1,25,-1
EndSplineSet
EndChar
StartChar: uni028A
Encoding: 650 650 650
Width: 1265
Flags: W
TeX: 117 0 0 0
AnchorPoint: "above" 639.502 1147 basechar 0
AnchorPoint: "below" 639.502 0 basechar 0
Fore
113 1044.74 m 1,0,-1
 113 1120 l 1,1,-1
 555 1120 l 1,2,-1
 555.168 993.06 l 1,3,4
 429.023 922.625 429.023 922.625 351.25 780.78 c 0,5,6
 277 645.36 277 645.36 277 480.66 c 0,7,8
 277 286.68 277 286.68 376 168.34 c 128,-1,9
 475 50 475 50 637 50 c 128,-1,10
 799 50 799 50 898 168.34 c 0,11,12
 997 287.9 997 287.9 997 480.66 c 0,13,14
 997 637.898 997 637.898 922.75 780.78 c 0,15,16
 848.877 922.937 848.877 922.937 720.49 993.06 c 1,17,-1
 720 1120 l 1,18,-1
 1156 1120 l 1,19,-1
 1156 1044.74 l 1,20,-1
 794.488 1044.74 l 1,21,22
 947.18 921.499 947.18 921.499 1022.19 782.237 c 0,23,24
 1094.51 646.672 1094.51 646.672 1094.51 479.454 c 0,25,26
 1094.51 279.681 1094.51 279.681 967.135 115.711 c 0,27,28
 867.427 -30 867.427 -30 635 -30 c 0,29,30
 415.956 -30 415.956 -30 302.865 114.578 c 0,29,30
 174.355 280.003 174.355 280.003 174.355 469.205 c 0,31,32
 174.355 650.37 174.355 650.37 245.92 782.237 c 0,33,34
 318.861 916.569 318.861 916.569 482.636 1044.74 c 1,35,-1
 113 1044.74 l 1,0,-1
EndSplineSet
EndChar
StartChar: uni028B
Encoding: 651 651 651
Width: 1225
Flags: W
TeX: 117 0 0 0
AnchorPoint: "above" 637 1147 basechar 0
AnchorPoint: "below" 637 0 basechar 0
Fore
556 0 m 2,0,-1
 448 0 l 2,8,9
 323 0 323 0 278.5 68 c 128,-1,11
 234 136 234 136 234 284 c 2,12,-1
 234 1120 l 1,13,-1
 324 1120 l 1,0,-1
 324 280 l 2,1,2
 324 162.85 324 162.85 348 122 c 0,3,4
 375.591 75.9981 375.591 75.9981 464 76 c 2,5,-1
 556 76.002 l 2,6,7
 730.508 76.0056 730.508 76.0056 817 194.342 c 0,11,12
 918 332 918 332 918 510.66 c 0,13,14
 916.74 670.32 916.74 670.32 843.75 810.78 c 0,15,16
 787.713 918.615 787.713 918.615 700.307 985 c 9,0,0
 814.323 985 l 17,0,0
 894.871 901.942 894.871 901.942 943.188 812.237 c 0,23,24
 1015.51 676.672 1015.51 676.672 1015.51 509.454 c 0,25,26
 1015.51 319.419 1015.51 319.419 888.135 145.711 c 0,27,28
 781.286 0 781.286 0 556 0 c 2,0,-1
EndSplineSet
EndChar
StartChar: uni028C
Encoding: 652 652 652
Width: 1212
Flags: W
TeX: 117 0 0 0
AnchorPoint: "above" 606 1147 basechar 0
AnchorPoint: "below" 606 0 basechar 0
Fore
1082 0 m 1,0,-1
 986 0 l 1,1,-1
 606 1019 l 1,2,-1
 227 0 l 1,3,-1
 130 0 l 1,4,-1
 547 1120 l 1,5,-1
 665 1120 l 1,6,-1
 1082 0 l 1,0,-1
EndSplineSet
EndChar
StartChar: uni028D
Encoding: 653 653 653
Width: 1675
Flags: W
TeX: 117 0 0 0
AnchorPoint: "above" 839 1154 basechar 0
AnchorPoint: "below" 839 0 basechar 0
Fore
1486 0 m 1,0,-1
 1391 0 l 1,1,-1
 1128 998 l 1,2,-1
 867 0 l 1,3,-1
 750 0 l 1,4,-1
 487 1003 l 1,5,-1
 225 0 l 1,6,-1
 130 0 l 1,7,-1
 423 1120 l 1,8,-1
 551 1120 l 1,9,-1
 809 138 l 1,10,-1
 1066 1120 l 1,11,-1
 1192 1120 l 1,12,-1
 1486 0 l 1,0,-1
EndSplineSet
EndChar
StartChar: uni028E
Encoding: 654 654 654
Width: 1212
Flags: W
TeX: 117 0 0 0
AnchorPoint: "above" 606 1520 basechar 0
AnchorPoint: "below" 606 0 basechar 0
Fore
602 1224 m 2,0,1
 662 1373 662 1373 731 1430 c 0,2,3
 824 1507 824 1507 913 1507 c 2,4,-1
 1050 1507 l 1,5,-1
 1050 1429 l 1,6,-1
 933 1429 l 2,7,8
 860 1429 860 1429 805 1382 c 0,9,10
 734 1321 734 1321 688 1203 c 2,11,-1
 655 1120 l 1,12,-1
 1102 0 l 1,13,-1
 1004 0 l 1,14,-1
 606 998 l 1,15,-1
 207 0 l 1,16,-1
 110 0 l 1,17,-1
 602 1224 l 2,0,1
EndSplineSet
EndChar
StartChar: uni029E
Encoding: 670 670 670
Width: 1366
Flags: W
TeX: 117 0 0 0
AnchorPoint: "above" 683 1147 basechar 0
AnchorPoint: "below" 683 -430 basechar 0
Fore
1065 -433.5 m 1,0,-1
 972 -433.5 l 1,1,-1
 972 511.5 l 1,2,-1
 415 2.5 l 1,3,-1
 289 2.5 l 1,4,-1
 868 531.5 l 1,5,-1
 270 1122.5 l 1,6,-1
 389 1122.5 l 1,7,-1
 972 548.5 l 1,8,-1
 972 1122.5 l 1,9,-1
 1065 1122.5 l 1,10,-1
 1065 -433.5 l 1,0,-1
EndSplineSet
EndChar
StartChar: uni029F
Encoding: 671 671 671
Width: 1194
Flags: W
TeX: 117 0 0 0
AnchorPoint: "above" 299 1147 basechar 0
AnchorPoint: "below" 600 0 basechar 0
Fore
255 1147 m 1,0,-1
 346 1147 l 1,1,-1
 346 78 l 1,2,-1
 985 78 l 1,3,-1
 985 0 l 1,4,-1
 255 0 l 1,5,-1
 255 1147 l 1,0,-1
EndSplineSet
EndChar
StartChar: uni02A3
Encoding: 675 675 675
Width: 2077
Flags: W
TeX: 117 0 0 0
AnchorPoint: "above" 1019 1520 basechar 0
AnchorPoint: "below" 1019 0 basechar 0
Fore
257 559 m 0,0,1
 257 286.508 257 286.508 373 169 c 0,2,3
 488.499 52 488.499 52 616 52 c 0,4,5
 741 52 741 52 857 169 c 0,6,7
 972 286 972 286 972 559 c 128,-1,8
 972 832 972 832 857 949 c 0,9,10
 741 1066 741 1066 616 1066 c 0,11,12
 488.499 1066 488.499 1066 373 949 c 0,13,14
 257 831.492 257 831.492 257 559 c 0,0,1
973 864 m 1,15,-1
 973 1556 l 1,16,-1
 1063 1556 l 1,17,-1
 1063 1120 l 1,18,-1
 1937 1120 l 1,19,-1
 1937 1014 l 1,20,-1
 1127 78 l 1,21,-1
 1937 78 l 1,22,-1
 1937 0 l 1,23,-1
 973 0 l 1,24,-1
 973 254 l 1,25,26
 910.111 108.259 910.111 108.259 836 54 c 0,27,28
 722.631 -29 722.631 -29 623 -29 c 0,29,30
 424 -29 424 -29 292 133 c 128,-1,31
 160 295 160 295 160 559 c 128,-1,32
 160 823 160 823 292 985 c 128,-1,33
 424 1147 424 1147 623 1147 c 0,34,35
 722.631 1147 722.631 1147 836 1064 c 0,36,37
 910.111 1009.74 910.111 1009.74 973 864 c 1,15,-1
1063 1041 m 1,38,-1
 1063 131.018 l 1,39,-1
 1847 1041 l 1,40,-1
 1063 1041 l 1,38,-1
EndSplineSet
EndChar
StartChar: uni02A6
Encoding: 678 678 678
Width: 1688
Flags: W
TeX: 117 0 0 0
AnchorPoint: "above" 1137 1147 basechar 0
AnchorPoint: "below" 1137 0 basechar 0
Fore
1459 1087 m 1,0,-1
 1459 986 l 1,1,2
 1362 1040 1362 1040 1338 1046 c 0,3,4
 1268 1063 1268 1063 1164 1066 c 0,5,6
 1006 1066 1006 1066 916 1003 c 0,7,8
 847 951 847 951 847 825 c 0,9,10
 847 740.491 847 740.491 912 692 c 0,11,12
 981.153 640.41 981.153 640.41 1109 612 c 2,13,-1
 1172 598 l 2,14,15
 1330.71 562.732 1330.71 562.732 1413 499 c 0,16,17
 1508.03 425.409 1508.03 425.409 1513 309 c 0,18,19
 1513 150 1513 150 1419 60 c 0,20,21
 1319 -29 1319 -29 1097 -29 c 0,22,23
 973 -29 973 -29 909 -12 c 0,24,25
 832 10 832 10 747 41 c 1,26,-1
 747 0 l 1,27,-1
 604 0 l 2,28,29
 467 0 467 0 371 80 c 128,-1,30
 275 160 275 160 275 369 c 2,31,-1
 275 1042 l 1,32,-1
 141 1042 l 1,33,-1
 141 1120 l 1,34,-1
 275 1120 l 1,35,-1
 275 1438 l 1,36,-1
 368 1438 l 1,37,-1
 368 1120 l 1,38,-1
 747 1120 l 1,39,-1
 747 1042 l 1,40,-1
 368 1042 l 1,41,-1
 368 369 l 2,42,43
 368 241 368 241 401 190 c 0,44,45
 469 78 469 78 599 78 c 2,46,-1
 747 78 l 1,47,-1
 747 156 l 1,48,49
 869 86 869 86 905 76 c 0,50,51
 1004 50 1004 50 1101 50 c 0,52,53
 1263 50 1263 50 1340 117 c 0,54,55
 1418 185 1418 185 1418 295 c 0,56,57
 1418 387 1418 387 1366 429 c 0,58,59
 1291.77 488.381 1291.77 488.381 1127 527 c 2,60,-1
 1063 542 l 2,61,62
 922.199 575 922.199 575 848 635 c 0,63,64
 755 710.202 755 710.202 755 817 c 0,65,66
 755 993 755 993 867 1070 c 128,-1,67
 979 1147 979 1147 1142 1147 c 0,68,69
 1280.83 1147 1280.83 1147 1334 1132 c 0,70,71
 1398.35 1113.84 1398.35 1113.84 1459 1087 c 1,0,-1
EndSplineSet
EndChar
StartChar: uni02AA
Encoding: 682 682 682
Width: 1312
Flags: W
TeX: 117 0 0 0
AnchorPoint: "above" 328 1520 basechar 0
AnchorPoint: "below" 328 0 basechar 0
Fore
1086 1087 m 1,0,-1
 1086 986 l 1,1,2
 989 1040 989 1040 965 1046 c 0,3,4
 887.182 1064.9 887.182 1064.9 791 1066 c 0,5,6
 632.656 1067.81 632.656 1067.81 543 1003 c 0,7,8
 474 953.119 474 953.119 474 825 c 0,9,10
 474 740.491 474 740.491 539 692 c 0,11,12
 608.153 640.41 608.153 640.41 736 612 c 2,13,-1
 799 598 l 2,14,15
 957.706 562.732 957.706 562.732 1040 499 c 0,16,17
 1137.93 423.157 1137.93 423.157 1140 309 c 0,18,19
 1142.89 149.446 1142.89 149.446 1046 60 c 0,20,21
 949.593 -29 949.593 -29 724 -29 c 0,22,23
 595.5 -29 595.5 -29 536 -12 c 0,24,25
 459 10 459 10 374 41 c 1,26,-1
 374 0 l 1,27,-1
 282 0 l 1,28,-1
 282 1556 l 1,29,-1
 374 1556 l 1,30,-1
 374 156 l 1,31,32
 496 86 496 86 532 76 c 0,33,34
 631 50 631 50 728 50 c 0,35,36
 890 50 890 50 967 117 c 0,37,38
 1045 185 1045 185 1045 295 c 0,39,40
 1045 387 1045 387 993 429 c 0,41,42
 918.772 488.382 918.772 488.382 754 527 c 2,43,-1
 690 542 l 2,44,45
 549.2 575 549.2 575 475 635 c 0,46,47
 382 710.202 382 710.202 382 817 c 0,48,49
 382 993 382 993 494 1070 c 128,-1,50
 606 1147 606 1147 769 1147 c 0,51,52
 907.834 1147 907.834 1147 961 1132 c 0,53,54
 1025.35 1113.84 1025.35 1113.84 1086 1087 c 1,0,-1
EndSplineSet
EndChar
StartChar: uni02AB
Encoding: 683 683 683
Width: 1340
Flags: W
TeX: 117 0 0 0
AnchorPoint: "above" 278 1520 basechar 0
AnchorPoint: "below" 278 0 basechar 0
Fore
232 1556 m 1,0,-1
 324 1556 l 1,1,-1
 324 1120 l 1,2,-1
 1198 1120 l 1,3,-1
 1198 1014 l 1,4,-1
 388 78 l 1,5,-1
 1198 78 l 1,6,-1
 1198 0 l 1,7,-1
 232 0 l 1,8,-1
 232 1556 l 1,0,-1
324 1041 m 1,9,-1
 324 131.017 l 1,10,-1
 1108 1041 l 1,11,-1
 324 1041 l 1,9,-1
EndSplineSet
EndChar
StartChar: uni02BE
Encoding: 702 702 702
Width: 629
Flags: W
TeX: 117 0 0 0
Fore
117 1007 m 9,0,1
 117 1068 117 1068 117 1130 c 1,2,3
 181 1130 181 1130 225 1174 c 128,-1,4
 269 1218 269 1218 269 1282 c 0,5,6
 269 1345 269 1345 225 1389 c 128,-1,7
 181 1433 181 1433 117 1433 c 1,8,9
 117 1494 117 1494 117 1556 c 17,10,11
 232 1556 232 1556 312 1476 c 0,12,13
 391 1397 391 1397 391 1282 c 128,-1,14
 391 1167 391 1167 312 1087 c 0,15,16
 232 1007 232 1007 117 1007 c 9,0,1
EndSplineSet
EndChar
StartChar: circumflex
Encoding: 710 710 710
Width: 1024
Flags: W
Fore
471 1638 m 1,0,-1
 556 1638 l 1,1,-1
 800 1262 l 1,2,-1
 721 1262 l 1,3,-1
 514 1541 l 1,4,-1
 306 1262 l 1,5,-1
 226 1262 l 1,6,-1
 471 1638 l 1,0,-1
EndSplineSet
EndChar
StartChar: caron
Encoding: 711 711 711
Width: 1024
Flags: W
Fore
555 1262 m 1,0,-1
 470 1262 l 1,1,-1
 226 1638 l 1,2,-1
 305 1638 l 1,3,-1
 512 1359 l 1,4,-1
 720 1638 l 1,5,-1
 800 1638 l 1,6,-1
 555 1262 l 1,0,-1
EndSplineSet
EndChar
StartChar: breve
Encoding: 728 728 728
Width: 1024
Flags: W
Fore
199 1608 m 1,0,-1
 278 1608 l 1,1,2
 291.2 1506.75 291.2 1506.75 348.8 1456.8 c 0,3,4
 407.6 1405.5 407.6 1405.5 512 1405.5 c 0,5,6
 615.2 1405.5 615.2 1405.5 672.8 1455.45 c 128,-1,7
 730.4 1505.4 730.4 1505.4 746 1608 c 1,8,-1
 825 1608 l 1,9,10
 815 1465 815 1465 736 1393 c 128,-1,11
 657 1321 657 1321 512 1321 c 128,-1,12
 367 1321 367 1321 288 1393 c 128,-1,13
 209 1465 209 1465 199 1608 c 1,0,-1
EndSplineSet
Ligature: 0 1 'liga' space uni0306
EndChar
StartChar: dotaccent
Encoding: 729 729 729
Width: 1024
Flags: W
Fore
466 1479 m 1,0,-1
 558 1479 l 1,1,-1
 558 1348 l 1,2,-1
 466 1348 l 1,3,-1
 466 1479 l 1,0,-1
EndSplineSet
LCarets: 0 65535 '    ' 1 0 
Ligature: 0 1 'liga' space uni0307
EndChar
StartChar: ring
Encoding: 730 730 730
Width: 1024
Flags: W
Fore
664 1524 m 0,0,1
 664 1587 664 1587 620 1631 c 128,-1,2
 576 1675 576 1675 512 1675 c 0,3,4
 447 1675 447 1675 404 1632 c 0,5,6
 360 1588 360 1588 360 1524 c 0,7,8
 360 1459 360 1459 404 1416 c 0,9,10
 447 1372 447 1372 512 1372 c 0,11,12
 576 1372 576 1372 620 1416 c 128,-1,13
 664 1460 664 1460 664 1524 c 0,0,1
758 1524 m 128,-1,15
 758 1421 758 1421 686 1349 c 0,16,17
 615 1277 615 1277 512 1277 c 128,-1,18
 409 1277 409 1277 338 1349 c 0,19,20
 266 1421 266 1421 266 1524 c 128,-1,21
 266 1627 266 1627 338 1698 c 0,22,23
 409 1770 409 1770 512 1770 c 128,-1,24
 615 1770 615 1770 686 1698 c 0,25,14
 758 1627 758 1627 758 1524 c 128,-1,15
EndSplineSet
LCarets: 0 65535 '    ' 1 0 
Ligature: 0 1 'liga' space uni030A
EndChar
StartChar: ogonek
Encoding: 731 731 731
Width: 1024
Flags: W
Fore
458 0 m 1,0,-1
 543 0 l 1,1,2
 495 -69 495 -69 472 -118 c 0,3,4
 448 -166 448 -166 448 -200 c 0,5,6
 448 -252 448 -252 481 -279 c 0,7,8
 513 -306 513 -306 577 -306 c 0,9,10
 628 -306 628 -306 668 -298 c 0,11,12
 708 -289 708 -289 744 -270 c 1,13,-1
 746 -363 l 1,14,15
 705 -374 705 -374 664 -380 c 128,-1,16
 623 -386 623 -386 579 -386 c 0,17,18
 468 -386 468 -386 411 -342 c 0,19,20
 355 -297 355 -297 355 -210 c 0,21,22
 355 -163 355 -163 380 -112 c 0,23,24
 406 -61 406 -61 458 0 c 1,0,-1
EndSplineSet
LCarets: 0 65535 '    ' 1 0 
Ligature: 0 1 'liga' space uni0328
EndChar
StartChar: tilde
Encoding: 732 732 732
Width: 1024
Flags: W
Fore
508 1392 m 2,0,-1
 451 1447 l 2,1,2
 437 1460 437 1460 412 1476 c 0,3,4
 396 1486 396 1486 383 1486 c 0,5,6
 345 1486 345 1486 327 1450 c 0,7,8
 309 1413 309 1413 307 1331 c 1,9,-1
 212 1331 l 1,10,11
 213 1445 213 1445 257 1508 c 0,12,13
 300 1570 300 1570 377 1570 c 0,14,15
 415 1570 415 1570 447 1556 c 0,16,17
 484 1540 484 1540 516 1509 c 2,18,-1
 573 1454 l 2,19,20
 587 1441 587 1441 612 1425 c 0,21,22
 628 1415 628 1415 641 1415 c 0,23,24
 679 1415 679 1415 697 1451 c 0,25,26
 715 1488 715 1488 717 1570 c 1,27,-1
 809 1570 l 1,28,29
 808 1464 808 1464 765 1398 c 0,30,31
 723 1331 723 1331 647 1331 c 0,32,33
 609 1331 609 1331 577 1345 c 0,34,35
 540 1361 540 1361 508 1392 c 2,0,-1
EndSplineSet
Ligature: 0 1 'liga' space tildecomb
EndChar
StartChar: hungarumlaut
Encoding: 733 733 733
Width: 1024
Flags: W
Fore
776 1636 m 1,0,-1
 904 1636 l 1,1,-1
 668 1260 l 1,2,-1
 586 1260 l 1,3,-1
 776 1636 l 1,0,-1
456 1638 m 1,4,-1
 584 1638 l 1,5,-1
 348 1262 l 1,6,-1
 266 1262 l 1,7,-1
 456 1638 l 1,4,-1
EndSplineSet
LCarets: 0 65535 '    ' 1 0 
Ligature: 0 1 'liga' space uni030B
EndChar
StartChar: hookabovecomb
Encoding: 777 777 777
Width: 0
Flags: W
TeX: 104 0 0 0
AnchorPoint: "above-mark" -512 1147 mark 0
AnchorPoint: "above-mark" -512 1733 basemark 0
AnchorPoint: "above" -512 1147 mark 0
Fore
-520.9 1734 m 0,0,1
 -329.801 1734 -329.801 1734 -329.101 1554 c 0,4,5
 -329.101 1511.36 -329.101 1511.36 -348 1453.5 c 0,6,7
 -369.118 1387.27 -369.118 1387.27 -468 1353.6 c 1,8,-1
 -468 1266 l 1,9,-1
 -556 1266 l 1,10,-1
 -556 1374 l 1,11,12
 -477.166 1389.55 -477.166 1389.55 -442.694 1434.78 c 0,13,14
 -420.818 1463.18 -420.818 1463.18 -420.818 1534.99 c 0,15,16
 -420.818 1663.14 -420.818 1663.14 -541.9 1663.14 c 0,17,18
 -632.9 1663.14 -632.9 1663.14 -696.9 1624.1 c 1,19,-1
 -696.9 1696 l 1,20,21
 -629.9 1734 -629.9 1734 -520.9 1734 c 0,0,1
EndSplineSet
EndChar
StartChar: uni030D
Encoding: 781 781 781
Width: 0
Flags: W
TeX: 117 0 0 0
AnchorPoint: "above-mark" -512 1704 basemark 0
AnchorPoint: "above-mark" -512 1147 mark 0
AnchorPoint: "above" -512 1147 mark 0
Fore
-468.48 1704 m 1,0,-1
 -468.48 1260 l 1,1,-1
 -555.52 1260 l 1,2,-1
 -555.52 1704 l 1,3,-1
 -468.48 1704 l 1,0,-1
EndSplineSet
EndChar
StartChar: uni030F
Encoding: 783 783 783
Width: 0
Flags: W
TeX: 117 0 0 0
AnchorPoint: "above-mark" -512 1640 basemark 0
AnchorPoint: "above-mark" -512 1147 mark 0
AnchorPoint: "above" -512 1147 mark 0
Fore
-768 1636 m 1,0,-1
 -578 1260 l 1,1,-1
 -660 1260 l 1,2,-1
 -896 1636 l 1,3,-1
 -768 1636 l 1,0,-1
-448 1638 m 1,4,-1
 -258 1262 l 1,5,-1
 -340 1262 l 1,6,-1
 -576 1638 l 1,7,-1
 -448 1638 l 1,4,-1
EndSplineSet
Substitution: 0 65534 'sd01' Doubleacute
EndChar
StartChar: uni0312
Encoding: 786 786 786
Width: 0
Flags: W
TeX: 0 0 0 0
AnchorPoint: "above" -374 879 mark 0
Fore
-324.5 1001 m 1,0,-1
 -430 1001 l 1,1,-1
 -290.5 1320 l 1,2,-1
 -226 1320 l 1,3,-1
 -324.5 1001 l 1,0,-1
EndSplineSet
EndChar
StartChar: uni0313
Encoding: 787 787 787
Width: 0
Flags: W
TeX: 117 0 0 0
AnchorPoint: "above" -512 1138 mark 0
Fore
-382 1479 m 2,0,1
 -382 1300 -382 1300 -568.188 1300 c 1,2,-1
 -568.188 1381 l 1,3,4
 -480.826 1378.1 -480.826 1378.1 -480 1478 c 2,0,0
 -479.5 1538.5 l 1,5,-1
 -563.5 1538.5 l 1,6,-1
 -563.5 1729 l 1,7,-1
 -382 1729 l 1,8,-1
 -382 1479 l 2,0,1
EndSplineSet
EndChar
StartChar: uni0314
Encoding: 788 788 788
Width: 0
Flags: W
TeX: 117 0 0 0
AnchorPoint: "above" -512 1138 mark 0
Fore
-624 1479 m 2,0,1
 -624 1729 l 1,8,-1
 -442.5 1729 l 1,7,-1
 -442.5 1538.5 l 1,6,-1
 -526.5 1538.5 l 1,5,-1
 -526 1478 l 2,0,0
 -525.175 1378.1 -525.175 1378.1 -437.812 1381 c 1,3,4
 -437.812 1300 l 1,2,-1
 -624 1300 -624 1300 -624 1479 c 2,0,1
EndSplineSet
EndChar
StartChar: uni0315
Encoding: 789 789 789
Width: 0
Flags: W
TeX: 117 0 0 0
Fore
-13.5 1556 m 1,0,-1
 86 1556 l 1,1,-1
 -21.5 1178 l 1,2,-1
 -98 1178 l 1,3,-1
 -13.5 1556 l 1,0,-1
EndSplineSet
EndChar
StartChar: uni031B
Encoding: 795 795 795
Width: 0
Flags: W
TeX: 117 0 0 0
Fore
-252 885 m 1,0,-1
 -252 970 l 1,1,2
 -183 922 -183 922 -134 899 c 0,3,4
 -86 875 -86 875 -52 875 c 0,5,6
 0 875 0 875 27 908 c 0,7,8
 54 940 54 940 54 1004 c 0,9,10
 54 1055 54 1055 46 1095 c 0,11,12
 37 1135 37 1135 18 1171 c 1,13,-1
 111 1173 l 1,14,15
 122 1132 122 1132 128 1091 c 128,-1,16
 134 1050 134 1050 134 1006 c 0,17,18
 134 895 134 895 90 838 c 0,19,20
 45 782 45 782 -42 782 c 0,21,22
 -89 782 -89 782 -140 807 c 0,23,24
 -191 833 -191 833 -252 885 c 1,0,-1
EndSplineSet
EndChar
StartChar: uni0326
Encoding: 806 806 806
Width: 0
Flags: W
AnchorPoint: "below" -512 -1 mark 0
Fore
-533.5 -172 m 1,0,-1
 -428 -172 l 1,1,-1
 -566 -492 l 1,2,-1
 -630.5 -492 l 1,3,-1
 -533.5 -172 l 1,0,-1
EndSplineSet
EndChar
StartChar: uni0334
Encoding: 820 820 820
Width: 0
Flags: W
TeX: 117 0 0 0
Fore
-83 703 m 1,0,-1
 -83 606 l 1,1,2
 -158 547 -158 547 -229.5 519.5 c 128,-1,3
 -301 492 -301 492 -380 492 c 0,4,5
 -470 492 -470 492 -583 543 c 0,6,7
 -605 553 -605 553 -616 557 c 0,8,9
 -693 590 -693 590 -744.5 602 c 128,-1,10
 -796 614 -796 614 -847 614 c 0,11,12
 -926 614 -926 614 -996.5 584.5 c 128,-1,13
 -1067 555 -1067 555 -1140 492 c 1,14,-1
 -1140 589 l 1,15,16
 -1062 649 -1062 649 -989 676 c 128,-1,17
 -916 703 -916 703 -833 703 c 0,18,19
 -780 703 -780 703 -730 692 c 128,-1,20
 -680 681 -680 681 -606 650 c 0,21,22
 -594 645 -594 645 -573 635 c 0,23,24
 -457 580 -457 580 -364 580 c 0,25,26
 -294 580 -294 580 -225.5 610.5 c 128,-1,27
 -157 641 -157 641 -83 703 c 1,0,-1
EndSplineSet
EndChar
StartChar: uni0335
Encoding: 821 821 821
Width: 0
Flags: W
TeX: 117 0 0 0
Fore
-650 626.5 m 1,0,-1
 -123 626.5 l 1,1,-1
 -123 544.5 l 1,2,-1
 -650 544.5 l 1,3,-1
 -650 626.5 l 1,0,-1
EndSplineSet
EndChar
StartChar: uni0336
Encoding: 822 822 822
Width: 0
Flags: W
TeX: 117 0 0 0
Fore
-1300 626.5 m 1,0,-1
 0 626.5 l 1,1,-1
 0 544.5 l 1,2,-1
 -1300 544.5 l 1,3,-1
 -1300 626.5 l 1,0,-1
EndSplineSet
EndChar
StartChar: uni0337
Encoding: 823 823 823
Width: 0
Flags: W
TeX: 117 0 0 0
Fore
-149.043 1205.63 m 1,0,-1
 -78 1147.17 l 1,1,-1
 -1092 -85.2266 l 1,2,-1
 -1163.04 -26.7734 l 1,3,-1
 -149.043 1205.63 l 1,0,-1
EndSplineSet
EndChar
StartChar: uni0338
Encoding: 824 824 824
Width: 0
Flags: W
TeX: 117 0 0 0
Fore
-1501 0 m 25,0,-1
 -198.167 1544.33 l 25,3,-1
 -128.167 1482.33 l 25,2,-1
 -1430 -60 l 25,1,-1
 -1501 0 l 25,0,-1
EndSplineSet
EndChar
StartChar: uni0374
Encoding: 884 884 884
Width: 570
Flags: W
TeX: 0 0 0 0
Fore
159 1140 m 1,0,-1
 320 1638 l 1,1,-1
 415 1638 l 1,2,-1
 231.5 1140 l 1,3,-1
 159 1140 l 1,0,-1
EndSplineSet
EndChar
StartChar: uni0375
Encoding: 885 885 885
Width: 570
Flags: W
TeX: 0 0 0 0
Fore
416 72 m 1,0,-1
 255 -426 l 1,1,-1
 160 -426 l 1,2,-1
 343.5 72 l 1,3,-1
 416 72 l 1,0,-1
EndSplineSet
EndChar
StartChar: uni037A
Encoding: 890 890 890
Width: 740
Flags: W
TeX: 0 0 0 0
Fore
614.098 -426 m 1,0,-1
 554.098 -426 l 2,1,2
 431.498 -426 431.498 -426 431.498 -243 c 2,3,-1
 431.498 -92 l 1,4,-1
 506 -92 l 1,5,-1
 506 -256 l 2,6,7
 506 -360 506 -360 583.648 -360 c 2,8,-1
 614.098 -360 l 1,9,-1
 614.098 -426 l 1,0,-1
EndSplineSet
EndChar
StartChar: tonos
Encoding: 900 900 900
Width: 989
Flags: W
TeX: 0 0 0 0
Fore
651 1638 m 1,0,-1
 779 1638 l 1,1,-1
 453 1262 l 1,2,-1
 371 1262 l 1,3,-1
 651 1638 l 1,0,-1
EndSplineSet
EndChar
StartChar: Gamma
Encoding: 915 915 915
Width: 1141
Flags: W
TeX: 0 0 0 0
Fore
250 0 m 1,0,-1
 250 1493 l 1,1,-1
 1130 1493 l 1,2,-1
 1130 1410 l 1,3,-1
 350 1410 l 1,4,-1
 350 0 l 1,5,-1
 250 0 l 1,0,-1
EndSplineSet
EndChar
StartChar: uni0394
Encoding: 916 916 916
Width: 1401
Flags: W
TeX: 0 0 0 0
Fore
700 1391 m 1,0,-1
 206 82 l 1,1,-1
 1197 82 l 1,2,-1
 700 1391 l 1,0,-1
62 0 m 1,3,-1
 632 1493 l 1,4,-1
 764 1493 l 1,5,-1
 1333 0 l 1,6,-1
 62 0 l 1,3,-1
EndSplineSet
EndChar
StartChar: Theta
Encoding: 920 920 920
Width: 1612
Flags: W
TeX: 84 0 0 0
Fore
453 837.5 m 1,0,-1
 1159 837.5 l 1,1,-1
 1159 752.5 l 1,2,-1
 453 752.5 l 1,3,-1
 453 837.5 l 1,0,-1
807 1442 m 128,-1,1
 562 1442 562 1442 417 1255 c 0,2,3
 273 1068 273 1068 273 745 c 0,4,5
 273 424 273 424 417 237 c 0,6,7
 562 50 562 50 807 50 c 128,-1,8
 1052 50 1052 50 1196 237 c 0,9,10
 1339 424 1339 424 1339 745 c 0,11,12
 1339 1068 1339 1068 1196 1255 c 0,13,0
 1052 1442 1052 1442 807 1442 c 128,-1,1
807 1520 m 0,14,15
 1097 1520 1097 1520 1271 1310 c 0,16,17
 1445 1099 1445 1099 1445 745 c 0,18,19
 1445 392 1445 392 1271 182 c 0,20,21
 1097 -29 1097 -29 807 -29 c 0,22,23
 516 -29 516 -29 341 181 c 0,24,25
 167 391 167 391 167 745 c 128,-1,26
 167 1099 167 1099 341 1310 c 0,27,28
 516 1520 516 1520 807 1520 c 0,14,15
EndSplineSet
EndChar
StartChar: Lambda
Encoding: 923 923 923
Width: 1401
Flags: W
TeX: 0 0 0 0
Fore
763 1493 m 1,0,-1
 1333 0 l 1,1,-1
 1219 0 l 1,2,-1
 695 1393 l 1,3,-1
 167 0 l 1,4,-1
 62 0 l 1,5,-1
 631 1493 l 1,6,-1
 763 1493 l 1,0,-1
EndSplineSet
EndChar
StartChar: Xi
Encoding: 926 926 926
Width: 1294
Flags: W
TeX: 0 0 0 0
Fore
306 835 m 17,0,-1
 1017 835 l 1,1,-1
 1017 757 l 1,2,-1
 306 757 l 1,3,-1
 306 835 l 17,0,-1
201 1493 m 17,4,-1
 1122 1493 l 1,5,-1
 1122 1415 l 1,6,-1
 201 1415 l 1,7,-1
 201 1493 l 17,4,-1
201 78 m 17,8,-1
 1122 78 l 1,9,-1
 1122 0 l 1,10,-1
 201 0 l 1,11,-1
 201 78 l 17,8,-1
EndSplineSet
EndChar
StartChar: Sigma
Encoding: 931 931 931
Width: 1294
Flags: W
TeX: 83 0 0 0
Fore
307 80 m 1,0,-1
 1163 80 l 1,1,-1
 1163 0 l 1,2,-1
 201 0 l 1,3,-1
 201 96 l 1,4,-1
 734 794 l 1,5,-1
 201 1381 l 1,6,-1
 201 1493 l 1,7,-1
 1145 1493 l 1,8,-1
 1145 1397 l 1,9,-1
 312 1397 l 1,10,-1
 857 798 l 1,11,-1
 307 80 l 1,0,-1
EndSplineSet
EndChar
StartChar: Psi
Encoding: 936 936 936
Width: 1612
Flags: W
TeX: 80 0 0 0
Fore
757 1493 m 1,0,-1
 861 1493 l 1,1,-1
 861 431.551 l 1,2,3
 1102.32 445.811 1102.32 445.811 1216.28 591.2 c 0,4,5
 1343.78 753.864 1343.78 753.864 1343.78 1122.9 c 2,6,-1
 1343.78 1493 l 1,7,-1
 1445.22 1493 l 1,8,-1
 1445.22 1079.6 l 2,9,10
 1445.22 718.222 1445.22 718.222 1283.53 532.76 c 0,11,12
 1136.52 364.152 1136.52 364.152 861 349.413 c 1,13,-1
 861 0 l 1,14,-1
 757 0 l 1,15,-1
 757 349.207 l 1,16,17
 478.543 362.931 478.543 362.931 330.475 532.76 c 0,18,19
 168.775 718.222 168.775 718.222 168.775 1079.6 c 2,20,-1
 168.775 1493 l 1,21,-1
 270.225 1493 l 1,22,-1
 270.225 1122.9 l 2,23,24
 270.225 753.864 270.225 753.864 397.725 591.2 c 0,25,26
 512.627 444.609 512.627 444.609 757 431.324 c 1,27,-1
 757 1493 l 1,0,-1
EndSplineSet
EndChar
StartChar: Omega
Encoding: 937 937 937
Width: 1565
Flags: W
TeX: 79 0 0 0
Fore
147 813.7 m 24,0,1
 147 1124.04 147 1124.04 324.44 1323.56 c 0,2,3
 500.638 1523.08 500.638 1523.08 782 1523.08 c 0,4,5
 1061.52 1523.08 1061.52 1523.08 1239.56 1323.56 c 0,6,7
 1416.68 1125.05 1416.68 1125.05 1416.68 813.7 c 0,8,9
 1416.68 589.434 1416.68 589.434 1326.41 418.124 c 128,-1,10
 1236.13 246.814 1236.13 246.814 1031.42 83.6064 c 1,11,-1
 1448 83.6064 l 1,12,-1
 1448 0.200195 l 1,13,-1
 869.029 0 l 1,14,-1
 869.029 80.3857 l 1,15,16
 1077.73 192.688 1077.73 192.688 1194.47 384.872 c 128,-1,17
 1311.2 577.059 1311.2 577.059 1311.2 810.922 c 0,18,19
 1311.2 1097.71 1311.2 1097.71 1165.67 1270.97 c 128,-1,20
 1020.14 1444.24 1020.14 1444.24 782 1444.24 c 128,-1,21
 543.86 1444.24 543.86 1444.24 398.33 1270.97 c 0,22,23
 251.697 1096.51 251.697 1096.51 252.479 810.922 c 24,24,25
 252.479 582.057 252.479 582.057 369.213 384.872 c 0,26,27
 482.547 192.688 482.547 192.688 701.945 80.3857 c 1,28,-1
 701.945 0 l 1,29,-1
 117 0.200195 l 1,30,-1
 117 83.6064 l 1,31,-1
 539.555 83.6064 l 1,32,33
 330.986 240.29 330.986 240.29 237.274 418.124 c 0,34,35
 147 589.434 147 589.434 147 813.7 c 24,0,1
EndSplineSet
EndChar
StartChar: alpha
Encoding: 945 945 945
Width: 1350
Flags: W
TeX: 97 0 0 0
AnchorPoint: "above" 586 1147 basechar 0
Fore
879 521 m 1,0,-1
 828.18 786.74 l 2,1,2
 772.984 1075.36 772.984 1075.36 570.615 1066.4 c 0,3,4
 426 1060 426 1060 345.39 936.6 c 0,5,6
 256.455 795.933 256.455 795.933 256.455 559 c 0,7,8
 256.455 299.438 256.455 299.438 342.503 176.901 c 0,9,10
 430.576 50.3203 430.576 50.3203 570.615 50.3203 c 0,11,12
 728.177 50.3203 728.177 50.3203 808.545 301.128 c 2,13,-1
 879 521 l 1,0,-1
940 700 m 1,15,-1
 1080 1120 l 1,16,-1
 1177 1120 l 17,17,-1
 972 513 l 1,18,-1
 1012 294 l 2,19,20
 1036.87 157.839 1036.87 157.839 1075 113 c 24,21,22
 1103.92 79 1103.92 79 1157.5 79 c 2,23,-1
 1220 79 l 1,24,-1
 1220 0 l 1,25,-1
 1142 0 l 2,26,27
 1044.27 0 1044.27 0 985 81 c 0,28,29
 955 121 955 121 910 332 c 1,30,31
 871.158 170.549 871.158 170.549 758 50 c 0,32,33
 686.352 -26.3274 686.352 -26.3274 579 -25 c 0,34,35
 369.784 -22.4131 369.784 -22.4131 268.835 127 c 0,36,37
 164.26 282.729 164.26 282.729 164.26 559 c 0,38,39
 164.26 832.739 164.26 832.739 298 1012 c 0,40,41
 396.216 1143.68 396.216 1143.68 579 1145 c 0,42,14
 888 1147 888 1147 940 700 c 1,15,-1
EndSplineSet
EndChar
StartChar: beta
Encoding: 946 946 946
Width: 1307
Flags: W
TeX: 98 0 0 0
AnchorPoint: "below" 638 -430 basechar 0
AnchorPoint: "above" 638 1520 basechar 0
Fore
330 114 m 1,0,-1
 330 -426 l 1,1,-1
 238 -419 l 1,2,-1
 238 1112 l 2,3,4
 238 1556 238 1556 650.668 1556 c 0,5,6
 1009.78 1556 1009.78 1556 1012 1184 c 0,7,8
 1013.39 909.436 1013.39 909.436 794 786 c 1,9,10
 1109.4 705.337 1109.4 705.337 1111 385 c 0,11,12
 1112.79 -29 1112.79 -29 677.9 -29 c 0,13,14
 426 -29 426 -29 330 114 c 1,0,-1
330 284 m 1,15,16
 421.313 51.7476 421.313 51.7476 674 50 c 0,17,18
 1020 47.9314 1020 47.9314 1020 382 c 0,19,20
 1020 728 1020 728 508.7 738 c 1,21,-1
 508.7 812.95 l 1,22,23
 915.717 805.57 915.717 805.57 915.717 1178 c 0,24,25
 915.717 1476.18 915.717 1476.18 638.667 1479 c 0,26,27
 330 1482.15 330 1482.15 330 1108.5 c 2,28,-1
 330 284 l 1,15,16
EndSplineSet
EndChar
StartChar: gamma
Encoding: 947 947 947
Width: 1212
Flags: W
TeX: 103 0 0 0
AnchorPoint: "above" 606 1154 basechar 0
Fore
314 970 m 2,1,-1
 609 135 l 1,2,-1
 1005 1120 l 1,3,-1
 1104 1120 l 1,4,-1
 651 0 l 1,5,-1
 651 -426 l 1,6,-1
 559.997 -426 l 1,7,-1
 559.997 0 l 1,8,-1
 224 948 l 2,0,-1
 188.557 1048 188.557 1048 126.997 1048 c 2,7,-1
 32 1048 l 1,8,-1
 32 1120 l 1,9,-1
 126 1120 l 2,10,11
 261.006 1120 261.006 1120 314 970 c 2,1,-1
EndSplineSet
EndChar
StartChar: delta
Encoding: 948 948 948
Width: 1253
Flags: W
TeX: 100 0 0 0
AnchorPoint: "above" 637 1520 basechar 0
Fore
1004 1325.55 m 1,0,1
 871 1438.08 871 1438.08 663 1438.08 c 0,2,3
 363.195 1438.08 363.195 1438.08 363.195 1250 c 0,4,5
 363.195 1149.02 363.195 1149.02 670.744 1084.8 c 0,6,7
 870.735 1043.04 870.735 1043.04 972 914 c 0,8,9
 1092.17 760.874 1092.17 760.874 1092.17 549 c 0,10,11
 1092.17 284 1092.17 284 968.185 128 c 0,12,13
 844.2 -29 844.2 -29 627 -29 c 0,14,15
 408.315 -29 408.315 -29 282.045 128 c 0,16,17
 156.69 284 156.69 284 156.69 559 c 0,18,19
 156.69 779.215 156.69 779.215 271 929 c 0,20,21
 329 1005 329 1005 440 1053 c 1,22,23
 258.383 1132 258.383 1132 258.383 1248 c 0,24,25
 258.383 1520 258.383 1520 663 1520 c 0,26,27
 884 1520 884 1520 1004 1431.1 c 1,28,-1
 1004 1325.55 l 1,0,1
535.325 1018.97 m 1,29,30
 433.902 991.201 433.902 991.201 361.41 896.37 c 0,31,32
 263.8 768.68 263.8 768.68 263.8 538.16 c 0,33,34
 263.8 308.77 263.8 308.77 360.275 179.95 c 0,35,36
 457.885 50 457.885 50 627 50 c 0,37,38
 793.845 50 793.845 50 891.455 181.08 c 128,-1,39
 989.065 312.16 989.065 312.16 989.065 526.86 c 0,40,41
 989.065 771.059 989.065 771.059 882 878 c 0,42,43
 783.886 972.307 783.886 972.307 648 998 c 0,43,44
 549.819 1016.56 549.819 1016.56 535.325 1018.97 c 1,29,30
EndSplineSet
EndChar
StartChar: epsilon
Encoding: 949 949 949
Width: 1107
Flags: W
TeX: 101 0 0 0
AnchorPoint: "above" 576 1147 basechar 0
Fore
395 604 m 1,0,1
 307.862 626.081 307.862 626.081 257.83 693 c 0,2,3
 209.98 757 209.98 757 209.98 850 c 0,4,5
 209.98 983.913 209.98 983.913 307 1066 c 128,-1,6
 403.917 1148 403.917 1148 586 1148 c 0,7,8
 662 1148 662 1148 747 1129.85 c 128,-1,9
 832 1111.7 832 1111.7 930 1075.4 c 1,10,-1
 930 983.5 l 1,11,12
 833 1027 833 1027 753 1046.5 c 0,13,14
 672 1066 672 1066 601 1066 c 0,15,16
 407.054 1066 407.054 1066 348 986 c 0,17,18
 303.01 923.697 303.01 923.697 303.01 832 c 0,19,20
 303.01 748 303.01 748 381.55 694 c 0,21,22
 458.935 641.2 458.935 641.2 592.915 641.2 c 2,23,-1
 749 641.2 l 1,24,-1
 749 562.925 l 1,25,-1
 596.793 562.925 l 2,26,27
 442.325 562.925 442.325 562.925 361.145 500.96 c 0,28,29
 273.2 432.92 273.2 432.92 273.2 326 c 0,30,31
 273.2 193.351 273.2 193.351 356 121 c 0,32,33
 438.146 50.2695 438.146 50.2695 634 50.2695 c 0,34,35
 722.497 50.2695 722.497 50.2695 836 93 c 0,36,37
 920 125 920 125 968 151.28 c 1,38,-1
 968 64.5195 l 1,39,40
 878 17.7598 878 17.7598 794 -5.62012 c 0,41,42
 709 -29 709 -29 585.125 -29 c 0,43,44
 391.75 -29 391.75 -29 286.938 62 c 0,45,46
 182.125 153 182.125 153 182.125 326 c 0,47,48
 182.125 429.819 182.125 429.819 238.188 507 c 0,49,50
 291.806 580.815 291.806 580.815 395 604 c 1,0,1
EndSplineSet
EndChar
StartChar: zeta
Encoding: 950 950 950
Width: 1114
Flags: W
TeX: 122 0 0 0
AnchorPoint: "above" 581 1520 basechar 0
Fore
714 54.5898 m 0,19,20
 826.139 53.5654 826.139 53.5654 893.35 -10.0127 c 0,15,16
 964.75 -77.4102 964.75 -77.4102 964.75 -179.17 c 0,17,18
 964.75 -282.621 964.75 -282.621 901.85 -344.926 c 0,12,13
 818 -426 818 -426 692 -430 c 9,10,11
 692 -400.407 692 -400.407 692 -340.25 c 1,8,9
 776 -340.25 776 -340.25 829.7 -291.695 c 0,10,11
 871.3 -254.569 871.3 -254.569 871.3 -202.055 c 0,5,6
 871.3 -136.07 871.3 -136.07 829.7 -81.29 c 0,7,8
 788.75 -29 788.75 -29 714 -29 c 24,7,8
 138 -28.9971 138 -28.9971 138 534 c 0,9,10
 138 1014 138 1014 856 1479 c 1,11,-1
 146 1479 l 1,12,-1
 146 1556 l 1,13,-1
 1016 1556 l 1,14,-1
 1016 1479 l 1,15,16
 232.348 1059.11 232.348 1059.11 234 534 c 0,17,18
 235.765 58.3918 235.765 58.3918 714 54.5898 c 0,19,20
EndSplineSet
EndChar
StartChar: eta
Encoding: 951 951 951
Width: 1298
Flags: W
TeX: 0 0 0 0
AnchorPoint: "below" 678 0 basechar 0
AnchorPoint: "above" 649 1147 basechar 0
Fore
1078 676 m 2,0,-1
 1078 -426 l 1,1,-1
 986 -426 l 1,2,-1
 986 670 l 2,3,4
 986 888 986 888 916 977 c 128,-1,5
 846 1066 846 1066 710 1066 c 0,6,7
 551 1066 551 1066 438 970 c 0,8,9
 324 873 324 873 324 633 c 2,10,-1
 324 0 l 1,11,-1
 232 0 l 1,12,-1
 232 1120 l 1,13,-1
 324 1120 l 1,14,-1
 324 910 l 1,15,16
 373 1012 373 1012 453 1066 c 0,17,18
 571 1147 571 1147 714 1147 c 0,19,20
 880 1147 880 1147 979 1034 c 0,21,22
 1078 922 1078 922 1078 676 c 2,0,-1
EndSplineSet
EndChar
StartChar: theta
Encoding: 952 952 952
Width: 1253
Flags: W
TeX: 116 0 0 0
AnchorPoint: "below" 637 0 basechar 0
AnchorPoint: "above" 637 1520 basechar 0
Fore
627 1571.69 m 0,0,1
 844.197 1571.69 844.197 1571.69 968.185 1360.19 c 128,-1,2
 1092.17 1148.69 1092.17 1148.69 1092.17 774.52 c 0,3,4
 1092.17 401.702 1092.17 401.702 968.185 189.524 c 128,-1,5
 844.2 -22.6465 844.2 -22.6465 627 -22.6465 c 0,6,7
 408.895 -22.6465 408.895 -22.6465 285.362 189.524 c 128,-1,8
 161.83 401.695 161.83 401.695 161.83 774.52 c 0,9,10
 161.83 1148.69 161.83 1148.69 285.362 1360.19 c 128,-1,11
 408.898 1571.69 408.898 1571.69 627 1571.69 c 0,0,1
627 1497.93 m 0,12,13
 449.867 1497.93 449.867 1497.93 349.537 1305.87 c 0,14,15
 254.493 1123.93 254.493 1123.93 249.488 809.405 c 1,16,-1
 1004.51 809.415 l 1,17,18
 999.486 1123.93 999.486 1123.93 904.095 1305.87 c 0,19,20
 803.398 1497.93 803.398 1497.93 627 1497.93 c 0,12,13
249.618 731.464 m 1,21,22
 255.605 423.194 255.605 423.194 349.537 242.805 c 0,23,24
 449.865 50.1348 449.865 50.1348 627 50.1348 c 0,25,26
 803.4 50.1348 803.4 50.1348 904.095 242.805 c 0,27,28
 998.373 423.202 998.373 423.202 1004.38 731.473 c 1,29,-1
 249.618 731.464 l 1,21,22
EndSplineSet
EndChar
StartChar: iota
Encoding: 953 953 953
Width: 793
Flags: W
TeX: 105 0 0 0
AnchorPoint: "below" 287 0 basechar 0
AnchorPoint: "above" 287 1147 basechar 0
Fore
324 1120 m 1,0,-1
 324 280 l 2,1,2
 324 162.85 324 162.85 348 122 c 0,3,4
 375.59 76 375.59 76 464 76 c 2,5,-1
 556 76 l 1,6,-1
 556 0 l 1,7,-1
 448 0 l 2,8,9
 323 0 323 0 278.5 68 c 128,-1,10
 234 136 234 136 234 284 c 2,11,-1
 234 1120 l 1,12,-1
 324 1120 l 1,0,-1
EndSplineSet
EndChar
StartChar: lambda
Encoding: 955 955 955
Width: 1212
Flags: W
TeX: 108 0 0 0
AnchorPoint: "above" 606 1520 basechar 0
AnchorPoint: "below" 606 0 basechar 0
Fore
610 1224 m 2,0,1
 1102 0 l 1,17,-1
 1005 0 l 1,16,-1
 606 998 l 1,15,-1
 208 0 l 1,14,-1
 110 0 l 1,13,-1
 557 1120 l 1,12,-1
 524 1203 l 2,11,-1
 478 1321 478 1321 407 1382 c 0,9,10
 352 1429 352 1429 279 1429 c 2,7,8
 162 1429 l 1,6,-1
 162 1507 l 1,5,-1
 299 1507 l 2,4,-1
 388 1507 388 1507 481 1430 c 0,2,3
 550 1373 550 1373 610 1224 c 2,0,1
EndSplineSet
EndChar
StartChar: nu
Encoding: 957 957 957
Width: 1144
Flags: W
TeX: 110 0 0 0
AnchorPoint: "above" 534 1147 basechar 0
Fore
480 0 m 17,8,-1
 138 1120 l 9,9,-1
 234 1120 l 17,12,-1
 549 89 l 17,13,14
 794.304 364.227 794.304 364.227 861 500 c 0,0,0
 913.36 606.588 913.36 606.588 912 710 c 0,4,5
 911.471 763.543 911.471 763.543 886 872 c 0,6,7
 857.043 991.168 857.043 991.168 756 1120 c 9,7,-1
 866.27 1120 l 1,8,-1
 866.27 1120 l 1,9,10
 928.024 1030.63 928.024 1030.63 968.62 907 c 0,11,12
 1006 793.158 1006 793.158 1006 715 c 0,12,13
 1006 518.753 1006 518.753 870 344 c 0,0,0
 685 105 685 105 585 0 c 9,0,1
 480 0 l 17,8,-1
EndSplineSet
EndChar
StartChar: xi
Encoding: 958 958 958
Width: 1142
Flags: W
TeX: 120 0 0 0
AnchorPoint: "above" 581 1520 basechar 0
Fore
730 54.5898 m 24,19,20
 852.036 44.2034 852.036 44.2034 909.35 -10.0127 c 0,15,16
 980.75 -77.4102 980.75 -77.4102 980.75 -179.17 c 0,17,18
 980.75 -282.621 980.75 -282.621 917.85 -344.926 c 0,12,13
 834 -426 834 -426 708 -430 c 9,10,11
 708 -400.407 708 -400.407 708 -340.25 c 1,8,9
 792 -340.25 792 -340.25 845.7 -291.695 c 0,10,11
 887.3 -254.569 887.3 -254.569 887.3 -202.055 c 0,5,6
 887.3 -136.07 887.3 -136.07 845.7 -81.29 c 0,7,8
 804.75 -29 804.75 -29 730 -29 c 16,7,8
 140 -28.9912 140 -28.9912 140 408 c 0,9,10
 140 741.738 140 741.738 474 830 c 1,11,12
 201.581 891.643 201.581 891.643 200 1092 c 0,13,14
 198.233 1315.91 198.233 1315.91 638 1479 c 1,15,-1
 172 1479 l 1,16,-1
 172 1556 l 1,17,-1
 961 1556 l 1,18,-1
 961 1479 l 1,19,20
 293.003 1336.22 293.003 1336.22 292 1081 c 0,21,22
 291.212 890.355 291.212 890.355 860 870 c 1,23,-1
 860 792 l 1,24,25
 234 813.993 234 813.993 234 408 c 0,26,27
 234 96.8043 234 96.8043 730 54.5898 c 24,19,20
EndSplineSet
EndChar
StartChar: pi
Encoding: 960 960 960
Width: 1233
Flags: W
TeX: 112 0 0 0
AnchorPoint: "above" 624 1147 basechar 0
Fore
74 1120 m 1,0,-1
 1147 1120 l 1,1,-1
 1147 1042 l 1,2,-1
 959 1042 l 1,3,-1
 959 202.438 l 2,4,5
 959 115.522 959 115.522 979 89 c 0,6,7
 1004.04 57.5 1004.04 57.5 1043 57.5 c 0,7,8
 1075.74 57.5 1075.74 57.5 1121 66 c 0,9,-1
 1176 76.3291 l 1,10,-1
 1176 -4.63867 l 1,11,12
 1141 -17.0713 1141 -17.0713 1104 -22.8096 c 128,-1,13
 1067 -28.5479 1067 -28.5479 1030 -28.5479 c 0,14,15
 957 -28.5479 957 -28.5479 911 20.3125 c 128,-1,16
 865 69.1719 865 69.1719 865 200.46 c 2,17,-1
 865 1042 l 1,18,-1
 358 1042 l 1,19,-1
 358 0 l 1,20,-1
 264 0 l 1,21,-1
 264 1042 l 1,22,-1
 74 1042 l 1,23,-1
 74 1120 l 1,0,-1
EndSplineSet
EndChar
StartChar: rho
Encoding: 961 961 961
Width: 1300
Flags: W
TeX: 114 0 0 0
AnchorPoint: "above" 678 1147 basechar 0
Fore
314.505 920 m 0,0,1
 381.946 1043.37 381.946 1043.37 484 1096 c 0,2,3
 582.888 1147 582.888 1147 729 1147 c 0,4,5
 909.54 1147 909.54 1147 1022.38 985 c 128,-1,6
 1135.21 823 1135.21 823 1135.21 559 c 0,7,8
 1135.21 295 1135.21 295 1022.38 133 c 128,-1,9
 909.54 -29 909.54 -29 729 -29 c 0,10,11
 590.01 -29 590.01 -29 490.005 38.9004 c 128,-1,12
 390 106.8 390 106.8 324.46 246.8 c 1,13,-1
 324.46 -426 l 1,14,-1
 232.155 -426 l 1,15,-1
 232.155 549 l 2,16,17
 232.155 769.362 232.155 769.362 314.505 920 c 0,0,1
1043.95 557.78 m 0,18,19
 1043.95 795.29 1043.95 795.29 947.925 930.425 c 128,-1,20
 851.9 1065.56 851.9 1065.56 684 1065.56 c 0,21,22
 516.1 1065.56 516.1 1065.56 420.075 930.425 c 128,-1,23
 324.05 795.29 324.05 795.29 324.05 557.78 c 0,24,25
 324.05 320.27 324.05 320.27 420.075 185.135 c 128,-1,26
 516.1 50 516.1 50 684 50 c 0,27,28
 851.9 50 851.9 50 947.925 185.135 c 128,-1,29
 1043.95 320.27 1043.95 320.27 1043.95 557.78 c 0,18,19
EndSplineSet
EndChar
StartChar: sigma1
Encoding: 962 962 962
Width: 1202
Flags: W
TeX: 115 0 0 0
AnchorPoint: "above" 628 1147 basechar 0
Fore
714 54.5898 m 16,0,1
 826.139 53.5654 826.139 53.5654 893.35 -10.0127 c 0,2,3
 964.75 -77.4102 964.75 -77.4102 964.75 -179.17 c 0,4,5
 964.75 -282.621 964.75 -282.621 901.85 -344.926 c 0,6,7
 820.066 -425.934 820.066 -425.934 692 -430 c 9,8,9
 692 -400.407 692 -400.407 692 -340.25 c 1,10,11
 776 -340.25 776 -340.25 829.7 -291.695 c 0,12,13
 871.3 -254.569 871.3 -254.569 871.3 -202.055 c 0,14,15
 871.3 -136.07 871.3 -136.07 829.7 -81.29 c 0,16,17
 788.75 -29 788.75 -29 714 -29 c 24,18,19
 430 -29 430 -29 285 104 c 0,20,21
 140 238 140 238 140 559 c 152,-1,22
 140 880 140 880 285 1014 c 0,23,24
 430 1147 430 1147 676 1147 c 0,25,26
 756 1147 756 1147 846 1124 c 0,27,28
 936 1102 936 1102 999 1066 c 1,29,-1
 999 968 l 1,30,31
 912.163 1021.36 912.163 1021.36 862 1037 c 0,32,33
 769 1066 769 1066 684 1066 c 0,34,35
 442 1066 442 1066 337 942 c 128,-1,36
 232 818 232 818 232 559 c 24,37,38
 232 298 232 298 337 174 c 0,39,40
 435.963 57.1298 435.963 57.1298 714 54.5898 c 16,0,1
EndSplineSet
EndChar
StartChar: sigma
Encoding: 963 963 963
Width: 1298
Flags: W
TeX: 115 0 0 0
AnchorPoint: "above" 637 1147 basechar 0
Fore
627 1041.97 m 0,0,1
 455.32 1041.97 455.32 1041.97 355.56 912.732 c 128,-1,2
 255.8 783.497 255.8 783.497 255.8 558.593 c 0,3,4
 255.8 322.104 255.8 322.104 354.98 186.212 c 128,-1,5
 454.16 50.3204 454.16 50.3204 627 50.3203 c 0,6,7
 797.52 50.3203 797.52 50.3203 897.28 186.801 c 128,-1,8
 997.04 323.281 997.04 323.281 997.04 558.593 c 0,9,10
 997.04 781.259 997.04 781.259 897.28 911.613 c 128,-1,11
 797.52 1041.97 797.52 1041.97 627 1041.97 c 0,0,1
1190 1120.54 m 1,12,-1
 1190 1042.54 l 1,13,-1
 890.316 1042.54 l 1,14,15
 1088.31 893.561 1088.31 893.561 1088.32 559 c 0,16,17
 1088.32 284.001 1088.32 284.001 965.357 127.5 c 128,-1,18
 842.4 -29 842.4 -29 627 -29 c 0,19,20
 410.702 -29 410.702 -29 288.193 127.5 c 128,-1,21
 165.685 284 165.685 284 165.685 559 c 0,22,23
 165.685 822.58 165.685 822.58 288.193 971.56 c 128,-1,24
 410.703 1120.54 410.703 1120.54 627 1120.54 c 2,25,-1
 1190 1120.54 l 1,12,-1
EndSplineSet
EndChar
StartChar: tau
Encoding: 964 964 964
Width: 1233
Flags: W
TeX: 116 0 0 0
AnchorPoint: "above" 618 1147 basechar 0
Fore
120 1120 m 1,0,-1
 1111 1120 l 1,1,-1
 1111 1041 l 1,2,-1
 665 1041 l 1,3,-1
 665 1042 l 1,4,-1
 660 1042 l 1,5,-1
 660 280 l 2,6,7
 660 162.85 660 162.85 684 122 c 0,8,9
 711.59 76 711.59 76 800 76 c 2,10,-1
 892 76 l 1,11,-1
 892 0 l 1,12,-1
 784 0 l 2,13,14
 659 0 659 0 614.5 68 c 128,-1,15
 570 136 570 136 570 284 c 2,16,-1
 570 1042 l 1,17,-1
 566 1042 l 1,18,-1
 566 1041 l 1,19,-1
 120 1041 l 1,20,-1
 120 1120 l 1,0,-1
EndSplineSet
EndChar
StartChar: upsilon
Encoding: 965 965 965
Width: 1185
Flags: W
TeX: 117 0 0 0
Fore
289.138 1120 m 25,0,-1
 289.138 399.354 l 26,1,2
 289.138 218.131 289.138 218.131 351.771 140.086 c 16,3,4
 404.062 74.9297 404.062 74.9297 549.5 74.9297 c 24,5,6
 738.289 74.9297 738.289 74.9297 841.09 283.912 c 0,7,8
 911.972 425.672 911.972 425.672 925.542 640 c 0,9,10
 932.488 748.491 932.488 748.491 902.163 870 c 0,11,12
 872.423 989.168 872.423 989.168 759.766 1120 c 9,13,-1
 876.096 1120 l 1,14,-1
 876.096 1120 l 1,15,16
 940.04 1029.87 940.04 1029.87 981.177 907 c 0,17,18
 1019.55 792.366 1019.55 792.366 1019.55 638 c 0,19,20
 1019.55 412.857 1019.55 412.857 902.595 210 c 0,21,22
 781.146 -0.539062 781.146 -0.539062 527.5 0 c 24,23,24
 355.371 0 355.371 0 283.724 96 c 0,25,26
 197.34 213.953 197.34 213.953 197.223 406 c 2,27,-1
 196.785 1120 l 9,28,-1
 289.138 1120 l 25,0,-1
EndSplineSet
EndChar
StartChar: phi
Encoding: 966 966 966
Width: 1351
Flags: W
TeX: 112 0 0 0
AnchorPoint: "above" 682 1147 basechar 0
Fore
810.444 1058.49 m 16,0,0
 723.741 1058.49 723.741 1058.49 723.741 881.99 c 18,0,0
 723.741 46.9512 l 1,6,7
 848.904 46.9512 848.904 46.9512 976.515 172.938 c 0,8,9
 1092.26 287.205 1092.26 287.205 1090.56 558.2 c 0,3,4
 1088.87 811.043 1088.87 811.043 975.848 947.114 c 0,5,6
 883.056 1058.49 883.056 1058.49 810.444 1058.49 c 16,0,0
829 1138.5 m 8,0,0
 946.613 1138.5 946.613 1138.5 1064.4 996 c 0,28,29
 1181.1 854.812 1181.1 854.812 1184.52 560 c 16,26,27
 1187.66 289.274 1187.66 289.274 1064.4 128.5 c 0,24,25
 947.351 -24 947.351 -24 726 -24 c 1,22,23
 726 -426 l 1,12,-1
 632 -426 l 1,13,-1
 632 -25 l 17,22,23
 399.667 -25 399.667 -25 284.612 127.5 c 0,24,25
 166.54 283.999 166.54 283.999 166.54 559 c 8,26,27
 165.638 848.221 165.638 848.221 284.612 991 c 0,28,29
 374.912 1099.37 374.912 1099.37 516 1128 c 9,0,0
 544.141 1052.41 l 17,0,0
 429.97 1025.6 429.97 1025.6 364 944 c 0,1,2
 252.901 806.586 252.901 806.586 254.438 558.2 c 16,3,4
 255.908 311.776 255.908 311.776 372.389 172.938 c 0,5,6
 478.084 46.9512 478.084 46.9512 633.812 46.9512 c 9,6,7
 633.812 883.207 l 10,0,0
 633.812 1138.5 633.812 1138.5 829 1138.5 c 8,0,0
EndSplineSet
EndChar
StartChar: chi
Encoding: 967 967 967
Width: 1212
Flags: W
TeX: 99 0 0 0
AnchorPoint: "above" 610 1147 basechar 0
Fore
786.325 -250.5 m 2,0,-1
 581 250 l 1,1,-1
 212 -426 l 1,2,-1
 108 -426 l 1,3,-1
 542.111 366.457 l 1,4,-1
 311 897.779 l 2,5,6
 248.982 1040.36 248.982 1040.36 108 1040.36 c 2,7,-1
 59 1040.36 l 1,8,-1
 59 1120 l 1,9,-1
 129 1118 l 2,10,11
 331.618 1112.21 331.618 1112.21 400.706 944.5 c 2,12,-1
 597 468 l 1,13,-1
 956 1120 l 1,14,-1
 1052 1120 l 1,15,-1
 636 360 l 1,16,-1
 872 -207.26 l 2,17,18
 931.235 -349.64 931.235 -349.64 1075 -349.64 c 2,19,-1
 1124 -349.64 l 1,20,-1
 1124 -426 l 1,21,-1
 1054 -424 l 2,22,23
 855.171 -418.319 855.171 -418.319 786.325 -250.5 c 2,0,-1
EndSplineSet
EndChar
